G04 Layer_Color=16711935*
%FSTAX24Y24*%
%MOIN*%
G70*
G01*
G75*
%ADD33R,0.0138X0.0315*%
%ADD63R,0.0552X0.0631*%
%ADD69C,0.0710*%
%ADD70R,0.0710X0.0710*%
%ADD71C,0.1655*%
%ADD72C,0.1025*%
%ADD73O,0.0714X0.0710*%
%ADD74R,0.0714X0.0710*%
%ADD75R,0.0533X0.0336*%
%ADD76R,0.0592X0.0257*%
%ADD77R,0.0749X0.0631*%
%ADD78R,0.0395X0.0293*%
%ADD79R,0.0631X0.0552*%
%ADD80R,0.2206X0.1222*%
%ADD81R,0.0710X0.1143*%
%ADD82R,0.0946X0.0316*%
%ADD83R,0.0611X0.0789*%
%ADD84R,0.0474X0.0316*%
%ADD85R,0.0316X0.0474*%
G04:AMPARAMS|DCode=86|XSize=69.8mil|YSize=24.1mil|CornerRadius=6mil|HoleSize=0mil|Usage=FLASHONLY|Rotation=270.000|XOffset=0mil|YOffset=0mil|HoleType=Round|Shape=RoundedRectangle|*
%AMROUNDEDRECTD86*
21,1,0.0698,0.0121,0,0,270.0*
21,1,0.0578,0.0241,0,0,270.0*
1,1,0.0120,-0.0061,-0.0289*
1,1,0.0120,-0.0061,0.0289*
1,1,0.0120,0.0061,0.0289*
1,1,0.0120,0.0061,-0.0289*
%
%ADD86ROUNDEDRECTD86*%
G04:AMPARAMS|DCode=87|XSize=34.4mil|YSize=54.1mil|CornerRadius=5.6mil|HoleSize=0mil|Usage=FLASHONLY|Rotation=180.000|XOffset=0mil|YOffset=0mil|HoleType=Round|Shape=RoundedRectangle|*
%AMROUNDEDRECTD87*
21,1,0.0344,0.0429,0,0,180.0*
21,1,0.0232,0.0541,0,0,180.0*
1,1,0.0112,-0.0116,0.0214*
1,1,0.0112,0.0116,0.0214*
1,1,0.0112,0.0116,-0.0214*
1,1,0.0112,-0.0116,-0.0214*
%
%ADD87ROUNDEDRECTD87*%
%ADD88R,0.0749X0.0749*%
%ADD89R,0.1143X0.0710*%
%ADD90R,0.1300X0.1300*%
%ADD91R,0.0180X0.0434*%
%ADD92R,0.0434X0.0180*%
G36*
X030145Y033649D02*
X029967D01*
Y034003D01*
X030145D01*
Y033649D01*
D02*
G37*
G36*
X029889Y033649D02*
X029711D01*
Y034003D01*
X029889D01*
Y033649D01*
D02*
G37*
G36*
X029632Y033648D02*
X029456D01*
Y034003D01*
X029632D01*
Y033648D01*
D02*
G37*
G36*
X029889Y034397D02*
X029711D01*
Y034751D01*
X029889D01*
Y034397D01*
D02*
G37*
G36*
X029633Y034397D02*
X029456D01*
Y034751D01*
X029633D01*
Y034397D01*
D02*
G37*
G36*
X030145Y034397D02*
X029967D01*
Y034751D01*
X030145D01*
Y034397D01*
D02*
G37*
D33*
X030056Y034574D02*
D03*
X0298D02*
D03*
X029544D02*
D03*
Y033826D02*
D03*
X0298D02*
D03*
X030056D02*
D03*
D63*
X033778Y032631D02*
D03*
X034526D02*
D03*
X033778Y035511D02*
D03*
X034526D02*
D03*
X033778Y034071D02*
D03*
X034526D02*
D03*
X032726Y034064D02*
D03*
X031978D02*
D03*
X032726Y035504D02*
D03*
X031978D02*
D03*
X032726Y032624D02*
D03*
X031978D02*
D03*
X032843Y044774D02*
D03*
X032095D02*
D03*
X029221Y044749D02*
D03*
X028473D02*
D03*
X032838Y039461D02*
D03*
X03209D02*
D03*
X030374Y044776D02*
D03*
X031122D02*
D03*
X028474Y039476D02*
D03*
X029222D02*
D03*
X030374Y039426D02*
D03*
X031122D02*
D03*
X020922Y042699D02*
D03*
X020174D02*
D03*
X012474Y032776D02*
D03*
X013222D02*
D03*
X014674Y030826D02*
D03*
X015422D02*
D03*
X015426Y031781D02*
D03*
X014678D02*
D03*
X015426Y029198D02*
D03*
X014678D02*
D03*
X014674Y028193D02*
D03*
X015422D02*
D03*
X013226Y027224D02*
D03*
X012478D02*
D03*
X020326Y027987D02*
D03*
X019578D02*
D03*
X020326Y029011D02*
D03*
X019578D02*
D03*
X019574Y030176D02*
D03*
X020322D02*
D03*
X019574Y033826D02*
D03*
X020322D02*
D03*
X020326Y034774D02*
D03*
X019578D02*
D03*
X019577Y031201D02*
D03*
X020325D02*
D03*
D69*
X03825Y0208D02*
D03*
Y0198D02*
D03*
Y0188D02*
D03*
Y0178D02*
D03*
Y0168D02*
D03*
X03925D02*
D03*
Y0178D02*
D03*
Y0188D02*
D03*
Y0198D02*
D03*
X0275Y0225D02*
D03*
Y0235D02*
D03*
X0285Y0225D02*
D03*
Y0235D02*
D03*
Y0245D02*
D03*
X01935Y0235D02*
D03*
Y0225D02*
D03*
D70*
X03925Y0208D02*
D03*
X0275Y0245D02*
D03*
X01935D02*
D03*
D71*
X04005Y0454D02*
D03*
X01175Y01565D02*
D03*
Y0454D02*
D03*
D72*
X01275Y0354D02*
D03*
X01375Y0364D02*
D03*
Y0344D02*
D03*
X01175D02*
D03*
Y0364D02*
D03*
D73*
X02445Y0186D02*
D03*
X02345D02*
D03*
X02245D02*
D03*
X02145D02*
D03*
Y0196D02*
D03*
X02245D02*
D03*
X02345D02*
D03*
D74*
X02445D02*
D03*
D75*
X027222Y035385D02*
D03*
Y034385D02*
D03*
Y033385D02*
D03*
Y035885D02*
D03*
Y034885D02*
D03*
Y033885D02*
D03*
D76*
X026368Y036769D02*
D03*
X02558D02*
D03*
Y031832D02*
D03*
X026368D02*
D03*
D77*
X021817Y036704D02*
D03*
Y031896D02*
D03*
D78*
X022045Y0333D02*
D03*
Y0353D02*
D03*
D79*
X0284Y036722D02*
D03*
Y035974D02*
D03*
X028081Y041422D02*
D03*
Y040674D02*
D03*
X028076Y043526D02*
D03*
Y042778D02*
D03*
X028149Y029578D02*
D03*
Y030326D02*
D03*
X028151Y028127D02*
D03*
Y027379D02*
D03*
X025335Y029573D02*
D03*
Y030321D02*
D03*
X024162Y028129D02*
D03*
Y027381D02*
D03*
X025335Y027378D02*
D03*
Y028126D02*
D03*
X024112Y030325D02*
D03*
Y029577D02*
D03*
X020841Y023478D02*
D03*
Y024226D02*
D03*
Y021783D02*
D03*
Y022531D02*
D03*
X025764Y022532D02*
D03*
Y021784D02*
D03*
X025811Y023476D02*
D03*
Y024224D02*
D03*
X011899Y024228D02*
D03*
Y024976D02*
D03*
Y022328D02*
D03*
Y023076D02*
D03*
X015899Y024228D02*
D03*
Y024976D02*
D03*
X015901Y023072D02*
D03*
Y022324D02*
D03*
X015949Y018878D02*
D03*
Y019626D02*
D03*
X017022Y018878D02*
D03*
Y019626D02*
D03*
X018103Y019625D02*
D03*
Y018877D02*
D03*
X019176Y019625D02*
D03*
Y018877D02*
D03*
D80*
X02455Y039755D02*
D03*
Y043574D02*
D03*
D81*
X021901Y0455D02*
D03*
X020799D02*
D03*
X023367Y045542D02*
D03*
X024469D02*
D03*
X034249Y041088D02*
D03*
X035351D02*
D03*
X034249Y0431D02*
D03*
X035351D02*
D03*
X021101Y04135D02*
D03*
X019999D02*
D03*
X021101Y0397D02*
D03*
X019999D02*
D03*
D82*
X029676Y0413D02*
D03*
Y0418D02*
D03*
Y0428D02*
D03*
X031724Y0413D02*
D03*
Y0418D02*
D03*
Y0428D02*
D03*
X029676Y0423D02*
D03*
X031724D02*
D03*
D83*
X021259Y04385D02*
D03*
X019941D02*
D03*
D84*
X013712Y030926D02*
D03*
Y031674D02*
D03*
X012688Y0313D02*
D03*
X013712Y028326D02*
D03*
Y029074D02*
D03*
X012688Y0287D02*
D03*
X026238Y030324D02*
D03*
Y029576D02*
D03*
X027262Y02995D02*
D03*
X026238Y028124D02*
D03*
Y027376D02*
D03*
X027262Y02775D02*
D03*
D85*
X020274Y033062D02*
D03*
X019526D02*
D03*
X0199Y032038D02*
D03*
D86*
X022198Y02413D02*
D03*
X022454D02*
D03*
X02271D02*
D03*
X022966D02*
D03*
X023222D02*
D03*
X023478D02*
D03*
X023734D02*
D03*
X02399D02*
D03*
X024246D02*
D03*
X024502D02*
D03*
Y02187D02*
D03*
X024246D02*
D03*
X02399D02*
D03*
X023734D02*
D03*
X023478D02*
D03*
X023222D02*
D03*
X022966D02*
D03*
X02271D02*
D03*
X022454D02*
D03*
X022198D02*
D03*
D87*
X01422Y02317D02*
D03*
X01385D02*
D03*
X01348D02*
D03*
Y02413D02*
D03*
X01422D02*
D03*
D88*
X01325Y0213D02*
D03*
X01455D02*
D03*
D89*
X0148Y017001D02*
D03*
Y015899D02*
D03*
D90*
X01755Y0164D02*
D03*
D91*
X016959Y01538D02*
D03*
X017156D02*
D03*
X017353D02*
D03*
X01755D02*
D03*
X017747D02*
D03*
X017944D02*
D03*
X018141D02*
D03*
Y01742D02*
D03*
X017944D02*
D03*
X017747D02*
D03*
X01755D02*
D03*
X017353D02*
D03*
X017156D02*
D03*
X016959D02*
D03*
D92*
X01857Y015809D02*
D03*
Y016006D02*
D03*
Y016203D02*
D03*
Y0164D02*
D03*
Y016597D02*
D03*
Y016794D02*
D03*
Y016991D02*
D03*
X01653D02*
D03*
Y016794D02*
D03*
Y016597D02*
D03*
Y0164D02*
D03*
Y016203D02*
D03*
Y016006D02*
D03*
Y015809D02*
D03*
M02*
