G04 Layer_Color=8421504*
%FSTAX24Y24*%
%MOIN*%
G70*
G01*
G75*
%ADD11R,0.0500X0.0550*%
%ADD12R,0.0374X0.0394*%
%ADD13R,0.0472X0.0551*%
%ADD14O,0.0236X0.0709*%
%ADD15O,0.0709X0.0236*%
%ADD16R,0.0472X0.0315*%
%ADD17R,0.0700X0.0100*%
%ADD18R,0.0748X0.0748*%
D11*
X0276Y046D02*
D03*
X0267D02*
D03*
X0125Y0306D02*
D03*
X0116D02*
D03*
X0125Y02945D02*
D03*
X0116D02*
D03*
D12*
X015493Y034405D02*
D03*
Y034995D02*
D03*
X01645Y034405D02*
D03*
Y034995D02*
D03*
D13*
X016347Y035876D02*
D03*
X015599D02*
D03*
D14*
X019766Y025805D02*
D03*
X028034D02*
D03*
Y037695D02*
D03*
X019766D02*
D03*
X02764Y025805D02*
D03*
X027246D02*
D03*
X026853D02*
D03*
X026459D02*
D03*
X026065D02*
D03*
X025672D02*
D03*
X025278D02*
D03*
X024884D02*
D03*
X024491D02*
D03*
X024097D02*
D03*
X023703D02*
D03*
X023309D02*
D03*
X022916D02*
D03*
X022522D02*
D03*
X022128D02*
D03*
X021735D02*
D03*
X021341D02*
D03*
X020947D02*
D03*
X020554D02*
D03*
X02016D02*
D03*
Y037695D02*
D03*
X020554D02*
D03*
X020947D02*
D03*
X021341D02*
D03*
X021735D02*
D03*
X022128D02*
D03*
X022522D02*
D03*
X022916D02*
D03*
X023309D02*
D03*
X023703D02*
D03*
X024097D02*
D03*
X024491D02*
D03*
X024884D02*
D03*
X025278D02*
D03*
X025672D02*
D03*
X026065D02*
D03*
X026459D02*
D03*
X026853D02*
D03*
X027246D02*
D03*
X02764D02*
D03*
D15*
X017955Y027616D02*
D03*
Y035884D02*
D03*
X029845D02*
D03*
X017955Y02801D02*
D03*
Y028404D02*
D03*
Y028797D02*
D03*
Y029191D02*
D03*
Y029585D02*
D03*
Y029978D02*
D03*
Y030372D02*
D03*
Y030766D02*
D03*
Y031159D02*
D03*
Y031553D02*
D03*
Y031947D02*
D03*
Y032341D02*
D03*
Y032734D02*
D03*
Y033128D02*
D03*
Y033522D02*
D03*
Y033915D02*
D03*
Y034309D02*
D03*
Y034703D02*
D03*
Y035096D02*
D03*
Y03549D02*
D03*
X029845D02*
D03*
Y035096D02*
D03*
Y034703D02*
D03*
Y034309D02*
D03*
Y033915D02*
D03*
Y033522D02*
D03*
Y033128D02*
D03*
Y032734D02*
D03*
Y032341D02*
D03*
Y031947D02*
D03*
Y031553D02*
D03*
Y031159D02*
D03*
Y030766D02*
D03*
Y030372D02*
D03*
Y029978D02*
D03*
Y029585D02*
D03*
Y029191D02*
D03*
Y028797D02*
D03*
Y028404D02*
D03*
Y02801D02*
D03*
D16*
X031272Y0271D02*
D03*
X034028D02*
D03*
X031272Y03005D02*
D03*
X034028D02*
D03*
D17*
X0126Y019818D02*
D03*
Y019562D02*
D03*
Y019306D02*
D03*
Y01905D02*
D03*
Y018806D02*
D03*
D18*
X011432Y020861D02*
D03*
Y017751D02*
D03*
M02*
