G04 Layer_Color=8388736*
%FSTAX24Y24*%
%MOIN*%
G70*
G01*
G75*
%ADD61R,0.0580X0.0630*%
%ADD62R,0.0434X0.0454*%
%ADD63R,0.0552X0.0631*%
%ADD64O,0.0316X0.0789*%
%ADD65O,0.0789X0.0316*%
%ADD66R,0.0552X0.0395*%
%ADD67R,0.0780X0.0180*%
%ADD68R,0.0828X0.0828*%
%ADD69C,0.0710*%
%ADD70R,0.0710X0.0710*%
%ADD71C,0.1655*%
%ADD72C,0.1025*%
%ADD73O,0.0714X0.0710*%
%ADD74R,0.0714X0.0710*%
D61*
X0276Y046D02*
D03*
X0267D02*
D03*
X0125Y0306D02*
D03*
X0116D02*
D03*
X0125Y02945D02*
D03*
X0116D02*
D03*
D62*
X015493Y034405D02*
D03*
Y034995D02*
D03*
X01645Y034405D02*
D03*
Y034995D02*
D03*
D63*
X016347Y035876D02*
D03*
X015599D02*
D03*
D64*
X019766Y025805D02*
D03*
X028034D02*
D03*
Y037695D02*
D03*
X019766D02*
D03*
X02764Y025805D02*
D03*
X027246D02*
D03*
X026853D02*
D03*
X026459D02*
D03*
X026065D02*
D03*
X025672D02*
D03*
X025278D02*
D03*
X024884D02*
D03*
X024491D02*
D03*
X024097D02*
D03*
X023703D02*
D03*
X023309D02*
D03*
X022916D02*
D03*
X022522D02*
D03*
X022128D02*
D03*
X021735D02*
D03*
X021341D02*
D03*
X020947D02*
D03*
X020554D02*
D03*
X02016D02*
D03*
Y037695D02*
D03*
X020554D02*
D03*
X020947D02*
D03*
X021341D02*
D03*
X021735D02*
D03*
X022128D02*
D03*
X022522D02*
D03*
X022916D02*
D03*
X023309D02*
D03*
X023703D02*
D03*
X024097D02*
D03*
X024491D02*
D03*
X024884D02*
D03*
X025278D02*
D03*
X025672D02*
D03*
X026065D02*
D03*
X026459D02*
D03*
X026853D02*
D03*
X027246D02*
D03*
X02764D02*
D03*
D65*
X017955Y027616D02*
D03*
Y035884D02*
D03*
X029845D02*
D03*
X017955Y02801D02*
D03*
Y028404D02*
D03*
Y028797D02*
D03*
Y029191D02*
D03*
Y029585D02*
D03*
Y029978D02*
D03*
Y030372D02*
D03*
Y030766D02*
D03*
Y031159D02*
D03*
Y031553D02*
D03*
Y031947D02*
D03*
Y032341D02*
D03*
Y032734D02*
D03*
Y033128D02*
D03*
Y033522D02*
D03*
Y033915D02*
D03*
Y034309D02*
D03*
Y034703D02*
D03*
Y035096D02*
D03*
Y03549D02*
D03*
X029845D02*
D03*
Y035096D02*
D03*
Y034703D02*
D03*
Y034309D02*
D03*
Y033915D02*
D03*
Y033522D02*
D03*
Y033128D02*
D03*
Y032734D02*
D03*
Y032341D02*
D03*
Y031947D02*
D03*
Y031553D02*
D03*
Y031159D02*
D03*
Y030766D02*
D03*
Y030372D02*
D03*
Y029978D02*
D03*
Y029585D02*
D03*
Y029191D02*
D03*
Y028797D02*
D03*
Y028404D02*
D03*
Y02801D02*
D03*
D66*
X031272Y0271D02*
D03*
X034028D02*
D03*
X031272Y03005D02*
D03*
X034028D02*
D03*
D67*
X0126Y019818D02*
D03*
Y019562D02*
D03*
Y019306D02*
D03*
Y01905D02*
D03*
Y018806D02*
D03*
D68*
X011432Y020861D02*
D03*
Y017751D02*
D03*
D69*
X03825Y0208D02*
D03*
Y0198D02*
D03*
Y0188D02*
D03*
Y0178D02*
D03*
Y0168D02*
D03*
X03925D02*
D03*
Y0178D02*
D03*
Y0188D02*
D03*
Y0198D02*
D03*
X0275Y0225D02*
D03*
Y0235D02*
D03*
X0285Y0225D02*
D03*
Y0235D02*
D03*
Y0245D02*
D03*
X01935Y0235D02*
D03*
Y0225D02*
D03*
D70*
X03925Y0208D02*
D03*
X0275Y0245D02*
D03*
X01935D02*
D03*
D71*
X04005Y0454D02*
D03*
X01175Y01565D02*
D03*
Y0454D02*
D03*
D72*
X01275Y0354D02*
D03*
X01375Y0364D02*
D03*
Y0344D02*
D03*
X01175D02*
D03*
Y0364D02*
D03*
D73*
X02445Y0186D02*
D03*
X02345D02*
D03*
X02245D02*
D03*
X02145D02*
D03*
Y0196D02*
D03*
X02245D02*
D03*
X02345D02*
D03*
D74*
X02445D02*
D03*
M02*
