G04 Layer_Physical_Order=2*
G04 Layer_Color=16711680*
%FSTAX24Y24*%
%MOIN*%
G70*
G01*
G75*
%ADD10C,0.0197*%
%ADD13R,0.0472X0.0551*%
%ADD19C,0.0090*%
%ADD20C,0.0500*%
%ADD21C,0.0630*%
%ADD22R,0.0630X0.0630*%
%ADD23C,0.1575*%
%ADD24C,0.0945*%
%ADD25O,0.0634X0.0630*%
%ADD26R,0.0634X0.0630*%
%ADD27C,0.0197*%
%ADD28C,0.0315*%
%ADD29R,0.0453X0.0256*%
%ADD30R,0.0512X0.0177*%
%ADD31R,0.0669X0.0551*%
%ADD32R,0.0315X0.0213*%
%ADD33R,0.0138X0.0315*%
%ADD34R,0.0551X0.0472*%
%ADD35R,0.2126X0.1142*%
%ADD36R,0.0630X0.1063*%
%ADD37R,0.0866X0.0236*%
%ADD38R,0.0531X0.0709*%
%ADD39R,0.0394X0.0236*%
%ADD40R,0.0236X0.0394*%
G04:AMPARAMS|DCode=41|XSize=61.8mil|YSize=16.1mil|CornerRadius=2mil|HoleSize=0mil|Usage=FLASHONLY|Rotation=270.000|XOffset=0mil|YOffset=0mil|HoleType=Round|Shape=RoundedRectangle|*
%AMROUNDEDRECTD41*
21,1,0.0618,0.0121,0,0,270.0*
21,1,0.0578,0.0161,0,0,270.0*
1,1,0.0040,-0.0061,-0.0289*
1,1,0.0040,-0.0061,0.0289*
1,1,0.0040,0.0061,0.0289*
1,1,0.0040,0.0061,-0.0289*
%
%ADD41ROUNDEDRECTD41*%
G04:AMPARAMS|DCode=42|XSize=26.4mil|YSize=46.1mil|CornerRadius=1.6mil|HoleSize=0mil|Usage=FLASHONLY|Rotation=180.000|XOffset=0mil|YOffset=0mil|HoleType=Round|Shape=RoundedRectangle|*
%AMROUNDEDRECTD42*
21,1,0.0264,0.0429,0,0,180.0*
21,1,0.0232,0.0461,0,0,180.0*
1,1,0.0032,-0.0116,0.0214*
1,1,0.0032,0.0116,0.0214*
1,1,0.0032,0.0116,-0.0214*
1,1,0.0032,-0.0116,-0.0214*
%
%ADD42ROUNDEDRECTD42*%
%ADD43R,0.0669X0.0669*%
%ADD44R,0.1063X0.0630*%
%ADD45R,0.1220X0.1220*%
%ADD46R,0.0100X0.0354*%
%ADD47R,0.0354X0.0100*%
%ADD48C,0.0098*%
G36*
X014444Y029001D02*
X014442Y02902D01*
X014436Y029036D01*
X014426Y029051D01*
X014412Y029064D01*
X014394Y029075D01*
X014373Y029084D01*
X014347Y029091D01*
X014317Y029096D01*
X014283Y029098D01*
X014246Y029099D01*
Y029296D01*
X014283Y029297D01*
X014317Y0293D01*
X014347Y029305D01*
X014373Y029312D01*
X014394Y029321D01*
X014412Y029332D01*
X014426Y029345D01*
X014436Y029359D01*
X014442Y029376D01*
X014444Y029395D01*
Y029001D01*
D02*
G37*
G36*
X019346Y029384D02*
X01942Y02932D01*
X019453Y029297D01*
X019483Y02928D01*
X019509Y029269D01*
X019532Y029264D01*
X019552Y029265D01*
X019568Y029272D01*
X019582Y029285D01*
X019344Y028968D01*
X019353Y028985D01*
X019357Y029004D01*
X019356Y029026D01*
X01935Y02905D01*
X019338Y029077D01*
X019322Y029106D01*
X0193Y029138D01*
X019273Y029172D01*
X019241Y029208D01*
X019203Y029247D01*
X019303Y029425D01*
X019346Y029384D01*
D02*
G37*
G36*
X020422Y029445D02*
X020425Y029411D01*
X02043Y029382D01*
X020436Y029356D01*
X020445Y029334D01*
X020456Y029316D01*
X020469Y029303D01*
X020484Y029293D01*
X0205Y029287D01*
X020519Y029285D01*
X020125D01*
X020144Y029287D01*
X020161Y029293D01*
X020176Y029303D01*
X020188Y029316D01*
X020199Y029334D01*
X020208Y029356D01*
X020215Y029382D01*
X02022Y029411D01*
X020223Y029445D01*
X020224Y029483D01*
X020421D01*
X020422Y029445D01*
D02*
G37*
G36*
X024388Y029751D02*
X024394Y029735D01*
X024404Y02972D01*
X024418Y029707D01*
X024435Y029696D01*
X024457Y029687D01*
X024483Y029681D01*
X024512Y029676D01*
X024546Y029673D01*
X024583Y029672D01*
Y029475D01*
X024546Y029474D01*
X024512Y029471D01*
X024483Y029466D01*
X024457Y029459D01*
X024435Y02945D01*
X024418Y029439D01*
X024404Y029427D01*
X024394Y029412D01*
X024388Y029395D01*
X024386Y029376D01*
Y02977D01*
X024388Y029751D01*
D02*
G37*
G36*
X018708Y029484D02*
X018706Y029478D01*
X018704Y02947D01*
X018703Y02946D01*
X0187Y029433D01*
X018699Y029375D01*
X018698Y029351D01*
X018502D01*
X018501Y029375D01*
X018496Y02947D01*
X018494Y029478D01*
X018492Y029484D01*
X01849Y029488D01*
X01871D01*
X018708Y029484D01*
D02*
G37*
G36*
X022796Y030778D02*
X022796Y030774D01*
X022702Y030698D01*
X022624Y030602D01*
X022565Y030492D01*
X022529Y030373D01*
X022517Y03025D01*
X022529Y030127D01*
X022565Y030008D01*
X022624Y029898D01*
X022702Y029802D01*
X022798Y029724D01*
X022908Y029665D01*
X023027Y029629D01*
X02315Y029617D01*
X023273Y029629D01*
X023325Y029645D01*
X023328Y029642D01*
X023364Y029604D01*
Y028868D01*
X023376D01*
X023414Y028838D01*
Y028779D01*
X023412Y028776D01*
X023364Y028743D01*
X023273Y028771D01*
X02315Y028783D01*
X023027Y028771D01*
X022908Y028735D01*
X022798Y028676D01*
X022702Y028598D01*
X022624Y028502D01*
X022565Y028392D01*
X022529Y028273D01*
X022517Y02815D01*
X022529Y028027D01*
X022565Y027908D01*
X022624Y027798D01*
X022702Y027702D01*
X022798Y027624D01*
X022908Y027565D01*
X023027Y027529D01*
X02315Y027517D01*
X023273Y027529D01*
X023364Y027557D01*
X023412Y027524D01*
X023414Y027521D01*
Y0274D01*
X023377Y027367D01*
X023309Y027374D01*
X023186Y027361D01*
X023067Y027325D01*
X022958Y027267D01*
X022862Y027188D01*
X022846Y027169D01*
X022764Y027213D01*
X022646Y027249D01*
X022522Y027261D01*
X022399Y027249D01*
X02228Y027213D01*
X02217Y027154D01*
X022074Y027076D01*
X021996Y02698D01*
X021937Y02687D01*
X021901Y026751D01*
X021889Y026628D01*
X021901Y026504D01*
X021937Y026386D01*
X021996Y026276D01*
X022Y026271D01*
Y025749D01*
X02195Y025709D01*
X02185Y025722D01*
X0212D01*
X021065Y025704D01*
X020939Y025652D01*
X020921Y025638D01*
X020876Y02566D01*
Y026741D01*
X020885Y026758D01*
X020921Y026877D01*
X020933Y027D01*
X020921Y027123D01*
X020902Y027187D01*
X020902Y027189D01*
X020907Y027239D01*
X021034D01*
Y028263D01*
Y029608D01*
X021125Y02962D01*
X021264Y029677D01*
X021383Y029769D01*
X021707Y030093D01*
X021799Y030212D01*
X021856Y030351D01*
X021876Y0305D01*
Y030824D01*
X022769D01*
X022796Y030778D01*
D02*
G37*
G36*
X012158Y028584D02*
X012156Y028578D01*
X012154Y02857D01*
X012153Y02856D01*
X01215Y028533D01*
X012149Y028475D01*
X012148Y028451D01*
X011952D01*
X011951Y028475D01*
X011946Y02857D01*
X011944Y028578D01*
X011942Y028584D01*
X01194Y028588D01*
X01216D01*
X012158Y028584D01*
D02*
G37*
G36*
X012868Y028771D02*
X01286Y028756D01*
X012858Y028737D01*
X012863Y028714D01*
X012873Y028688D01*
X012891Y028659D01*
X012914Y028626D01*
X012944Y028589D01*
X013023Y028504D01*
X012805Y028444D01*
X012768Y028479D01*
X0127Y028536D01*
X012669Y028557D01*
X012641Y028574D01*
X012614Y028586D01*
X012589Y028592D01*
X012566Y028594D01*
X012545Y028592D01*
X012527Y028584D01*
X012883Y028783D01*
X012868Y028771D01*
D02*
G37*
G36*
X014777Y028627D02*
X01478Y028593D01*
X014785Y028564D01*
X014792Y028538D01*
X014801Y028517D01*
X014812Y028499D01*
X014824Y028485D01*
X014839Y028475D01*
X014856Y028469D01*
X014875Y028467D01*
X014481D01*
X0145Y028469D01*
X014516Y028475D01*
X014531Y028485D01*
X014544Y028499D01*
X014555Y028517D01*
X014564Y028538D01*
X01457Y028564D01*
X014575Y028593D01*
X014578Y028627D01*
X014579Y028664D01*
X014776D01*
X014777Y028627D01*
D02*
G37*
G36*
X014856Y028922D02*
X014839Y028916D01*
X014824Y028906D01*
X014812Y028892D01*
X014801Y028874D01*
X014792Y028853D01*
X014785Y028827D01*
X01478Y028798D01*
X014777Y028764D01*
X014776Y028727D01*
X014579D01*
X014578Y028764D01*
X014575Y028798D01*
X01457Y028827D01*
X014564Y028853D01*
X014555Y028874D01*
X014544Y028892D01*
X014531Y028906D01*
X014516Y028916D01*
X0145Y028922D01*
X014481Y028923D01*
X014875D01*
X014856Y028922D01*
D02*
G37*
G36*
X020504Y028735D02*
X020487Y028729D01*
X020472Y028719D01*
X02046Y028706D01*
X020449Y028688D01*
X02044Y028666D01*
X020433Y028641D01*
X020428Y028611D01*
X020425Y028578D01*
X020424Y02854D01*
X020227D01*
X020226Y028578D01*
X020223Y028611D01*
X020218Y028641D01*
X020212Y028666D01*
X020203Y028688D01*
X020192Y028706D01*
X020179Y028719D01*
X020164Y028729D01*
X020148Y028735D01*
X020129Y028737D01*
X020523D01*
X020504Y028735D01*
D02*
G37*
G36*
X0205Y029901D02*
X020484Y029895D01*
X020469Y029885D01*
X020456Y029871D01*
X020445Y029853D01*
X020436Y029832D01*
X02043Y029806D01*
X020425Y029776D01*
X020422Y029742D01*
X020421Y029705D01*
X020224D01*
X020223Y029742D01*
X02022Y029776D01*
X020215Y029806D01*
X020208Y029832D01*
X020199Y029853D01*
X020188Y029871D01*
X020176Y029885D01*
X020161Y029895D01*
X020144Y029901D01*
X020125Y029903D01*
X020519D01*
X0205Y029901D01*
D02*
G37*
G36*
X027442Y030021D02*
X027434Y030006D01*
X027432Y029987D01*
X027436Y029964D01*
X027447Y029938D01*
X027464Y029909D01*
X027488Y029876D01*
X027518Y029839D01*
X027597Y029754D01*
X027379Y029694D01*
X027342Y029729D01*
X027274Y029786D01*
X027243Y029807D01*
X027214Y029824D01*
X027187Y029836D01*
X027163Y029842D01*
X02714Y029844D01*
X027119Y029842D01*
X0271Y029834D01*
X027456Y030033D01*
X027442Y030021D01*
D02*
G37*
G36*
X020558Y030354D02*
X020564Y030337D01*
X020574Y030323D01*
X020588Y03031D01*
X020606Y030299D01*
X020627Y03029D01*
X020653Y030283D01*
X020683Y030278D01*
X020717Y030275D01*
X020754Y030274D01*
Y030078D01*
X020717Y030077D01*
X020683Y030074D01*
X020653Y030069D01*
X020627Y030062D01*
X020606Y030053D01*
X020588Y030042D01*
X020574Y030029D01*
X020564Y030015D01*
X020558Y029998D01*
X020556Y029979D01*
Y030373D01*
X020558Y030354D01*
D02*
G37*
G36*
X023432Y030226D02*
X023408Y030226D01*
X023337Y030221D01*
X023325Y030219D01*
X023315Y030217D01*
X023308Y030214D01*
X023304Y03021D01*
X023301Y030206D01*
X023207Y030397D01*
X023415Y030423D01*
X023432Y030226D01*
D02*
G37*
G36*
X023839Y030128D02*
X023837Y030147D01*
X023831Y030163D01*
X023821Y030178D01*
X023807Y030191D01*
X023789Y030202D01*
X023767Y030211D01*
X023742Y030217D01*
X023712Y030222D01*
X023678Y030225D01*
X023641Y030226D01*
Y030423D01*
X023678Y030424D01*
X023712Y030427D01*
X023742Y030432D01*
X023767Y030439D01*
X023789Y030448D01*
X023807Y030459D01*
X023821Y030471D01*
X023831Y030486D01*
X023837Y030503D01*
X023839Y030522D01*
Y030128D01*
D02*
G37*
G36*
X026043Y029459D02*
X026041Y029463D01*
X026035Y029466D01*
X026025Y029469D01*
X026011Y029471D01*
X025993Y029473D01*
X025917Y029477D01*
X025846Y029478D01*
Y029674D01*
X025883Y029675D01*
X026025Y029683D01*
X026035Y029686D01*
X026041Y029689D01*
X026043Y029693D01*
Y029459D01*
D02*
G37*
G36*
X02561Y029754D02*
X025616Y029737D01*
X025626Y029723D01*
X025639Y02971D01*
X025657Y029699D01*
X025679Y02969D01*
X025705Y029683D01*
X025735Y029678D01*
X025768Y029675D01*
X025806Y029674D01*
Y029478D01*
X025768Y029477D01*
X025735Y029474D01*
X025705Y029469D01*
X025679Y029462D01*
X025657Y029453D01*
X025639Y029442D01*
X025626Y029429D01*
X025616Y029415D01*
X02561Y029398D01*
X025608Y029379D01*
Y029773D01*
X02561Y029754D01*
D02*
G37*
G36*
X02506Y029376D02*
X025058Y029395D01*
X025052Y029412D01*
X025042Y029427D01*
X025029Y029439D01*
X025011Y02945D01*
X024989Y029459D01*
X024964Y029466D01*
X024934Y029471D01*
X024901Y029474D01*
X024863Y029475D01*
Y029672D01*
X024901Y029673D01*
X024934Y029676D01*
X024964Y029681D01*
X024989Y029687D01*
X025011Y029696D01*
X025029Y029707D01*
X025042Y02972D01*
X025052Y029735D01*
X025058Y029751D01*
X02506Y02977D01*
Y029376D01*
D02*
G37*
G36*
X027875Y029381D02*
X027873Y0294D01*
X027868Y029416D01*
X027858Y029431D01*
X027844Y029444D01*
X027826Y029455D01*
X027804Y029464D01*
X027778Y02947D01*
X027749Y029475D01*
X027715Y029478D01*
X027677Y029479D01*
Y029676D01*
X027715Y029677D01*
X027749Y02968D01*
X027778Y029685D01*
X027804Y029692D01*
X027826Y029701D01*
X027844Y029712D01*
X027858Y029724D01*
X027868Y029739D01*
X027873Y029756D01*
X027875Y029775D01*
Y029381D01*
D02*
G37*
G36*
X0158Y029433D02*
X015763Y029394D01*
X015704Y029324D01*
X015682Y029293D01*
X015665Y029264D01*
X015654Y029237D01*
X015647Y029213D01*
X015646Y029191D01*
X01565Y029171D01*
X01566Y029155D01*
X015422Y029471D01*
X015435Y029458D01*
X015452Y029451D01*
X015472Y029451D01*
X015495Y029456D01*
X015521Y029467D01*
X01555Y029484D01*
X015583Y029507D01*
X015619Y029536D01*
X0157Y029611D01*
X0158Y029433D01*
D02*
G37*
G36*
X028425Y029728D02*
X028431Y029711D01*
X028441Y029697D01*
X028455Y029684D01*
X028472Y029673D01*
X028494Y029664D01*
X02852Y029657D01*
X028549Y029652D01*
X028582Y029649D01*
X028617Y029648D01*
X028625Y029649D01*
X02872Y029654D01*
X028728Y029656D01*
X028734Y029658D01*
X028738Y02966D01*
Y02944D01*
X028734Y029442D01*
X028728Y029444D01*
X02872Y029446D01*
X02871Y029447D01*
X028683Y02945D01*
X028625Y029451D01*
X028617Y029451D01*
X028582Y029451D01*
X028549Y029448D01*
X02852Y029443D01*
X028494Y029436D01*
X028472Y029427D01*
X028455Y029416D01*
X028441Y029403D01*
X028431Y029389D01*
X028425Y029372D01*
X028423Y029353D01*
Y029747D01*
X028425Y029728D01*
D02*
G37*
G36*
X020425Y02842D02*
X020428Y028386D01*
X020433Y028357D01*
X02044Y028331D01*
X020449Y028309D01*
X02046Y028291D01*
X020472Y028278D01*
X020487Y028268D01*
X020504Y028262D01*
X020523Y02826D01*
X020129D01*
X020148Y028262D01*
X020164Y028268D01*
X020179Y028278D01*
X020192Y028291D01*
X020203Y028309D01*
X020212Y028331D01*
X020218Y028357D01*
X020223Y028386D01*
X020226Y02842D01*
X020227Y028458D01*
X020424D01*
X020425Y02842D01*
D02*
G37*
G36*
X02561Y027554D02*
X025616Y027537D01*
X025626Y027523D01*
X025639Y02751D01*
X025657Y027499D01*
X025679Y02749D01*
X025705Y027483D01*
X025735Y027478D01*
X025768Y027475D01*
X025806Y027474D01*
Y027278D01*
X025768Y027277D01*
X025735Y027274D01*
X025705Y027269D01*
X025679Y027262D01*
X025657Y027253D01*
X025639Y027242D01*
X025626Y027229D01*
X025616Y027215D01*
X02561Y027198D01*
X025608Y027179D01*
Y027573D01*
X02561Y027554D01*
D02*
G37*
G36*
X020424Y027223D02*
X020427Y027093D01*
X02021Y027129D01*
X020213Y027133D01*
X020216Y027138D01*
X020219Y027146D01*
X020221Y027157D01*
X020223Y027169D01*
X020226Y027201D01*
X020227Y027242D01*
X020227Y027266D01*
X020424Y027223D01*
D02*
G37*
G36*
X012246Y027597D02*
X01232Y027533D01*
X012353Y02751D01*
X012383Y027493D01*
X012409Y027482D01*
X012432Y027477D01*
X012452Y027478D01*
X012468Y027484D01*
X012482Y027497D01*
X012244Y027181D01*
X012253Y027198D01*
X012257Y027217D01*
X012256Y027239D01*
X01225Y027263D01*
X012238Y02729D01*
X012222Y027319D01*
X0122Y02735D01*
X012173Y027384D01*
X012141Y02742D01*
X012104Y027459D01*
X012203Y027638D01*
X012246Y027597D01*
D02*
G37*
G36*
X02506Y027181D02*
X025058Y0272D01*
X025052Y027216D01*
X025042Y027231D01*
X025029Y027244D01*
X025011Y027255D01*
X024989Y027264D01*
X024964Y027271D01*
X024934Y027275D01*
X024901Y027278D01*
X024863Y027279D01*
Y027476D01*
X024901Y027477D01*
X024934Y02748D01*
X024964Y027485D01*
X024989Y027492D01*
X025011Y027501D01*
X025029Y027512D01*
X025042Y027524D01*
X025052Y027539D01*
X025058Y027556D01*
X02506Y027575D01*
Y027181D01*
D02*
G37*
G36*
X024438Y027556D02*
X024444Y027539D01*
X024454Y027524D01*
X024468Y027512D01*
X024485Y027501D01*
X024507Y027492D01*
X024533Y027485D01*
X024562Y02748D01*
X024596Y027477D01*
X024633Y027476D01*
Y027279D01*
X024596Y027278D01*
X024562Y027275D01*
X024533Y027271D01*
X024507Y027264D01*
X024485Y027255D01*
X024468Y027244D01*
X024454Y027231D01*
X024444Y027216D01*
X024438Y0272D01*
X024436Y027181D01*
Y027575D01*
X024438Y027556D01*
D02*
G37*
G36*
X020408Y026884D02*
X020406Y026878D01*
X020404Y02687D01*
X020403Y02686D01*
X0204Y026833D01*
X020399Y026775D01*
X020398Y026751D01*
X020202D01*
X020201Y026775D01*
X020196Y02687D01*
X020194Y026878D01*
X020192Y026884D01*
X02019Y026888D01*
X02041D01*
X020408Y026884D01*
D02*
G37*
G36*
X023801Y026271D02*
X02379Y026257D01*
X02378Y026243D01*
X023772Y026227D01*
X023764Y026211D01*
X023759Y026195D01*
X023754Y026177D01*
X023751Y026159D01*
X023749Y02614D01*
X023748Y02612D01*
X023658D01*
X023658Y02614D01*
X023656Y026159D01*
X023652Y026177D01*
X023648Y026195D01*
X023642Y026211D01*
X023635Y026227D01*
X023626Y026243D01*
X023616Y026257D01*
X023605Y026271D01*
X023593Y026284D01*
X023813D01*
X023801Y026271D01*
D02*
G37*
G36*
X024588Y026265D02*
X024577Y026251D01*
X024568Y026236D01*
X024559Y026221D01*
X024552Y026205D01*
X024546Y026188D01*
X024541Y026171D01*
X024538Y026152D01*
X024536Y026133D01*
X024536Y026114D01*
X024446D01*
X024445Y026133D01*
X024443Y026152D01*
X02444Y026171D01*
X024435Y026188D01*
X024429Y026205D01*
X024422Y026221D01*
X024414Y026236D01*
X024404Y026251D01*
X024393Y026265D01*
X02438Y026278D01*
X024601D01*
X024588Y026265D01*
D02*
G37*
G36*
X02262Y026502D02*
X022609Y026488D01*
X022599Y026474D01*
X022591Y026458D01*
X022583Y026442D01*
X022577Y026426D01*
X022573Y026408D01*
X02257Y02639D01*
X022568Y026371D01*
X022567Y026351D01*
X022477D01*
X022476Y026371D01*
X022474Y02639D01*
X022471Y026408D01*
X022467Y026426D01*
X022461Y026442D01*
X022454Y026458D01*
X022445Y026474D01*
X022435Y026488D01*
X022424Y026502D01*
X022412Y026515D01*
X022632D01*
X02262Y026502D01*
D02*
G37*
G36*
X023407Y026615D02*
X023396Y026601D01*
X023386Y026586D01*
X023378Y026571D01*
X023371Y026555D01*
X023365Y026538D01*
X02336Y026521D01*
X023357Y026502D01*
X023355Y026483D01*
X023354Y026464D01*
X023264D01*
X023264Y026483D01*
X023262Y026502D01*
X023259Y026521D01*
X023254Y026538D01*
X023248Y026555D01*
X023241Y026571D01*
X023232Y026586D01*
X023223Y026601D01*
X023212Y026615D01*
X023199Y026628D01*
X02342D01*
X023407Y026615D01*
D02*
G37*
G36*
X024195Y026571D02*
X024184Y026557D01*
X024174Y026543D01*
X024165Y026527D01*
X024158Y026511D01*
X024152Y026495D01*
X024148Y026477D01*
X024144Y026459D01*
X024142Y02644D01*
X024142Y02642D01*
X024052D01*
X024051Y02644D01*
X024049Y026459D01*
X024046Y026477D01*
X024041Y026495D01*
X024036Y026511D01*
X024028Y026527D01*
X02402Y026543D01*
X02401Y026557D01*
X023999Y026571D01*
X023987Y026584D01*
X024207D01*
X024195Y026571D01*
D02*
G37*
G36*
X027227Y029171D02*
X027346Y029079D01*
X027401Y029057D01*
Y028884D01*
X027401Y028869D01*
X027401D01*
X027403Y028836D01*
X027403D01*
Y028647D01*
X027351Y028626D01*
X027232Y028534D01*
X027038Y028341D01*
X026593D01*
Y027967D01*
X026535D01*
Y028074D01*
X026238D01*
Y028124D01*
X026188D01*
Y028342D01*
X025941D01*
Y028086D01*
X02571D01*
Y028462D01*
X025385D01*
Y028126D01*
X025285D01*
Y028462D01*
X024959D01*
Y028462D01*
X02491Y028464D01*
Y028838D01*
X024949Y028865D01*
X026083D01*
Y028985D01*
X026907D01*
Y029359D01*
X027038D01*
X027227Y029171D01*
D02*
G37*
G36*
X023889Y027953D02*
X023887Y027972D01*
X023881Y027989D01*
X023871Y028003D01*
X023857Y028016D01*
X023839Y028027D01*
X023817Y028036D01*
X023792Y028043D01*
X023762Y028048D01*
X023728Y028051D01*
X023691Y028052D01*
Y028248D01*
X023728Y028249D01*
X023762Y028252D01*
X023792Y028257D01*
X023817Y028264D01*
X023839Y028273D01*
X023857Y028284D01*
X023871Y028297D01*
X023881Y028311D01*
X023887Y028328D01*
X023889Y028347D01*
Y027953D01*
D02*
G37*
G36*
X013889Y028207D02*
X013872Y028201D01*
X013858Y028191D01*
X013845Y028178D01*
X013835Y02816D01*
X013826Y028138D01*
X013819Y028113D01*
X013814Y028083D01*
X013811Y02805D01*
X01381Y028012D01*
X013613D01*
X013612Y02805D01*
X013609Y028083D01*
X013605Y028113D01*
X013598Y028138D01*
X013589Y02816D01*
X013578Y028178D01*
X013566Y028191D01*
X013551Y028201D01*
X013535Y028207D01*
X013516Y028209D01*
X013907D01*
X013889Y028207D01*
D02*
G37*
G36*
X028427Y028328D02*
X028432Y028311D01*
X028442Y028297D01*
X028456Y028284D01*
X028474Y028273D01*
X028496Y028264D01*
X028522Y028257D01*
X028551Y028252D01*
X028585Y028249D01*
X028619Y028249D01*
X028625Y028249D01*
X02872Y028254D01*
X028728Y028256D01*
X028734Y028258D01*
X028738Y02826D01*
Y02804D01*
X028734Y028042D01*
X028728Y028044D01*
X02872Y028046D01*
X02871Y028047D01*
X028683Y02805D01*
X028625Y028051D01*
X028619Y028051D01*
X028585Y028051D01*
X028551Y028048D01*
X028522Y028043D01*
X028496Y028036D01*
X028474Y028027D01*
X028456Y028016D01*
X028442Y028003D01*
X028432Y027989D01*
X028427Y027972D01*
X028425Y027953D01*
Y028347D01*
X028427Y028328D01*
D02*
G37*
G36*
X023266Y028258D02*
X023272Y028256D01*
X02328Y028254D01*
X02329Y028253D01*
X023317Y02825D01*
X023375Y028249D01*
X023399Y028248D01*
Y028052D01*
X023375Y028051D01*
X02328Y028046D01*
X023272Y028044D01*
X023266Y028042D01*
X023262Y02804D01*
Y02826D01*
X023266Y028258D01*
D02*
G37*
G36*
X019346Y028359D02*
X01942Y028295D01*
X019453Y028272D01*
X019483Y028255D01*
X019509Y028244D01*
X019532Y028239D01*
X019552Y02824D01*
X019568Y028247D01*
X019582Y02826D01*
X019344Y027943D01*
X019353Y02796D01*
X019357Y02798D01*
X019356Y028001D01*
X01935Y028026D01*
X019338Y028052D01*
X019322Y028081D01*
X0193Y028113D01*
X019273Y028147D01*
X019241Y028183D01*
X019203Y028222D01*
X019303Y0284D01*
X019346Y028359D01*
D02*
G37*
G36*
X013325Y027658D02*
X013328Y027624D01*
X013333Y027594D01*
X01334Y027568D01*
X013349Y027547D01*
X01336Y027529D01*
X013372Y027515D01*
X013387Y027505D01*
X013404Y027499D01*
X013423Y027497D01*
X013029D01*
X013048Y027499D01*
X013064Y027505D01*
X013079Y027515D01*
X013092Y027529D01*
X013103Y027547D01*
X013112Y027568D01*
X013118Y027594D01*
X013123Y027624D01*
X013126Y027658D01*
X013127Y027695D01*
X013324D01*
X013325Y027658D01*
D02*
G37*
G36*
X026043Y027259D02*
X026041Y027263D01*
X026035Y027266D01*
X026025Y027269D01*
X026011Y027271D01*
X025993Y027273D01*
X025917Y027277D01*
X025846Y027278D01*
Y027474D01*
X025883Y027475D01*
X026025Y027483D01*
X026035Y027486D01*
X026041Y027489D01*
X026043Y027493D01*
Y027259D01*
D02*
G37*
G36*
X020504Y02771D02*
X020487Y027704D01*
X020472Y027694D01*
X02046Y027681D01*
X020449Y027663D01*
X02044Y027641D01*
X020433Y027616D01*
X020428Y027586D01*
X020425Y027553D01*
X020424Y027515D01*
X020227D01*
X020226Y027553D01*
X020223Y027586D01*
X020218Y027616D01*
X020212Y027641D01*
X020203Y027663D01*
X020192Y027681D01*
X020179Y027694D01*
X020164Y027704D01*
X020148Y02771D01*
X020129Y027712D01*
X020523D01*
X020504Y02771D01*
D02*
G37*
G36*
X027877Y02793D02*
X027875Y027949D01*
X027869Y027965D01*
X027859Y02798D01*
X027845Y027993D01*
X027828Y028004D01*
X027806Y028013D01*
X02778Y02802D01*
X027751Y028024D01*
X027717Y028027D01*
X02768Y028028D01*
Y028225D01*
X027717Y028226D01*
X027751Y028229D01*
X02778Y028234D01*
X027806Y028241D01*
X027828Y02825D01*
X027845Y028261D01*
X027859Y028273D01*
X027869Y028288D01*
X027875Y028305D01*
X027877Y028324D01*
Y02793D01*
D02*
G37*
G36*
X027597Y027946D02*
X027554Y027902D01*
X027488Y027824D01*
X027464Y027791D01*
X027447Y027762D01*
X027436Y027736D01*
X027432Y027713D01*
X027434Y027694D01*
X027442Y027679D01*
X027456Y027667D01*
X0271Y027866D01*
X027119Y027858D01*
X02714Y027856D01*
X027163Y027858D01*
X027187Y027864D01*
X027214Y027876D01*
X027243Y027893D01*
X027274Y027914D01*
X027307Y02794D01*
X027342Y027971D01*
X027379Y028006D01*
X027597Y027946D01*
D02*
G37*
G36*
X029863Y033669D02*
X02986Y033666D01*
X029856Y033662D01*
X029853Y033655D01*
X029851Y033647D01*
X029849Y033637D01*
X029847Y033626D01*
X029845Y033597D01*
X029845Y03358D01*
X029755D01*
X029755Y033597D01*
X029751Y033637D01*
X029749Y033647D01*
X029747Y033655D01*
X029744Y033662D01*
X02974Y033666D01*
X029737Y033669D01*
X029732Y03367D01*
X029868D01*
X029863Y033669D01*
D02*
G37*
G36*
X028288Y03329D02*
X028284Y033292D01*
X028278Y033294D01*
X02827Y033296D01*
X02826Y033297D01*
X028233Y0333D01*
X028175Y033301D01*
X028151Y033302D01*
Y033498D01*
X028175Y033499D01*
X02827Y033504D01*
X028278Y033506D01*
X028284Y033508D01*
X028288Y03351D01*
Y03329D01*
D02*
G37*
G36*
X029476Y03367D02*
X029474Y033681D01*
X029469Y033691D01*
X029459Y033699D01*
X029445Y033707D01*
X029427Y033713D01*
X029406Y033718D01*
X02938Y033722D01*
X02935Y033725D01*
X02928Y033728D01*
Y033924D01*
X029317Y033925D01*
X02938Y03393D01*
X029406Y033934D01*
X029427Y033939D01*
X029445Y033945D01*
X029459Y033953D01*
X029469Y033961D01*
X029474Y033971D01*
X029476Y033982D01*
Y03367D01*
D02*
G37*
G36*
X031744Y033867D02*
X031742Y033886D01*
X031736Y033903D01*
X031726Y033917D01*
X031712Y03393D01*
X031694Y033941D01*
X031673Y03395D01*
X031647Y033957D01*
X031617Y033962D01*
X031583Y033965D01*
X031546Y033966D01*
Y034162D01*
X031583Y034163D01*
X031617Y034166D01*
X031647Y034171D01*
X031673Y034178D01*
X031694Y034187D01*
X031712Y034198D01*
X031726Y034211D01*
X031736Y034225D01*
X031742Y034242D01*
X031744Y034261D01*
Y033867D01*
D02*
G37*
G36*
X027449Y033995D02*
X027455Y03398D01*
X027465Y033967D01*
X027479Y033956D01*
X027496Y033946D01*
X027518Y033938D01*
X027544Y033932D01*
X027573Y033928D01*
X027607Y033925D01*
X027644Y033924D01*
Y033728D01*
X027447Y033758D01*
Y034011D01*
X027449Y033995D01*
D02*
G37*
G36*
Y033509D02*
X027455Y033507D01*
X027465Y033505D01*
X027479Y033503D01*
X027518Y0335D01*
X027644Y033498D01*
Y033302D01*
X027607Y033301D01*
X027518Y033295D01*
X027496Y033291D01*
X027479Y033286D01*
X027465Y03328D01*
X027455Y033274D01*
X027449Y033266D01*
X027447Y033258D01*
Y033511D01*
X027449Y033509D01*
D02*
G37*
G36*
X029008Y032684D02*
X029006Y032678D01*
X029004Y03267D01*
X029003Y03266D01*
X029Y032633D01*
X028999Y032575D01*
X028998Y032551D01*
X028802D01*
X028801Y032575D01*
X028796Y03267D01*
X028794Y032678D01*
X028792Y032684D01*
X02879Y032688D01*
X02901D01*
X029008Y032684D01*
D02*
G37*
G36*
X012478Y032503D02*
X012465Y032516D01*
X012448Y032522D01*
X012428Y032523D01*
X012405Y032518D01*
X012379Y032507D01*
X01235Y03249D01*
X012317Y032467D01*
X012281Y032438D01*
X0122Y032362D01*
X0121Y032541D01*
X012137Y03258D01*
X012197Y03265D01*
X012218Y032681D01*
X012235Y03271D01*
X012246Y032737D01*
X012253Y032761D01*
X012254Y032783D01*
X01225Y032802D01*
X01224Y032819D01*
X012478Y032503D01*
D02*
G37*
G36*
X032833Y033058D02*
X032836Y033024D01*
X03284Y032994D01*
X032847Y032968D01*
X032856Y032947D01*
X032867Y032929D01*
X03288Y032915D01*
X032895Y032905D01*
X032911Y032899D01*
X03293Y032897D01*
X032536D01*
X032555Y032899D01*
X032572Y032905D01*
X032587Y032915D01*
X032599Y032929D01*
X03261Y032947D01*
X032619Y032968D01*
X032626Y032994D01*
X032631Y033024D01*
X032634Y033058D01*
X032635Y033095D01*
X032832D01*
X032833Y033058D01*
D02*
G37*
G36*
X019752Y033551D02*
X019736Y033545D01*
X019721Y033535D01*
X019708Y033521D01*
X019697Y033503D01*
X019688Y033482D01*
X019682Y033456D01*
X019677Y033426D01*
X019674Y033392D01*
X019673Y033355D01*
X019668D01*
X019665Y033307D01*
X019662Y033289D01*
X019658Y033275D01*
X019654Y033265D01*
X019649Y033259D01*
X019643Y033257D01*
X019409D01*
X019422Y033259D01*
X019433Y033265D01*
X019443Y033275D01*
X019452Y033289D01*
X019459Y033307D01*
X019465Y033328D01*
X01947Y033354D01*
X019473Y033383D01*
X019474Y0334D01*
X019472Y033426D01*
X019467Y033456D01*
X01946Y033482D01*
X019451Y033503D01*
X01944Y033521D01*
X019428Y033535D01*
X019413Y033545D01*
X019396Y033551D01*
X019377Y033553D01*
X019771D01*
X019752Y033551D01*
D02*
G37*
G36*
X031196Y033256D02*
X031179Y033239D01*
X031111Y033162D01*
X031108Y033156D01*
X031107Y033152D01*
X030952Y033307D01*
X030956Y033308D01*
X030962Y033311D01*
X030968Y033315D01*
X030977Y033321D01*
X030997Y033339D01*
X031039Y033379D01*
X031056Y033396D01*
X031196Y033256D01*
D02*
G37*
G36*
X032825Y034498D02*
X032828Y034464D01*
X032833Y034434D01*
X03284Y034408D01*
X032849Y034387D01*
X03286Y034369D01*
X032872Y034355D01*
X032887Y034345D01*
X032904Y034339D01*
X032923Y034337D01*
X032529D01*
X032548Y034339D01*
X032564Y034345D01*
X032579Y034355D01*
X032592Y034369D01*
X032603Y034387D01*
X032612Y034408D01*
X032618Y034434D01*
X032623Y034464D01*
X032626Y034498D01*
X032627Y034535D01*
X032824D01*
X032825Y034498D01*
D02*
G37*
G36*
X019756Y034498D02*
X019739Y034492D01*
X019724Y034482D01*
X019712Y034468D01*
X019701Y03445D01*
X019692Y034429D01*
X019685Y034403D01*
X01968Y034374D01*
X019677Y03434D01*
X019676Y034303D01*
X019479D01*
X019478Y03434D01*
X019475Y034374D01*
X01947Y034403D01*
X019464Y034429D01*
X019455Y03445D01*
X019444Y034468D01*
X019431Y034482D01*
X019416Y034492D01*
X0194Y034498D01*
X019381Y0345D01*
X019775D01*
X019756Y034498D01*
D02*
G37*
G36*
X029476Y034513D02*
X029621D01*
X029615Y034504D01*
X029609Y034494D01*
X029605Y034482D01*
X029601Y034468D01*
X029597Y034453D01*
X029594Y034437D01*
X029592Y034419D01*
X029606D01*
X029603Y034418D01*
X0296Y034416D01*
X029597Y034413D01*
X029595Y034409D01*
X029593Y034403D01*
X029592Y034396D01*
X029591Y034388D01*
X02959Y034379D01*
X029589Y034356D01*
X029499D01*
X029499Y034368D01*
X029498Y034388D01*
X029496Y034396D01*
X029495Y034403D01*
X029493Y034409D01*
X029491Y034413D01*
X029488Y034416D01*
X029485Y034418D01*
X029482Y034419D01*
X029495D01*
X029494Y034437D01*
X029491Y034453D01*
X029488Y034468D01*
X029483Y034482D01*
X029479Y034494D01*
X029476Y034498D01*
Y034418D01*
X029474Y034429D01*
X029469Y034439D01*
X029459Y034447D01*
X029445Y034455D01*
X029427Y034461D01*
X029406Y034466D01*
X02938Y03447D01*
X02935Y034473D01*
X02928Y034476D01*
Y034672D01*
X029317Y034673D01*
X02938Y034678D01*
X029406Y034682D01*
X029427Y034687D01*
X029445Y034693D01*
X029459Y034701D01*
X029469Y034709D01*
X029474Y034719D01*
X029476Y03473D01*
Y034513D01*
D02*
G37*
G36*
X028516Y035158D02*
X028522Y035156D01*
X02853Y035154D01*
X02854Y035153D01*
X028567Y03515D01*
X028625Y035149D01*
X028649Y035148D01*
Y034952D01*
X028625Y034951D01*
X02853Y034946D01*
X028522Y034944D01*
X028516Y034942D01*
X028512Y03494D01*
Y03516D01*
X028516Y035158D01*
D02*
G37*
G36*
X020562Y034928D02*
X020567Y034911D01*
X020577Y034897D01*
X020591Y034884D01*
X020609Y034873D01*
X020631Y034864D01*
X020657Y034857D01*
X020686Y034852D01*
X02072Y034849D01*
X020757Y034848D01*
X020775Y034849D01*
X02087Y034854D01*
X020878Y034856D01*
X020884Y034858D01*
X020888Y03486D01*
Y03464D01*
X020884Y034642D01*
X020878Y034644D01*
X02087Y034646D01*
X02086Y034647D01*
X020833Y03465D01*
X020775Y034651D01*
X020757Y034652D01*
X02072Y034651D01*
X020686Y034648D01*
X020657Y034643D01*
X020631Y034636D01*
X020609Y034627D01*
X020591Y034616D01*
X020577Y034603D01*
X020567Y034589D01*
X020562Y034572D01*
X02056Y034553D01*
Y034947D01*
X020562Y034928D01*
D02*
G37*
G36*
X031246Y034406D02*
X031229Y034389D01*
X031165Y034318D01*
X031161Y034311D01*
X031158Y034306D01*
X031157Y034302D01*
X031002Y034457D01*
X031006Y034458D01*
X031011Y034461D01*
X031018Y034465D01*
X031026Y034471D01*
X031047Y034489D01*
X031089Y034529D01*
X031106Y034546D01*
X031246Y034406D01*
D02*
G37*
G36*
X033544Y033867D02*
X033542Y033886D01*
X033536Y033903D01*
X033526Y033917D01*
X033512Y03393D01*
X033494Y033941D01*
X033473Y03395D01*
X033447Y033957D01*
X033417Y033962D01*
X033383Y033965D01*
X033346Y033966D01*
Y034162D01*
X033383Y034163D01*
X033417Y034166D01*
X033447Y034171D01*
X033473Y034178D01*
X033494Y034187D01*
X033512Y034198D01*
X033526Y034211D01*
X033536Y034225D01*
X033542Y034242D01*
X033544Y034261D01*
Y033867D01*
D02*
G37*
G36*
X032962Y034242D02*
X032967Y034225D01*
X032977Y034211D01*
X032991Y034198D01*
X033009Y034187D01*
X033031Y034178D01*
X033057Y034171D01*
X033086Y034166D01*
X03312Y034163D01*
X033158Y034162D01*
Y033966D01*
X03312Y033965D01*
X033086Y033962D01*
X033057Y033957D01*
X033031Y03395D01*
X033009Y033941D01*
X032991Y03393D01*
X032977Y033917D01*
X032967Y033903D01*
X032962Y033886D01*
X03296Y033867D01*
Y034261D01*
X032962Y034242D01*
D02*
G37*
G36*
X019677Y03426D02*
X01968Y034226D01*
X019685Y034197D01*
X019692Y034171D01*
X019701Y03415D01*
X019712Y034132D01*
X019724Y034118D01*
X019739Y034108D01*
X019756Y034102D01*
X019775Y0341D01*
X019381D01*
X0194Y034102D01*
X019416Y034108D01*
X019431Y034118D01*
X019444Y034132D01*
X019455Y03415D01*
X019464Y034171D01*
X01947Y034197D01*
X019475Y034226D01*
X019478Y03426D01*
X019479Y034297D01*
X019676D01*
X019677Y03426D01*
D02*
G37*
G36*
X027449Y034506D02*
X027455Y034501D01*
X027465Y034497D01*
X027479Y034493D01*
X027496Y03449D01*
X027518Y034488D01*
X027573Y034484D01*
X027644Y034483D01*
Y034286D01*
X027607Y034286D01*
X027496Y034279D01*
X027479Y034276D01*
X027465Y034272D01*
X027455Y034268D01*
X027449Y034263D01*
X027447Y034258D01*
Y034511D01*
X027449Y034506D01*
D02*
G37*
G36*
X03028Y03418D02*
X030274Y034185D01*
X030264Y034189D01*
X030251Y034193D01*
X030234Y034196D01*
X030214Y034199D01*
X030165Y034203D01*
X030066Y034205D01*
Y034295D01*
X030102Y034295D01*
X030234Y034304D01*
X030251Y034307D01*
X030264Y034311D01*
X030274Y034315D01*
X03028Y03432D01*
Y03418D01*
D02*
G37*
G36*
X033544Y032434D02*
X033542Y032453D01*
X033536Y03247D01*
X033526Y032485D01*
X033512Y032497D01*
X033494Y032508D01*
X033473Y032517D01*
X033447Y032524D01*
X033417Y032529D01*
X033383Y032532D01*
X033346Y032533D01*
Y03273D01*
X033383Y032731D01*
X033417Y032734D01*
X033447Y032739D01*
X033473Y032746D01*
X033494Y032754D01*
X033512Y032765D01*
X033526Y032778D01*
X033536Y032793D01*
X033542Y032809D01*
X033544Y032828D01*
Y032434D01*
D02*
G37*
G36*
X014777Y03126D02*
X01478Y031226D01*
X014785Y031197D01*
X014792Y031171D01*
X014801Y03115D01*
X014812Y031132D01*
X014824Y031118D01*
X014839Y031108D01*
X014856Y031102D01*
X014875Y0311D01*
X014481D01*
X0145Y031102D01*
X014516Y031108D01*
X014531Y031118D01*
X014544Y031132D01*
X014555Y03115D01*
X014564Y031171D01*
X01457Y031197D01*
X014575Y031226D01*
X014578Y03126D01*
X014579Y031297D01*
X014776D01*
X014777Y03126D01*
D02*
G37*
G36*
X018917Y031309D02*
X018923Y031307D01*
X018931Y031306D01*
X018941Y031304D01*
X018968Y031302D01*
X019026Y0313D01*
X01905Y0313D01*
Y031103D01*
X019026Y031103D01*
X018931Y031097D01*
X018923Y031095D01*
X018917Y031093D01*
X018914Y031091D01*
Y031312D01*
X018917Y031309D01*
D02*
G37*
G36*
X014856Y031505D02*
X014839Y031499D01*
X014824Y031489D01*
X014812Y031475D01*
X014801Y031457D01*
X014792Y031436D01*
X014785Y03141D01*
X01478Y031381D01*
X014777Y031347D01*
X014776Y03131D01*
X014579D01*
X014578Y031347D01*
X014575Y031381D01*
X01457Y03141D01*
X014564Y031436D01*
X014555Y031457D01*
X014544Y031475D01*
X014531Y031489D01*
X014516Y031499D01*
X0145Y031505D01*
X014481Y031507D01*
X014875D01*
X014856Y031505D01*
D02*
G37*
G36*
X013023Y031496D02*
X01298Y031452D01*
X012914Y031374D01*
X012891Y031341D01*
X012873Y031312D01*
X012863Y031286D01*
X012858Y031263D01*
X01286Y031244D01*
X012868Y031229D01*
X012883Y031217D01*
X012527Y031416D01*
X012545Y031408D01*
X012566Y031406D01*
X012589Y031408D01*
X012614Y031414D01*
X012641Y031426D01*
X012669Y031443D01*
X0127Y031464D01*
X012733Y03149D01*
X012768Y031521D01*
X012805Y031556D01*
X013023Y031496D01*
D02*
G37*
G36*
X020384Y04555D02*
X020799D01*
Y0455D01*
X020849D01*
Y044868D01*
X021114D01*
Y044751D01*
X02108Y044727D01*
X021045Y044706D01*
X021018Y044691D01*
X020999Y044683D01*
X020989Y04468D01*
X020988Y04468D01*
X020964Y044679D01*
X020954Y044677D01*
X020521D01*
Y0442D01*
X020519Y044172D01*
X020521Y044163D01*
Y043519D01*
X020518Y043497D01*
X020518Y043497D01*
X02051Y043473D01*
X020485Y043447D01*
X020306D01*
Y0438D01*
X019991D01*
Y043396D01*
X020214D01*
Y043074D01*
X019838D01*
Y042749D01*
X020174D01*
Y042649D01*
X019838D01*
Y042323D01*
X020214D01*
Y041982D01*
X020049D01*
Y04135D01*
Y040718D01*
X020314D01*
Y040332D01*
X020049D01*
Y0397D01*
Y039069D01*
X020253D01*
X020277Y039018D01*
X020238Y038892D01*
X020224Y03875D01*
X020238Y038608D01*
X020279Y038472D01*
X020346Y038347D01*
X020437Y038237D01*
X020547Y038146D01*
X020672Y038079D01*
X020808Y038038D01*
X02095Y038024D01*
X021092Y038038D01*
X021228Y038079D01*
X021353Y038146D01*
X021463Y038237D01*
X021614Y038388D01*
X021705Y038498D01*
X021772Y038623D01*
X021794Y038696D01*
X021889D01*
Y040208D01*
X021891Y04023D01*
X021889Y040252D01*
Y040798D01*
X021891Y04082D01*
X021889Y040842D01*
Y041858D01*
X021891Y04188D01*
X021889Y041902D01*
Y042354D01*
X021828D01*
X021828Y042383D01*
X021827Y042388D01*
Y04252D01*
X021821Y042581D01*
X021863Y042633D01*
X02193Y042758D01*
X021971Y042894D01*
X021983Y043009D01*
X021985Y043023D01*
X021998D01*
Y043456D01*
X021999Y043466D01*
X022001Y04349D01*
X022001Y043491D01*
X022004Y043501D01*
X022012Y04352D01*
X022027Y043547D01*
X022048Y043582D01*
X022074Y043618D01*
X022165Y043726D01*
X022221Y043784D01*
X022223Y043787D01*
X022415Y043978D01*
X022505Y044088D01*
X022572Y044214D01*
X022613Y04435D01*
X022621Y044431D01*
X022672Y044436D01*
X022696Y044355D01*
X022763Y04423D01*
X022792Y044195D01*
X022793Y044193D01*
X022802Y044183D01*
X022834Y044144D01*
X022849Y044124D01*
X023015Y043954D01*
Y042531D01*
X025843D01*
X025974Y042399D01*
Y040799D01*
X023015D01*
Y038712D01*
X023975D01*
X024037Y038637D01*
X024537Y038137D01*
X024647Y038046D01*
X024772Y037979D01*
X024908Y037938D01*
X02505Y037924D01*
X03255D01*
X032692Y037938D01*
X032828Y037979D01*
X032953Y038046D01*
X033063Y038137D01*
X033352Y038425D01*
X033442Y038535D01*
X033509Y03866D01*
X033515Y038679D01*
X033515Y03868D01*
X033572Y038705D01*
X033591Y038699D01*
X033645Y038598D01*
X033735Y038488D01*
X035337Y036887D01*
X035447Y036796D01*
X035572Y036729D01*
X035708Y036688D01*
X03585Y036674D01*
X036699D01*
X039624Y033749D01*
Y021587D01*
X038463D01*
Y021587D01*
X038435Y021567D01*
X038404Y021576D01*
X03825Y021591D01*
X038096Y021576D01*
X037947Y021531D01*
X03781Y021458D01*
X037691Y021359D01*
X037592Y02124D01*
X037519Y021103D01*
X037474Y020954D01*
X037459Y0208D01*
X037474Y020646D01*
X037519Y020497D01*
X037592Y02036D01*
X037642Y0203D01*
X037592Y02024D01*
X037519Y020103D01*
X037474Y019954D01*
X037459Y0198D01*
X037474Y019646D01*
X037519Y019497D01*
X037561Y019419D01*
X037535Y019376D01*
X036688D01*
X030257Y025807D01*
X030138Y025899D01*
X029999Y025956D01*
X02985Y025976D01*
X0284D01*
X028251Y025956D01*
X028112Y025899D01*
X027993Y025807D01*
X027473Y025287D01*
X026713D01*
Y023713D01*
X026713D01*
X026733Y023685D01*
X026724Y023654D01*
X026709Y0235D01*
X026723Y023361D01*
X026331Y022969D01*
X026248Y022861D01*
X026196Y022735D01*
X026189Y022684D01*
X026139Y022687D01*
Y022869D01*
X025814D01*
Y022532D01*
X025714D01*
Y022869D01*
X025388D01*
Y022493D01*
X025016D01*
Y021774D01*
X024963Y021722D01*
X024803D01*
Y022159D01*
X024786Y022288D01*
X024736Y022407D01*
X024658Y02251D01*
X024555Y022589D01*
X024435Y022639D01*
X024306Y022656D01*
X024185D01*
X024118Y022647D01*
X02405Y022656D01*
X023929D01*
X023862Y022647D01*
X023794Y022656D01*
X023673D01*
X023606Y022647D01*
X023538Y022656D01*
X023417D01*
X02335Y022647D01*
X023283Y022656D01*
X023162D01*
X023094Y022647D01*
X023027Y022656D01*
X022906D01*
X022838Y022647D01*
X022784Y022654D01*
X022619Y022819D01*
X022589Y022842D01*
X022609Y02289D01*
X0227Y022878D01*
X02425D01*
X024385Y022896D01*
X024511Y022948D01*
X024619Y023031D01*
X024871Y023283D01*
X024954Y023391D01*
X025006Y023516D01*
X025013Y023575D01*
X025063Y023572D01*
Y023515D01*
X025436D01*
Y02314D01*
X025761D01*
Y023476D01*
X025861D01*
Y02314D01*
X026187D01*
Y023515D01*
X026559D01*
Y024933D01*
X025841D01*
X025604Y025169D01*
X025496Y025252D01*
X02537Y025304D01*
X025235Y025322D01*
X025012D01*
Y026034D01*
X025017Y026039D01*
X025075Y026148D01*
X025111Y026267D01*
X025124Y026391D01*
X025111Y026514D01*
X025079Y026619D01*
X025105Y026669D01*
X026083D01*
Y026785D01*
X026907D01*
Y027159D01*
X027776D01*
Y027043D01*
X028101D01*
Y027379D01*
X028201D01*
Y027043D01*
X028527D01*
Y027418D01*
X028899D01*
Y027522D01*
X028973Y027529D01*
X029092Y027565D01*
X029202Y027624D01*
X029298Y027702D01*
X029376Y027798D01*
X029435Y027908D01*
X029471Y028027D01*
X029483Y02815D01*
X029471Y028273D01*
X029435Y028392D01*
X029376Y028502D01*
X029298Y028598D01*
X029202Y028676D01*
X029092Y028735D01*
X028973Y028771D01*
X028899Y028778D01*
Y02882D01*
X028899Y028836D01*
X028899D01*
X028897Y028869D01*
X028897D01*
Y028922D01*
X028973Y028929D01*
X029092Y028965D01*
X029202Y029024D01*
X029298Y029102D01*
X029376Y029198D01*
X029435Y029308D01*
X029471Y029427D01*
X029483Y02955D01*
X029471Y029673D01*
X029435Y029792D01*
X029376Y029902D01*
X029298Y029998D01*
X029202Y030076D01*
X029092Y030135D01*
X028973Y030171D01*
X028897Y030178D01*
Y030286D01*
X028524D01*
Y030662D01*
X028199D01*
Y030326D01*
X028099D01*
Y030662D01*
X027773D01*
Y030541D01*
X026593D01*
Y030167D01*
X026535D01*
Y030274D01*
X026238D01*
Y030324D01*
X026188D01*
Y030542D01*
X025941D01*
Y030282D01*
X02571D01*
Y030657D01*
X025385D01*
Y030321D01*
X025285D01*
Y030657D01*
X024959D01*
Y030282D01*
X02486D01*
Y030824D01*
X02825D01*
X028399Y030844D01*
X028538Y030901D01*
X028657Y030993D01*
X029307Y031643D01*
X029399Y031762D01*
X029456Y031901D01*
X029469Y031996D01*
X029522Y032014D01*
X030043Y031493D01*
X030162Y031401D01*
X030301Y031344D01*
X03045Y031324D01*
X03145D01*
X031599Y031344D01*
X031738Y031401D01*
X031857Y031493D01*
X03224Y031876D01*
X033434D01*
Y031883D01*
X034486D01*
Y032256D01*
X034862D01*
Y032581D01*
X034526D01*
Y032681D01*
X034862D01*
Y033007D01*
X034486D01*
Y033323D01*
Y033696D01*
X034862D01*
Y034021D01*
X034526D01*
Y034121D01*
X034862D01*
Y034447D01*
X034486D01*
Y034763D01*
Y035136D01*
X034862D01*
Y035461D01*
X034526D01*
Y035561D01*
X034862D01*
Y035887D01*
X034486D01*
Y036259D01*
X03315D01*
X033133Y036281D01*
X032707Y036707D01*
X032588Y036799D01*
X032449Y036856D01*
X0323Y036876D01*
X031259D01*
X031242Y036885D01*
X031123Y036921D01*
X031Y036933D01*
X030877Y036921D01*
X030758Y036885D01*
X030648Y036826D01*
X030552Y036748D01*
X030474Y036652D01*
X030415Y036542D01*
X03041Y036526D01*
X03015D01*
X030001Y036506D01*
X029862Y036449D01*
X029743Y036357D01*
X029393Y036007D01*
X029301Y035888D01*
X029244Y035749D01*
X029228Y035626D01*
X029148D01*
Y036683D01*
X028776D01*
Y037058D01*
X02845D01*
Y036722D01*
X02835D01*
Y037058D01*
X028025D01*
Y036683D01*
X027652D01*
Y036076D01*
X027548D01*
Y036113D01*
X027329D01*
X027329Y036108D01*
X027336Y036082D01*
X027345Y036061D01*
X027356Y036043D01*
X027369Y036029D01*
X027383Y036019D01*
X0274Y036013D01*
X027419Y036011D01*
X027025D01*
X027044Y036013D01*
X027061Y036019D01*
X027075Y036029D01*
X027088Y036043D01*
X027099Y036061D01*
X027108Y036082D01*
X027115Y036108D01*
X027116Y036113D01*
X026896D01*
Y035985D01*
X026523D01*
Y034784D01*
Y034284D01*
Y033784D01*
Y033284D01*
Y032784D01*
X027425D01*
X027447Y032781D01*
X027454Y032782D01*
X027461Y032782D01*
X027478Y032784D01*
X027921D01*
Y032824D01*
X028141D01*
X028158Y032815D01*
X028269Y032782D01*
X028279Y032677D01*
X028315Y032558D01*
X028324Y032541D01*
Y032288D01*
X028012Y031976D01*
X026724D01*
Y03202D01*
X026474D01*
X026475Y032015D01*
X026482Y03199D01*
X026491Y031968D01*
X026502Y03195D01*
X026514Y031937D01*
X026529Y031927D01*
X026546Y031921D01*
X026565Y031919D01*
X026171D01*
X02619Y031921D01*
X026206Y031927D01*
X026221Y031937D01*
X026234Y03195D01*
X026245Y031968D01*
X026254Y03199D01*
X02626Y032015D01*
X026261Y03202D01*
X026012D01*
Y031976D01*
X025936D01*
Y03202D01*
X025687D01*
X025688Y032015D01*
X025694Y03199D01*
X025703Y031968D01*
X025714Y03195D01*
X025727Y031937D01*
X025742Y031927D01*
X025758Y031921D01*
X025777Y031919D01*
X025383D01*
X025402Y031921D01*
X025419Y031927D01*
X025434Y031937D01*
X025446Y03195D01*
X025457Y031968D01*
X025466Y03199D01*
X025473Y032015D01*
X025474Y03202D01*
X025224D01*
Y031976D01*
X022251D01*
Y032272D01*
X021923D01*
X021924Y032267D01*
X021931Y032242D01*
X02194Y03222D01*
X02195Y032202D01*
X021963Y032189D01*
X021978Y032179D01*
X021995Y032173D01*
X022013Y032171D01*
X02162D01*
X021638Y032173D01*
X021655Y032179D01*
X02167Y032189D01*
X021683Y032202D01*
X021693Y03222D01*
X021702Y032242D01*
X021709Y032267D01*
X02171Y032272D01*
X021382D01*
Y031948D01*
X021262Y031899D01*
X021143Y031807D01*
X020893Y031557D01*
X020801Y031438D01*
X020744Y031299D01*
X020724Y03115D01*
Y030924D01*
X020661D01*
Y031151D01*
X020325D01*
Y031251D01*
X020661D01*
Y031577D01*
X020491D01*
Y032707D01*
X020117D01*
Y032765D01*
X020224D01*
Y033062D01*
X020274D01*
Y033078D01*
X020283D01*
Y033112D01*
X020492D01*
Y033359D01*
X020283D01*
Y03345D01*
X020659D01*
Y033776D01*
X020322D01*
Y033876D01*
X020659D01*
Y034026D01*
X021034D01*
Y03412D01*
X021123Y034129D01*
X021242Y034165D01*
X021352Y034224D01*
X021448Y034302D01*
X021526Y034398D01*
X021585Y034508D01*
X021621Y034627D01*
X02163Y034721D01*
X022675D01*
Y035879D01*
X021415D01*
Y035283D01*
X02137Y035261D01*
X021352Y035276D01*
X021242Y035335D01*
X021123Y035371D01*
X021034Y03538D01*
Y035522D01*
X018869D01*
Y034574D01*
X018866D01*
Y033078D01*
X018935D01*
Y032393D01*
X019309D01*
Y032262D01*
X01917Y032122D01*
X019078Y032003D01*
X019056Y031949D01*
X018868D01*
Y031865D01*
X018831Y031831D01*
X018801Y031834D01*
X018678Y031822D01*
X018559Y031786D01*
X01845Y031728D01*
X018354Y031649D01*
X018275Y031553D01*
X018217Y031444D01*
X018181Y031325D01*
X018168Y031201D01*
X018181Y031078D01*
X018217Y030959D01*
X018275Y03085D01*
X018354Y030754D01*
X01845Y030675D01*
X018559Y030617D01*
X01856Y030616D01*
X018566Y030562D01*
X018498Y030526D01*
X018402Y030448D01*
X018324Y030352D01*
X018265Y030242D01*
X018229Y030123D01*
X018228Y030109D01*
X018152Y030048D01*
X018074Y029952D01*
X018015Y029842D01*
X017979Y029723D01*
X017967Y0296D01*
X017979Y029477D01*
X018015Y029358D01*
X018024Y029341D01*
Y028964D01*
X018044Y028815D01*
X018101Y028676D01*
X018193Y028557D01*
X018869Y027881D01*
Y027239D01*
X019672D01*
X019702Y027198D01*
X019679Y027123D01*
X019667Y027D01*
X019679Y026877D01*
X019715Y026758D01*
X019724Y026741D01*
Y025287D01*
X018563D01*
Y025076D01*
X01825D01*
X018101Y025056D01*
X017962Y024999D01*
X017843Y024907D01*
X017739Y024804D01*
X016647D01*
Y024936D01*
X016274D01*
Y025312D01*
X015949D01*
Y024976D01*
X015849D01*
Y025312D01*
X015523D01*
Y024936D01*
X015151D01*
Y024804D01*
X014505D01*
X014464Y02482D01*
X014421Y024826D01*
X014415Y024828D01*
X014409Y024828D01*
X014336Y024837D01*
X014104D01*
X013977Y02482D01*
X013858Y024771D01*
X01385Y024765D01*
X013842Y024771D01*
X013723Y02482D01*
X013596Y024837D01*
X013364D01*
X013236Y02482D01*
X013118Y024771D01*
X013033Y024706D01*
X012647D01*
Y024936D01*
X012274D01*
Y025312D01*
X011949D01*
Y024976D01*
X011849D01*
Y025312D01*
X011523D01*
Y024936D01*
X011151D01*
Y023519D01*
X012151D01*
X012173Y023516D01*
X012174Y023516D01*
X012175Y023516D01*
X012196Y023519D01*
X012647D01*
Y023555D01*
X012861D01*
X012879Y023527D01*
X012887Y023505D01*
X012871Y023384D01*
Y022955D01*
X012872Y022953D01*
X012828Y022905D01*
X012736Y022909D01*
X012647Y022918D01*
Y023036D01*
X012375D01*
X012364Y02304D01*
X012274Y023049D01*
Y023412D01*
X011949D01*
Y023076D01*
X011849D01*
Y023412D01*
X011523D01*
Y023036D01*
X011151D01*
Y021619D01*
X011905D01*
X012217Y021307D01*
X012219Y021304D01*
X012278Y021243D01*
X012322Y021192D01*
X012357Y021146D01*
X012386Y021104D01*
X012407Y021067D01*
X012422Y021036D01*
X012431Y021011D01*
X012437Y020991D01*
X012439Y020977D01*
X012441Y02094D01*
X012443Y020929D01*
Y020493D01*
X012876D01*
X012886Y020491D01*
X01291Y020489D01*
X01291Y020489D01*
X01292Y020486D01*
X012939Y020478D01*
X012966Y020464D01*
X013001Y020443D01*
X013037Y020417D01*
X013145Y020326D01*
X013203Y02027D01*
X013206Y020268D01*
X013837Y019637D01*
X013947Y019546D01*
X014072Y019479D01*
X014208Y019438D01*
X01435Y019424D01*
X014492Y019438D01*
X014624Y019478D01*
X014634Y019478D01*
X014674Y01945D01*
Y0192D01*
X014694Y019051D01*
X014751Y018912D01*
X014843Y018793D01*
X015165Y018471D01*
X015201Y018443D01*
Y018216D01*
X014773Y017789D01*
X013796D01*
Y016214D01*
X014168D01*
Y015949D01*
X0148D01*
Y015899D01*
X01485D01*
Y015484D01*
X015325D01*
X015398Y015424D01*
X015508Y015365D01*
X015627Y015329D01*
X01575Y015317D01*
X015831Y015325D01*
X015881Y015287D01*
Y015287D01*
X016437D01*
Y014746D01*
X012701D01*
X012678Y014796D01*
X012772Y014907D01*
X012876Y015076D01*
X012952Y015259D01*
X012998Y015452D01*
X013014Y01565D01*
X012998Y015848D01*
X012952Y016041D01*
X012876Y016224D01*
X012772Y016393D01*
X012644Y016544D01*
X012493Y016672D01*
X012324Y016776D01*
X012141Y016852D01*
X011948Y016898D01*
X01175Y016914D01*
X011552Y016898D01*
X011359Y016852D01*
X011176Y016776D01*
X011007Y016672D01*
X010896Y016578D01*
X010846Y016601D01*
Y029885D01*
X010883Y029919D01*
X0109Y029917D01*
X011023Y029929D01*
X011142Y029965D01*
X011252Y030024D01*
X011348Y030102D01*
X011426Y030198D01*
X011485Y030308D01*
X011521Y030427D01*
X011533Y03055D01*
X011521Y030673D01*
X011485Y030792D01*
X011476Y030809D01*
Y030919D01*
X011522Y030946D01*
X011526Y030946D01*
X011602Y030852D01*
X011698Y030774D01*
X011808Y030715D01*
X011927Y030679D01*
X01205Y030667D01*
X012173Y030679D01*
X012273Y030709D01*
X013357D01*
Y031083D01*
X013415D01*
Y030976D01*
X013712D01*
Y030926D01*
X013762D01*
Y030708D01*
X013966D01*
Y030078D01*
X015383D01*
Y03045D01*
X015724D01*
Y030311D01*
X015359Y029946D01*
X013969D01*
Y029774D01*
X013836D01*
X013687Y029754D01*
X013548Y029697D01*
X013506Y029665D01*
X013043D01*
Y029291D01*
X012273D01*
X012173Y029321D01*
X01205Y029333D01*
X011927Y029321D01*
X011808Y029285D01*
X011698Y029226D01*
X011602Y029148D01*
X011524Y029052D01*
X011465Y028942D01*
X011429Y028823D01*
X011417Y0287D01*
X011429Y028577D01*
X011465Y028458D01*
X011474Y028441D01*
Y027652D01*
X011494Y027503D01*
X011551Y027364D01*
X011643Y027245D01*
X011769Y027118D01*
Y026476D01*
X013934D01*
Y027408D01*
X013966Y027445D01*
X015383D01*
Y027817D01*
X015759D01*
Y028143D01*
X015422D01*
Y028243D01*
X015759D01*
Y02845D01*
X016134D01*
Y029092D01*
X016707Y029665D01*
X016799Y029784D01*
X016856Y029923D01*
X016876Y030072D01*
Y030691D01*
X016885Y030708D01*
X016921Y030827D01*
X016933Y03095D01*
X016921Y031073D01*
X016885Y031192D01*
X016826Y031302D01*
X016777Y031362D01*
X016749Y0314D01*
X016777Y031438D01*
X016826Y031498D01*
X016885Y031608D01*
X016921Y031727D01*
X016933Y03185D01*
X016921Y031973D01*
X016885Y032092D01*
X016826Y032202D01*
X016748Y032298D01*
X016652Y032376D01*
X016542Y032435D01*
X016423Y032471D01*
X0163Y032483D01*
X016184Y032472D01*
X01616Y032481D01*
X016134Y0325D01*
Y032529D01*
X013969D01*
X013931Y032558D01*
Y033524D01*
X011766D01*
Y032882D01*
X011643Y032759D01*
X011551Y03264D01*
X011526Y032578D01*
X011476Y032588D01*
Y033849D01*
X011517Y033877D01*
X011601Y033842D01*
X0117Y033829D01*
Y0344D01*
Y034971D01*
X011601Y034958D01*
X011517Y034923D01*
X011476Y034951D01*
Y035849D01*
X011517Y035877D01*
X011601Y035842D01*
X0117Y035829D01*
Y0364D01*
X01175D01*
Y03645D01*
X012321D01*
X012308Y036549D01*
X01225Y036689D01*
X012158Y036808D01*
X012039Y0369D01*
X011957Y036934D01*
X011947Y036983D01*
X012089Y037124D01*
X0152D01*
X015349Y037144D01*
X015488Y037201D01*
X015607Y037293D01*
X017957Y039643D01*
X018049Y039762D01*
X018106Y039901D01*
X018126Y04005D01*
Y043911D01*
X020138Y045924D01*
X020384D01*
Y04555D01*
D02*
G37*
G36*
X019343Y031004D02*
X019341Y031023D01*
X019335Y03104D01*
X019325Y031055D01*
X019311Y031067D01*
X019293Y031078D01*
X019272Y031087D01*
X019246Y031094D01*
X019216Y031099D01*
X019182Y031102D01*
X019145Y031103D01*
Y0313D01*
X019182Y031301D01*
X019216Y031304D01*
X019246Y031309D01*
X019272Y031316D01*
X019293Y031324D01*
X019311Y031335D01*
X019325Y031348D01*
X019335Y031363D01*
X019341Y031379D01*
X019343Y031398D01*
Y031004D01*
D02*
G37*
G36*
X015504Y030552D02*
X015496Y030549D01*
X015489Y030545D01*
X015483Y030538D01*
X015479Y03053D01*
X015474Y03052D01*
X015471Y030508D01*
X015469Y030494D01*
X015468Y030479D01*
X015467Y030462D01*
X015377D01*
X015377Y030479D01*
X015375Y030494D01*
X015373Y030508D01*
X01537Y03052D01*
X015366Y03053D01*
X015361Y030538D01*
X015355Y030545D01*
X015348Y030549D01*
X015341Y030552D01*
X015332Y030553D01*
X015512D01*
X015504Y030552D01*
D02*
G37*
G36*
X019676Y03061D02*
X019679Y030576D01*
X019684Y030547D01*
X019691Y030521D01*
X0197Y0305D01*
X019711Y030482D01*
X019723Y030468D01*
X019738Y030458D01*
X019755Y030452D01*
X019774Y03045D01*
X01938D01*
X019399Y030452D01*
X019415Y030458D01*
X01943Y030468D01*
X019443Y030482D01*
X019454Y0305D01*
X019463Y030521D01*
X019469Y030547D01*
X019474Y030576D01*
X019477Y03061D01*
X019478Y030647D01*
X019675D01*
X019676Y03061D01*
D02*
G37*
G36*
X010999Y030775D02*
X011004Y03068D01*
X011006Y030672D01*
X011008Y030666D01*
X01101Y030662D01*
X01079D01*
X010792Y030666D01*
X010794Y030672D01*
X010796Y03068D01*
X010797Y03069D01*
X0108Y030717D01*
X010801Y030775D01*
X010802Y030799D01*
X010998D01*
X010999Y030775D01*
D02*
G37*
G36*
X019755Y030925D02*
X019738Y030919D01*
X019723Y030909D01*
X019711Y030895D01*
X0197Y030878D01*
X019691Y030856D01*
X019684Y03083D01*
X019679Y030801D01*
X019676Y030768D01*
X019675Y03073D01*
X019478D01*
X019477Y030768D01*
X019474Y030801D01*
X019469Y03083D01*
X019463Y030856D01*
X019454Y030878D01*
X019443Y030895D01*
X01943Y030909D01*
X019415Y030919D01*
X019399Y030925D01*
X01938Y030927D01*
X019774D01*
X019755Y030925D01*
D02*
G37*
G36*
X016408Y030834D02*
X016406Y030828D01*
X016404Y03082D01*
X016403Y03081D01*
X0164Y030783D01*
X016399Y030725D01*
X016398Y030701D01*
X016202D01*
X016201Y030725D01*
X016196Y03082D01*
X016194Y030828D01*
X016192Y030834D01*
X01619Y030838D01*
X01641D01*
X016408Y030834D01*
D02*
G37*
G36*
X03215Y032348D02*
X032122Y032344D01*
X032094Y032337D01*
X032067Y032327D01*
X032039Y032315D01*
X032011Y032299D01*
X031983Y032281D01*
X031955Y03226D01*
X031927Y032237D01*
X0319Y03221D01*
X031621D01*
X031647Y032237D01*
X031745Y032348D01*
X031743Y03235D01*
X032178D01*
X03215Y032348D01*
D02*
G37*
G36*
X019983Y031844D02*
X019971Y031858D01*
X019956Y031866D01*
X019937Y031868D01*
X019914Y031864D01*
X019888Y031853D01*
X019859Y031836D01*
X019826Y031812D01*
X019789Y031782D01*
X019704Y031703D01*
X019644Y031921D01*
X019679Y031958D01*
X019736Y032026D01*
X019757Y032057D01*
X019774Y032086D01*
X019786Y032113D01*
X019792Y032137D01*
X019794Y03216D01*
X019792Y032181D01*
X019784Y0322D01*
X019983Y031844D01*
D02*
G37*
G36*
X03085Y032514D02*
X030865Y032502D01*
X03088Y032491D01*
X030896Y032482D01*
X030912Y032475D01*
X030929Y032468D01*
X030945Y032463D01*
X030963Y03246D01*
X03098Y032458D01*
X030998Y032457D01*
X030843Y032302D01*
X030842Y03232D01*
X03084Y032337D01*
X030837Y032355D01*
X030832Y032371D01*
X030825Y032388D01*
X030818Y032404D01*
X030809Y03242D01*
X030798Y032435D01*
X030786Y03245D01*
X030772Y032464D01*
X030836Y032528D01*
X03085Y032514D01*
D02*
G37*
G36*
X032962Y032809D02*
X032967Y032793D01*
X032977Y032778D01*
X032991Y032765D01*
X033009Y032754D01*
X033031Y032746D01*
X033057Y032739D01*
X033086Y032734D01*
X03312Y032731D01*
X033158Y03273D01*
Y032533D01*
X03312Y032532D01*
X033086Y032529D01*
X033057Y032524D01*
X033031Y032517D01*
X033009Y032508D01*
X032991Y032497D01*
X032977Y032485D01*
X032967Y03247D01*
X032962Y032453D01*
X03296Y032434D01*
Y032828D01*
X032962Y032809D01*
D02*
G37*
G36*
X0134Y032501D02*
X013384Y032495D01*
X013369Y032485D01*
X013356Y032471D01*
X013345Y032453D01*
X013336Y032432D01*
X01333Y032406D01*
X013325Y032376D01*
X013322Y032342D01*
X013321Y032305D01*
X013124D01*
X013123Y032342D01*
X01312Y032376D01*
X013115Y032406D01*
X013108Y032432D01*
X013099Y032453D01*
X013088Y032471D01*
X013076Y032485D01*
X013061Y032495D01*
X013044Y032501D01*
X013025Y032503D01*
X013419D01*
X0134Y032501D01*
D02*
G37*
G36*
X016188Y03174D02*
X016184Y031742D01*
X016178Y031744D01*
X01617Y031746D01*
X01616Y031747D01*
X016133Y03175D01*
X016075Y031751D01*
X016051Y031752D01*
Y031948D01*
X016075Y031949D01*
X01617Y031954D01*
X016178Y031956D01*
X016184Y031958D01*
X016188Y03196D01*
Y03174D01*
D02*
G37*
G36*
X019676Y031635D02*
X019679Y031601D01*
X019684Y031572D01*
X019691Y031546D01*
X0197Y031524D01*
X019711Y031506D01*
X019723Y031492D01*
X019738Y031482D01*
X019755Y031477D01*
X019774Y031475D01*
X01938D01*
X019399Y031477D01*
X019415Y031482D01*
X01943Y031492D01*
X019443Y031506D01*
X019454Y031524D01*
X019463Y031546D01*
X019469Y031572D01*
X019474Y031601D01*
X019477Y031635D01*
X019478Y031673D01*
X019675D01*
X019676Y031635D01*
D02*
G37*
G36*
X012149Y031525D02*
X012154Y03143D01*
X012156Y031422D01*
X012158Y031416D01*
X01216Y031412D01*
X01194D01*
X011942Y031416D01*
X011944Y031422D01*
X011946Y03143D01*
X011947Y03144D01*
X01195Y031467D01*
X011951Y031525D01*
X011952Y031549D01*
X012148D01*
X012149Y031525D01*
D02*
G37*
G36*
X014104Y031682D02*
X014067Y031681D01*
X014033Y031679D01*
X014004Y031674D01*
X013978Y031667D01*
X013957Y031658D01*
X013939Y031647D01*
X013925Y031634D01*
X013915Y031619D01*
X013909Y031603D01*
X013907Y031584D01*
Y031791D01*
X013909Y031808D01*
X013915Y031823D01*
X013925Y031836D01*
X013939Y031847D01*
X013957Y031857D01*
X013978Y031865D01*
X014004Y031871D01*
X014033Y031876D01*
X014067Y031878D01*
X014104Y031879D01*
Y031682D01*
D02*
G37*
G36*
X015662Y032028D02*
X015667Y032011D01*
X015677Y031997D01*
X015691Y031984D01*
X015709Y031973D01*
X015731Y031964D01*
X015757Y031957D01*
X015786Y031952D01*
X01582Y031949D01*
X015858Y031948D01*
Y031752D01*
X01582Y031751D01*
X015786Y031748D01*
X015757Y031743D01*
X015731Y031736D01*
X015709Y031727D01*
X015691Y031716D01*
X015677Y031703D01*
X015667Y031689D01*
X015662Y031672D01*
X01566Y031653D01*
Y032047D01*
X015662Y032028D01*
D02*
G37*
G36*
X014444Y031584D02*
X014442Y031603D01*
X014436Y031619D01*
X014426Y031634D01*
X014412Y031647D01*
X014394Y031658D01*
X014373Y031667D01*
X014347Y031674D01*
X014317Y031679D01*
X014283Y031681D01*
X014246Y031682D01*
Y031879D01*
X014283Y03188D01*
X014317Y031883D01*
X014347Y031888D01*
X014373Y031895D01*
X014394Y031904D01*
X014412Y031915D01*
X014426Y031928D01*
X014436Y031942D01*
X014442Y031959D01*
X014444Y031978D01*
Y031584D01*
D02*
G37*
G36*
X0225Y019988D02*
X022501Y019969D01*
X022504Y019952D01*
X022507Y019938D01*
X022511Y019925D01*
X022517Y019915D01*
X022523Y019908D01*
X02253Y019902D01*
X022539Y019899D01*
X022548Y019897D01*
X022352D01*
X022361Y019899D01*
X02237Y019902D01*
X022377Y019908D01*
X022383Y019915D01*
X022389Y019925D01*
X022393Y019938D01*
X022396Y019952D01*
X022399Y019969D01*
X0224Y019988D01*
X022401Y020009D01*
X022499D01*
X0225Y019988D01*
D02*
G37*
G36*
X023211Y019903D02*
X023225Y019892D01*
X023237Y019882D01*
X023249Y019875D01*
X023259Y01987D01*
X023269Y019867D01*
X023278Y019866D01*
X023287Y019867D01*
X023294Y019871D01*
X023301Y019876D01*
X023174Y01975D01*
X023179Y019756D01*
X023182Y019764D01*
X023183Y019772D01*
X023182Y019781D01*
X023179Y019791D01*
X023174Y019802D01*
X023167Y019813D01*
X023158Y019826D01*
X023147Y019839D01*
X023134Y019853D01*
X023197Y019916D01*
X023211Y019903D01*
D02*
G37*
G36*
X0245Y019993D02*
X024501Y019976D01*
X024504Y019961D01*
X024507Y019948D01*
X024512Y019937D01*
X024517Y019928D01*
X024523Y019922D01*
X024531Y019917D01*
X024539Y019914D01*
X024548Y019913D01*
X024352D01*
X024361Y019914D01*
X024369Y019917D01*
X024377Y019922D01*
X024383Y019928D01*
X024388Y019937D01*
X024393Y019948D01*
X024396Y019961D01*
X024399Y019976D01*
X0244Y019993D01*
X024401Y020012D01*
X024499D01*
X0245Y019993D01*
D02*
G37*
G36*
X023268Y020679D02*
X02327Y02066D01*
X023273Y020642D01*
X023277Y020624D01*
X023283Y020608D01*
X023291Y020592D01*
X023299Y020576D01*
X023309Y020562D01*
X02332Y020548D01*
X023332Y020535D01*
X023112D01*
X023124Y020548D01*
X023135Y020562D01*
X023145Y020576D01*
X023154Y020592D01*
X023161Y020608D01*
X023167Y020624D01*
X023171Y020642D01*
X023174Y02066D01*
X023176Y020679D01*
X023177Y020699D01*
X023267D01*
X023268Y020679D01*
D02*
G37*
G36*
X021641Y021722D02*
Y021581D01*
X021658Y021453D01*
X021672Y021418D01*
Y020398D01*
X021632Y020368D01*
X021606Y020376D01*
X021452Y020391D01*
X021448D01*
X021294Y020376D01*
X021176Y02034D01*
X021126Y020375D01*
Y0207D01*
X021106Y020849D01*
X021049Y020988D01*
X021016Y02103D01*
X021039Y021075D01*
X021589D01*
Y021747D01*
X021591Y021748D01*
X021641Y021722D01*
D02*
G37*
G36*
X016177Y022502D02*
X016182Y022486D01*
X016192Y022471D01*
X016206Y022458D01*
X016224Y022447D01*
X016246Y022438D01*
X016272Y022432D01*
X016301Y022427D01*
X016335Y022424D01*
X016373Y022423D01*
Y022364D01*
X016422D01*
X018406Y02038D01*
X018387Y020333D01*
X017355D01*
Y019962D01*
X017072D01*
Y019626D01*
X016972D01*
Y019962D01*
X016646D01*
Y019586D01*
X016324D01*
Y019962D01*
X015999D01*
Y019626D01*
X015899D01*
Y019962D01*
X015826D01*
Y021988D01*
X016277D01*
Y022218D01*
X016272Y022217D01*
X016246Y02221D01*
X016224Y022201D01*
X016206Y02219D01*
X016192Y022178D01*
X016182Y022163D01*
X016177Y022146D01*
X016175Y022127D01*
Y022521D01*
X016177Y022502D01*
D02*
G37*
G36*
X038025Y01858D02*
X038Y018603D01*
X037974Y018623D01*
X037945Y018642D01*
X037915Y018658D01*
X037884Y018671D01*
X03785Y018682D01*
X037815Y018691D01*
X037778Y018697D01*
X037739Y0187D01*
X037699Y018702D01*
Y018898D01*
X037739Y0189D01*
X037778Y018903D01*
X037815Y018909D01*
X03785Y018918D01*
X037884Y018929D01*
X037915Y018942D01*
X037945Y018958D01*
X037974Y018977D01*
X038Y018997D01*
X038025Y01902D01*
Y01858D01*
D02*
G37*
G36*
X018056Y018642D02*
X018044Y01864D01*
X018031Y018637D01*
X018018Y018632D01*
X018006Y018627D01*
X017993Y018619D01*
X01798Y018611D01*
X017967Y018601D01*
X017955Y01859D01*
X017942Y018578D01*
X017814D01*
X017817Y018581D01*
X017819Y018585D01*
X017822Y01859D01*
X017823Y018595D01*
X017825Y018601D01*
X017826Y018608D01*
X017827Y018615D01*
X017828Y018632D01*
X017828Y018642D01*
X018069Y018643D01*
X018056Y018642D01*
D02*
G37*
G36*
X019068Y018643D02*
X01906Y018646D01*
X01905Y018647D01*
X01904Y018646D01*
X019028Y018643D01*
X019016Y018637D01*
X019003Y01863D01*
X018989Y01862D01*
X018974Y018608D01*
X018958Y018594D01*
X018941Y018578D01*
X018838Y018602D01*
X018858Y018623D01*
X018888Y018658D01*
X018899Y018673D01*
X018907Y018687D01*
X018912Y018699D01*
X018914Y018709D01*
X018913Y018718D01*
X01891Y018724D01*
X018903Y01873D01*
X019068Y018643D01*
D02*
G37*
G36*
X018132Y019391D02*
X018115Y019401D01*
X018097Y019405D01*
X018075Y019405D01*
X018051Y019399D01*
X018025Y019387D01*
X017995Y01937D01*
X017964Y019348D01*
X01793Y019321D01*
X017853Y019251D01*
X017689Y019365D01*
X017729Y019406D01*
X017792Y01948D01*
X017815Y019513D01*
X017832Y019542D01*
X017843Y019568D01*
X017849Y019592D01*
X017848Y019612D01*
X017842Y019629D01*
X01783Y019643D01*
X018132Y019391D01*
D02*
G37*
G36*
X015675Y018776D02*
X015674Y018776D01*
X015671Y018777D01*
X015666Y018778D01*
X015638Y018779D01*
X015572Y018779D01*
Y018976D01*
X015675Y01898D01*
Y018776D01*
D02*
G37*
G36*
X023035Y021563D02*
X02303Y021559D01*
X023026Y021553D01*
X023022Y021545D01*
X023019Y021536D01*
X023016Y021526D01*
X023014Y021514D01*
X023012Y021501D01*
X023011Y021471D01*
X022921D01*
X022921Y021487D01*
X022918Y021514D01*
X022916Y021526D01*
X022914Y021536D01*
X02291Y021545D01*
X022906Y021553D01*
X022902Y021559D01*
X022897Y021563D01*
X022891Y021567D01*
X023041D01*
X023035Y021563D01*
D02*
G37*
G36*
X02278D02*
X022774Y021559D01*
X02277Y021553D01*
X022766Y021545D01*
X022763Y021536D01*
X02276Y021526D01*
X022758Y021514D01*
X022756Y021501D01*
X022755Y021471D01*
X022665D01*
X022665Y021487D01*
X022663Y021514D01*
X02266Y021526D01*
X022658Y021536D01*
X022654Y021545D01*
X022651Y021553D01*
X022646Y021559D01*
X022641Y021563D01*
X022635Y021567D01*
X022785D01*
X02278Y021563D01*
D02*
G37*
G36*
X023291D02*
X023286Y021559D01*
X023282Y021553D01*
X023278Y021545D01*
X023275Y021536D01*
X023272Y021526D01*
X02327Y021514D01*
X023268Y021501D01*
X023267Y021471D01*
X023177D01*
X023177Y021487D01*
X023174Y021514D01*
X023172Y021526D01*
X02317Y021536D01*
X023166Y021545D01*
X023162Y021553D01*
X023158Y021559D01*
X023153Y021563D01*
X023147Y021567D01*
X023297D01*
X023291Y021563D01*
D02*
G37*
G36*
X025656Y021551D02*
X025647Y021554D01*
X025638Y021555D01*
X025627Y021554D01*
X025616Y02155D01*
X025603Y021545D01*
X02559Y021537D01*
X025576Y021528D01*
X025561Y021516D01*
X025545Y021502D01*
X025529Y021486D01*
X025426Y02151D01*
X025445Y02153D01*
X025476Y021566D01*
X025487Y021581D01*
X025495Y021595D01*
X0255Y021607D01*
X025502Y021617D01*
X025501Y021625D01*
X025497Y021632D01*
X02549Y021637D01*
X025656Y021551D01*
D02*
G37*
G36*
X023803Y021563D02*
X023798Y021559D01*
X023794Y021553D01*
X02379Y021545D01*
X023786Y021536D01*
X023784Y021526D01*
X023782Y021514D01*
X02378Y021501D01*
X023779Y021471D01*
X023689D01*
X023689Y021487D01*
X023686Y021514D01*
X023684Y021526D01*
X023681Y021536D01*
X023678Y021545D01*
X023674Y021553D01*
X02367Y021559D01*
X023665Y021563D01*
X023659Y021567D01*
X023809D01*
X023803Y021563D01*
D02*
G37*
G36*
X023548Y021564D02*
X023544Y021559D01*
X02354Y021553D01*
X023536Y021545D01*
X023534Y021535D01*
X023531Y021524D01*
X023529Y021511D01*
X023527Y02148D01*
X023527Y021462D01*
X023429D01*
X023428Y02148D01*
X023426Y021511D01*
X023425Y021524D01*
X023422Y021535D01*
X023419Y021545D01*
X023416Y021553D01*
X023412Y021559D01*
X023408Y021564D01*
X023403Y021567D01*
X023553D01*
X023548Y021564D01*
D02*
G37*
G36*
X023012Y021173D02*
X023014Y021154D01*
X023017Y021136D01*
X023022Y021119D01*
X023027Y021102D01*
X023035Y021086D01*
X023043Y02107D01*
X023053Y021056D01*
X023064Y021042D01*
X023076Y021029D01*
X022856D01*
X022868Y021042D01*
X022879Y021056D01*
X022889Y02107D01*
X022898Y021086D01*
X022905Y021102D01*
X022911Y021119D01*
X022915Y021136D01*
X022919Y021154D01*
X02292Y021173D01*
X022921Y021193D01*
X023011D01*
X023012Y021173D01*
D02*
G37*
G36*
X013555Y021585D02*
X013541Y021539D01*
X013541Y021486D01*
X013555Y021426D01*
X013583Y021359D01*
X013626Y021285D01*
X013682Y021203D01*
X013753Y021115D01*
X013937Y020916D01*
X013533Y020613D01*
X013464Y02068D01*
X013329Y020793D01*
X013265Y020839D01*
X013203Y020878D01*
X013142Y02091D01*
X013083Y020935D01*
X013026Y020952D01*
X01297Y020963D01*
X012917Y020967D01*
X013584Y021623D01*
X013555Y021585D01*
D02*
G37*
G36*
X018574Y022346D02*
X018619Y022197D01*
X018692Y02206D01*
X018791Y021941D01*
X01891Y021842D01*
X019047Y021769D01*
X019196Y021724D01*
X01935Y021709D01*
X019504Y021724D01*
X019586Y021749D01*
X019601Y021712D01*
X019693Y021593D01*
X01991Y021376D01*
X019975Y021326D01*
X019958Y021276D01*
X019138D01*
X018036Y022378D01*
X018055Y022424D01*
X018566D01*
X018574Y022346D01*
D02*
G37*
G36*
X022269Y021564D02*
X022264Y021559D01*
X02226Y021553D01*
X022257Y021545D01*
X022254Y021535D01*
X022252Y021524D01*
X02225Y021511D01*
X022248Y02148D01*
X022248Y021462D01*
X022149D01*
X022149Y02148D01*
X022147Y021511D01*
X022145Y021524D01*
X022143Y021535D01*
X02214Y021545D01*
X022137Y021553D01*
X022133Y021559D01*
X022128Y021564D01*
X022123Y021567D01*
X022273D01*
X022269Y021564D01*
D02*
G37*
G36*
X024035Y021567D02*
X024065D01*
X024059Y021563D01*
X024054Y021559D01*
X024049Y021553D01*
X024046Y021545D01*
X024042Y021536D01*
X02404Y021526D01*
X024039Y021522D01*
X024041Y021512D01*
X024045Y021498D01*
X024051Y021485D01*
X024058Y021475D01*
X024067Y021468D01*
X024077Y021462D01*
X024088Y021459D01*
X0241Y021457D01*
X023946Y021333D01*
X023945Y021471D01*
X023945D01*
X023944Y021487D01*
X023942Y021514D01*
X02394Y021526D01*
X023937Y021536D01*
X023934Y021545D01*
X02393Y021553D01*
X023926Y021559D01*
X02392Y021563D01*
X023915Y021567D01*
X024027D01*
X024035Y021569D01*
X024035Y021567D01*
D02*
G37*
G36*
X016971Y018715D02*
X016968Y018762D01*
X016965Y018778D01*
X016961Y018792D01*
X016957Y018802D01*
X016952Y018808D01*
X017092D01*
X017087Y018802D01*
X017083Y018792D01*
X017079Y018778D01*
X017076Y018762D01*
X017073Y018742D01*
X017069Y018693D01*
X017068Y018644D01*
X017112D01*
X017103Y018643D01*
X017096Y01864D01*
X017089Y018636D01*
X017083Y018629D01*
X017078Y018621D01*
X017074Y018611D01*
X017071Y018599D01*
X017069Y018586D01*
X017067Y01857D01*
X017067Y018553D01*
X016977D01*
X016977Y01857D01*
X016975Y018586D01*
X016973Y018599D01*
X01697Y018611D01*
X016966Y018621D01*
X016961Y018629D01*
X016955Y018636D01*
X016953Y018637D01*
X016927Y018622D01*
X016896Y0186D01*
X016862Y018573D01*
X016826Y018541D01*
X016787Y018504D01*
X016608Y018603D01*
X016649Y018646D01*
X016713Y01872D01*
X016736Y018753D01*
X016753Y018783D01*
X016764Y018809D01*
X016769Y018832D01*
X016768Y018852D01*
X016762Y018868D01*
X016749Y018882D01*
X016971Y018715D01*
D02*
G37*
G36*
X016354Y016351D02*
X016353Y016352D01*
X016351Y016353D01*
X016346Y016353D01*
X016332Y016354D01*
X016264Y016355D01*
Y016445D01*
X016354Y016449D01*
Y016351D01*
D02*
G37*
G36*
X016707Y016251D02*
X01671Y016251D01*
X016714Y01625D01*
X016729Y016249D01*
X016796Y016248D01*
Y016158D01*
X016706Y016154D01*
Y016252D01*
X016707Y016251D01*
D02*
G37*
G36*
X015879Y016695D02*
X015893Y016684D01*
X015907Y016674D01*
X015923Y016665D01*
X015939Y016658D01*
X015955Y016652D01*
X015973Y016648D01*
X015991Y016644D01*
X01601Y016643D01*
X01603Y016642D01*
Y016552D01*
X01601Y016551D01*
X015991Y016549D01*
X015973Y016546D01*
X015955Y016541D01*
X015939Y016536D01*
X015923Y016528D01*
X015907Y01652D01*
X015893Y01651D01*
X015879Y016499D01*
X015866Y016487D01*
Y016707D01*
X015879Y016695D01*
D02*
G37*
G36*
X016354Y016745D02*
X016353Y016746D01*
X016351Y016746D01*
X016346Y016747D01*
X016332Y016748D01*
X016264Y016749D01*
Y016839D01*
X016354Y016842D01*
Y016745D01*
D02*
G37*
G36*
Y016548D02*
X016353Y016549D01*
X016351Y016549D01*
X016346Y01655D01*
X016332Y016551D01*
X016264Y016552D01*
Y016642D01*
X016354Y016646D01*
Y016548D01*
D02*
G37*
G36*
X016942Y016113D02*
X016941Y016122D01*
X016939Y016129D01*
X016934Y016136D01*
X016928Y016142D01*
X016919Y016147D01*
X016909Y016151D01*
X016897Y016154D01*
X016884Y016156D01*
X016868Y016158D01*
X016851Y016158D01*
Y016248D01*
X016868Y016249D01*
X016884Y01625D01*
X016897Y016252D01*
X016909Y016255D01*
X016919Y016259D01*
X016928Y016264D01*
X016934Y01627D01*
X016939Y016277D01*
X016941Y016285D01*
X016942Y016293D01*
Y016113D01*
D02*
G37*
G36*
X017598Y015203D02*
X017597Y015201D01*
X017597Y015196D01*
X017596Y015182D01*
X017595Y015114D01*
X017505D01*
X017501Y015204D01*
X017599D01*
X017598Y015203D01*
D02*
G37*
G36*
X017401D02*
X017401Y015201D01*
X0174Y015196D01*
X017399Y015182D01*
X017398Y015114D01*
X017308D01*
X017304Y015204D01*
X017402D01*
X017401Y015203D01*
D02*
G37*
G36*
X017068Y015791D02*
X017061Y015796D01*
X017053Y015799D01*
X017043D01*
X017033Y015796D01*
X017021Y015791D01*
X017007Y015783D01*
X016993Y015773D01*
X016977Y01576D01*
X016941Y015727D01*
X016877Y015791D01*
X016895Y015809D01*
X016923Y015843D01*
X016933Y015857D01*
X016941Y015871D01*
X016946Y015883D01*
X016949Y015893D01*
Y015903D01*
X016946Y015911D01*
X016941Y015918D01*
X017068Y015791D01*
D02*
G37*
G36*
X039172Y046307D02*
X039156Y046294D01*
X039028Y046143D01*
X038924Y045974D01*
X038848Y045791D01*
X038802Y045598D01*
X038786Y0454D01*
X038802Y045202D01*
X038848Y045009D01*
X038924Y044826D01*
X039028Y044657D01*
X039156Y044506D01*
X039307Y044378D01*
X039476Y044274D01*
X039659Y044198D01*
X039852Y044152D01*
X04005Y044136D01*
X040248Y044152D01*
X040441Y044198D01*
X040624Y044274D01*
X040793Y044378D01*
X040944Y044506D01*
X041072Y044657D01*
X041105Y044711D01*
X041154Y044698D01*
Y014746D01*
X0291D01*
X029081Y014793D01*
X029619Y015331D01*
X029702Y015439D01*
X029754Y015565D01*
X029772Y0157D01*
Y02255D01*
X029754Y022685D01*
X029702Y022811D01*
X029619Y022919D01*
X029257Y023282D01*
X029276Y023346D01*
X029291Y0235D01*
X029276Y023654D01*
X029231Y023803D01*
X029195Y02387D01*
X029236Y0239D01*
X035743Y017393D01*
X035862Y017301D01*
X036001Y017244D01*
X03615Y017224D01*
X037535D01*
X037561Y017181D01*
X037519Y017103D01*
X037474Y016954D01*
X037459Y0168D01*
X037474Y016646D01*
X037519Y016497D01*
X037592Y01636D01*
X037691Y016241D01*
X03781Y016142D01*
X037947Y016069D01*
X038096Y016024D01*
X03825Y016009D01*
X038404Y016024D01*
X038553Y016069D01*
X03869Y016142D01*
X03875Y016192D01*
X03881Y016142D01*
X038947Y016069D01*
X039096Y016024D01*
X03925Y016009D01*
X039404Y016024D01*
X039553Y016069D01*
X039562Y016074D01*
X0401D01*
X040242Y016088D01*
X040378Y016129D01*
X040503Y016196D01*
X040613Y016287D01*
X040863Y016537D01*
X040954Y016647D01*
X041021Y016772D01*
X041062Y016908D01*
X041076Y01705D01*
Y03405D01*
X041062Y034192D01*
X041021Y034328D01*
X040954Y034453D01*
X040863Y034563D01*
X037513Y037913D01*
X037403Y038004D01*
X037278Y038071D01*
X037142Y038112D01*
X037Y038126D01*
X036151D01*
X034975Y039302D01*
Y040051D01*
X034975Y040055D01*
X034976Y040084D01*
X035036D01*
Y040457D01*
X035301D01*
Y041088D01*
Y04172D01*
X035036D01*
Y042092D01*
X035036D01*
Y042096D01*
X035036D01*
Y042469D01*
X035301D01*
Y0431D01*
Y043731D01*
X035036D01*
Y044104D01*
X033723D01*
X033713Y044113D01*
X033603Y044204D01*
X033478Y044271D01*
X033342Y044312D01*
X0332Y044326D01*
X032803D01*
Y044398D01*
X033179D01*
Y044724D01*
X032843D01*
Y044824D01*
X033179D01*
Y04515D01*
X032803D01*
Y045522D01*
X032626D01*
Y045741D01*
X032635Y045758D01*
X032671Y045877D01*
X032683Y046D01*
X032671Y046123D01*
X032635Y046242D01*
X032602Y046304D01*
X032632Y046354D01*
X039154D01*
X039172Y046307D01*
D02*
G37*
G36*
X015978Y016114D02*
X015964Y0161D01*
X015952Y016085D01*
X015941Y01607D01*
X015932Y016054D01*
X015925Y016038D01*
X015918Y016021D01*
X015913Y016005D01*
X01591Y015987D01*
X015908Y01597D01*
X015907Y015952D01*
X015752Y016107D01*
X01577Y016108D01*
X015787Y01611D01*
X015805Y016113D01*
X015821Y016118D01*
X015838Y016125D01*
X015854Y016132D01*
X01587Y016141D01*
X015885Y016152D01*
X0159Y016164D01*
X015914Y016178D01*
X015978Y016114D01*
D02*
G37*
G36*
X017205Y017596D02*
X017107D01*
X017108Y017597D01*
X017109Y017599D01*
X017109Y017604D01*
X01711Y017618D01*
X017111Y017686D01*
X017201D01*
X017205Y017596D01*
D02*
G37*
G36*
X017008D02*
X016911D01*
X016911Y017597D01*
X016912Y017599D01*
X016913Y017604D01*
X016913Y017618D01*
X016914Y017686D01*
X017004D01*
X017008Y017596D01*
D02*
G37*
G36*
X017599D02*
X017501D01*
X017502Y017597D01*
X017503Y017599D01*
X017503Y017604D01*
X017504Y017618D01*
X017505Y017686D01*
X017595D01*
X017599Y017596D01*
D02*
G37*
G36*
X016127Y018642D02*
X01611Y018636D01*
X016095Y018626D01*
X016083Y018612D01*
X016072Y018594D01*
X016063Y018573D01*
X016056Y018547D01*
X016051Y018517D01*
X016048Y018483D01*
X016047Y018446D01*
X01585D01*
X015849Y018483D01*
X015846Y018517D01*
X015841Y018547D01*
X015834Y018573D01*
X015826Y018594D01*
X015815Y018612D01*
X015802Y018626D01*
X015787Y018636D01*
X015771Y018642D01*
X015752Y018644D01*
X016146D01*
X016127Y018642D01*
D02*
G37*
G36*
X022628Y018352D02*
X022611Y018345D01*
X022596Y018332D01*
X022584Y018315D01*
X022573Y018292D01*
X022564Y018265D01*
X022557Y018232D01*
X022552Y018195D01*
X022549Y018152D01*
X022548Y018105D01*
X022352D01*
X022351Y018152D01*
X022343Y018232D01*
X022336Y018265D01*
X022327Y018292D01*
X022316Y018315D01*
X022304Y018332D01*
X022289Y018345D01*
X022272Y018352D01*
X022254Y018355D01*
X022646D01*
X022628Y018352D01*
D02*
G37*
G36*
X038025Y01758D02*
X038Y017603D01*
X037974Y017623D01*
X037945Y017642D01*
X037915Y017658D01*
X037884Y017671D01*
X03785Y017682D01*
X037815Y017691D01*
X037778Y017697D01*
X037739Y0177D01*
X037699Y017702D01*
Y017898D01*
X037739Y0179D01*
X037778Y017903D01*
X037815Y017909D01*
X03785Y017918D01*
X037884Y017929D01*
X037915Y017942D01*
X037945Y017958D01*
X037974Y017977D01*
X038Y017997D01*
X038025Y01802D01*
Y01758D01*
D02*
G37*
G36*
X014876Y017066D02*
X014886Y017062D01*
X014899Y017058D01*
X014916Y017055D01*
X014936Y017052D01*
X014985Y017048D01*
X015084Y017046D01*
Y016956D01*
X015048Y016956D01*
X014916Y016947D01*
X014899Y016944D01*
X014886Y01694D01*
X014876Y016936D01*
X01487Y016932D01*
Y017071D01*
X014876Y017066D01*
D02*
G37*
G36*
X01533Y017083D02*
X015333Y017075D01*
X015337Y017068D01*
X015344Y017062D01*
X015352Y017057D01*
X015362Y017053D01*
X015374Y01705D01*
X015387Y017048D01*
X015403Y017047D01*
X01542Y017046D01*
Y016956D01*
X015403Y016956D01*
X015387Y016954D01*
X015374Y016952D01*
X015362Y016949D01*
X015352Y016945D01*
X015344Y01694D01*
X015337Y016934D01*
X015333Y016927D01*
X01533Y01692D01*
X015329Y016911D01*
Y017091D01*
X01533Y017083D01*
D02*
G37*
G36*
X016576Y017112D02*
X016577Y017097D01*
X016579Y017083D01*
X016583Y017071D01*
X016587Y017061D01*
X016592Y017053D01*
X016597Y017046D01*
X016604Y017042D01*
X016612Y017039D01*
X01662Y017038D01*
X01644D01*
X016449Y017039D01*
X016457Y017042D01*
X016463Y017046D01*
X016469Y017053D01*
X016474Y017061D01*
X016478Y017071D01*
X016481Y017083D01*
X016484Y017097D01*
X016485Y017112D01*
X016485Y017129D01*
X016575D01*
X016576Y017112D01*
D02*
G37*
G36*
X016911Y01733D02*
X01691Y017338D01*
X016907Y017346D01*
X016903Y017353D01*
X016896Y017358D01*
X016888Y017363D01*
X016878Y017367D01*
X016867Y017371D01*
X016853Y017373D01*
X016838Y017374D01*
X016821Y017375D01*
Y017465D01*
X016838Y017465D01*
X016853Y017466D01*
X016867Y017469D01*
X016878Y017472D01*
X016888Y017476D01*
X016896Y017481D01*
X016903Y017487D01*
X016907Y017493D01*
X01691Y017501D01*
X016911Y01751D01*
Y01733D01*
D02*
G37*
G36*
X01538Y017442D02*
X01537Y017429D01*
X015361Y017416D01*
X015353Y017402D01*
X015346Y017388D01*
X01534Y017374D01*
X015336Y01736D01*
X015333Y017345D01*
X015331Y01733D01*
X01533Y017315D01*
X014835Y017314D01*
X014863Y017315D01*
X014891Y017319D01*
X014919Y017327D01*
X014946Y017336D01*
X014974Y017349D01*
X015002Y017364D01*
X01503Y017383D01*
X015058Y017404D01*
X015086Y017428D01*
X015114Y017454D01*
X015392D01*
X01538Y017442D01*
D02*
G37*
G36*
X016175Y024406D02*
X016181Y024389D01*
X016191Y024374D01*
X016205Y024362D01*
X016222Y024351D01*
X016244Y024342D01*
X01627Y024335D01*
X016299Y02433D01*
X016332Y024327D01*
X01637Y024326D01*
Y024129D01*
X016332Y024128D01*
X016299Y024125D01*
X01627Y02412D01*
X016244Y024114D01*
X016222Y024105D01*
X016205Y024094D01*
X016191Y024081D01*
X016181Y024066D01*
X016175Y02405D01*
X016173Y024031D01*
Y024425D01*
X016175Y024406D01*
D02*
G37*
G36*
X015625Y024031D02*
X015623Y02405D01*
X015618Y024066D01*
X015608Y024081D01*
X015594Y024094D01*
X015576Y024105D01*
X015554Y024114D01*
X015528Y02412D01*
X015499Y024125D01*
X015465Y024128D01*
X015427Y024129D01*
Y024326D01*
X015465Y024327D01*
X015499Y02433D01*
X015528Y024335D01*
X015554Y024342D01*
X015576Y024351D01*
X015594Y024362D01*
X015608Y024374D01*
X015618Y024389D01*
X015623Y024406D01*
X015625Y024425D01*
Y024031D01*
D02*
G37*
G36*
X02875Y024697D02*
X028776Y024677D01*
X028805Y024658D01*
X028835Y024642D01*
X028866Y024629D01*
X0289Y024618D01*
X028935Y024609D01*
X028972Y024603D01*
X029011Y0246D01*
X029051Y024598D01*
Y024402D01*
X029011Y0244D01*
X028972Y024397D01*
X028935Y024391D01*
X0289Y024382D01*
X028866Y024371D01*
X028835Y024358D01*
X028805Y024342D01*
X028776Y024323D01*
X02875Y024303D01*
X028725Y02428D01*
Y02472D01*
X02875Y024697D01*
D02*
G37*
G36*
X019037Y024303D02*
X019035Y024322D01*
X01903Y024339D01*
X01902Y024353D01*
X019006Y024366D01*
X018988Y024377D01*
X018966Y024386D01*
X01894Y024393D01*
X018911Y024398D01*
X018877Y024401D01*
X018839Y024402D01*
Y024598D01*
X018877Y024599D01*
X018911Y024602D01*
X01894Y024607D01*
X018966Y024614D01*
X018988Y024623D01*
X019006Y024634D01*
X01902Y024647D01*
X01903Y024661D01*
X019035Y024678D01*
X019037Y024697D01*
Y024303D01*
D02*
G37*
G36*
X020645Y024563D02*
X020715Y024504D01*
X020747Y024482D01*
X020773Y024467D01*
X020774Y024468D01*
X02078Y024475D01*
X020785Y024483D01*
X020789Y024493D01*
X020792Y024505D01*
X020794Y024518D01*
X020796Y024534D01*
X020796Y024551D01*
X020886D01*
X020887Y024534D01*
X020888Y024518D01*
X02089Y024505D01*
X020893Y024493D01*
X020897Y024483D01*
X020902Y024475D01*
X020908Y024468D01*
X020915Y024464D01*
X020923Y024461D01*
X020931Y02446D01*
X020887D01*
X020895Y024342D01*
X020898Y024326D01*
X020902Y024312D01*
X020906Y024302D01*
X020911Y024296D01*
X020772D01*
X020776Y024302D01*
X02078Y024312D01*
X020784Y024326D01*
X020787Y024342D01*
X02079Y024362D01*
X020792Y024391D01*
X020568Y024222D01*
X020581Y024236D01*
X020588Y024252D01*
X020588Y024272D01*
X020583Y024295D01*
X020572Y024321D01*
X020555Y024351D01*
X020532Y024384D01*
X020503Y024419D01*
X020428Y024501D01*
X020606Y024601D01*
X020645Y024563D01*
D02*
G37*
G36*
X014352Y02435D02*
X014359Y024345D01*
X014371Y024341D01*
X014386Y024337D01*
X014404Y024334D01*
X014426Y024331D01*
X01448Y024327D01*
X014549Y024326D01*
Y024129D01*
X014511Y024128D01*
X014477Y024125D01*
X014447Y02412D01*
X014422Y024114D01*
X0144Y024105D01*
X014382Y024094D01*
X014368Y024081D01*
X014358Y024066D01*
X014353Y02405D01*
X014351Y024031D01*
X014347Y024356D01*
X014352Y02435D01*
D02*
G37*
G36*
X016079Y023992D02*
X016063Y023986D01*
X016048Y023976D01*
X016035Y023962D01*
X016024Y023944D01*
X016016Y023923D01*
X016009Y023897D01*
X016004Y023867D01*
X016001Y023833D01*
X016Y023796D01*
X015803D01*
X015802Y023833D01*
X015799Y023867D01*
X015794Y023897D01*
X015787Y023923D01*
X015778Y023944D01*
X015767Y023962D01*
X015755Y023976D01*
X01574Y023986D01*
X015723Y023992D01*
X015704Y023994D01*
X016098D01*
X016079Y023992D01*
D02*
G37*
G36*
X024571Y023823D02*
X024566Y023819D01*
X024561Y023813D01*
X024557Y023805D01*
X024554Y023796D01*
X024551Y023786D01*
X024549Y023774D01*
X024548Y023761D01*
X024547Y02373D01*
X024457D01*
X024456Y023747D01*
X024454Y023774D01*
X024452Y023786D01*
X024449Y023796D01*
X024446Y023805D01*
X024442Y023813D01*
X024437Y023819D01*
X024432Y023823D01*
X024427Y023827D01*
X024577D01*
X024571Y023823D01*
D02*
G37*
G36*
X022001Y024467D02*
X022041Y024434D01*
X022059Y024423D01*
X022074Y024416D01*
X022088Y024412D01*
X022099Y024412D01*
X022109Y024415D01*
X022117Y024423D01*
X022123Y024433D01*
X022119Y023933D01*
X022117Y02396D01*
X022113Y023987D01*
X022106Y024015D01*
X022097Y024043D01*
X022084Y024071D01*
X022069Y024098D01*
X02205Y024126D01*
X022029Y024155D01*
X022005Y024183D01*
X021978Y024211D01*
Y024489D01*
X022001Y024467D01*
D02*
G37*
G36*
X012175Y024308D02*
X012181Y024292D01*
X012191Y024277D01*
X012205Y024264D01*
X012222Y024253D01*
X012244Y024244D01*
X01227Y024238D01*
X012299Y024233D01*
X012333Y02423D01*
X01237Y024229D01*
Y024032D01*
X012333Y024032D01*
X012244Y024026D01*
X012222Y024022D01*
X012205Y024018D01*
X012191Y024013D01*
X012181Y024007D01*
X012175Y024D01*
X012173Y023993D01*
Y024327D01*
X012175Y024308D01*
D02*
G37*
G36*
X013349Y023933D02*
X013347Y023952D01*
X013341Y023969D01*
X013331Y023984D01*
X013318Y023996D01*
X0133Y024007D01*
X013278Y024016D01*
X013252Y024023D01*
X013222Y024028D01*
X013189Y024031D01*
X013151Y024032D01*
Y024229D01*
X013189Y02423D01*
X013222Y024233D01*
X013252Y024238D01*
X013278Y024244D01*
X0133Y024253D01*
X013318Y024264D01*
X013331Y024277D01*
X013341Y024292D01*
X013347Y024308D01*
X013349Y024327D01*
Y023933D01*
D02*
G37*
G36*
X024035Y024513D02*
X024037Y024486D01*
X02404Y024474D01*
X024042Y024464D01*
X024046Y024455D01*
X024049Y024447D01*
X024054Y024441D01*
X024059Y024437D01*
X024065Y024433D01*
X023915D01*
X02392Y024437D01*
X023926Y024441D01*
X02393Y024447D01*
X023934Y024455D01*
X023937Y024464D01*
X02394Y024474D01*
X023942Y024486D01*
X023944Y024499D01*
X023945Y024529D01*
X024035D01*
X024035Y024513D01*
D02*
G37*
G36*
X023779D02*
X023782Y024486D01*
X023784Y024474D01*
X023786Y024464D01*
X02379Y024455D01*
X023794Y024447D01*
X023798Y024441D01*
X023803Y024437D01*
X023809Y024433D01*
X023659D01*
X023665Y024437D01*
X02367Y024441D01*
X023674Y024447D01*
X023678Y024455D01*
X023681Y024464D01*
X023684Y024474D01*
X023686Y024486D01*
X023688Y024499D01*
X023689Y024529D01*
X023779D01*
X023779Y024513D01*
D02*
G37*
G36*
X024291D02*
X024293Y024486D01*
X024295Y024474D01*
X024298Y024464D01*
X024301Y024455D01*
X024305Y024447D01*
X02431Y024441D01*
X024315Y024437D01*
X024321Y024433D01*
X024171D01*
X024176Y024437D01*
X024181Y024441D01*
X024186Y024447D01*
X02419Y024455D01*
X024193Y024464D01*
X024196Y024474D01*
X024198Y024486D01*
X024199Y024499D01*
X024201Y024529D01*
X024291D01*
X024291Y024513D01*
D02*
G37*
G36*
X022981Y026308D02*
X022977Y026298D01*
X022973Y026285D01*
X02297Y026272D01*
X023026D01*
X023014Y026259D01*
X023003Y026245D01*
X022993Y02623D01*
X022984Y026215D01*
X022977Y026199D01*
X022971Y026182D01*
X022967Y026164D01*
X022963Y026146D01*
X022961Y026127D01*
X022961Y026123D01*
X022961Y0261D01*
X022871D01*
X022871Y026109D01*
X02287Y026127D01*
X022868Y026146D01*
X022865Y026164D01*
X02286Y026182D01*
X022854Y026199D01*
X022847Y026215D01*
X022839Y02623D01*
X022829Y026245D01*
X022818Y026259D01*
X022806Y026272D01*
X022861D01*
X022859Y026285D01*
X022855Y026298D01*
X022851Y026308D01*
X022846Y026315D01*
X022985D01*
X022981Y026308D01*
D02*
G37*
G36*
X027953Y024814D02*
X027914Y024773D01*
X027852Y024701D01*
X02783Y024669D01*
X027813Y024639D01*
X027802Y024613D01*
X027796Y024589D01*
X027796Y024569D01*
X027802Y024551D01*
X027813Y024535D01*
X027535Y024813D01*
X027551Y024802D01*
X027569Y024796D01*
X027589Y024796D01*
X027613Y024802D01*
X027639Y024813D01*
X027669Y02483D01*
X027701Y024852D01*
X027736Y02488D01*
X027814Y024953D01*
X027953Y024814D01*
D02*
G37*
G36*
X023523Y024513D02*
X023526Y024486D01*
X023528Y024474D01*
X02353Y024464D01*
X023534Y024455D01*
X023538Y024447D01*
X023542Y024441D01*
X023547Y024437D01*
X023553Y024433D01*
X023403D01*
X023409Y024437D01*
X023414Y024441D01*
X023418Y024447D01*
X023422Y024455D01*
X023425Y024464D01*
X023428Y024474D01*
X02343Y024486D01*
X023432Y024499D01*
X023433Y024529D01*
X023523D01*
X023523Y024513D01*
D02*
G37*
G36*
X022961Y024511D02*
X022963Y024494D01*
X022965Y02448D01*
X022968Y024468D01*
X022972Y024457D01*
X022977Y024449D01*
X022983Y024443D01*
X02299Y024439D01*
X022997Y024438D01*
X023006Y024438D01*
X022885Y024419D01*
X022882Y024414D01*
X02288Y024412D01*
X022878Y024414D01*
X022876Y02442D01*
X022874Y024429D01*
X022873Y024442D01*
X022871Y024478D01*
X022871Y024529D01*
X022961D01*
X022961Y024511D01*
D02*
G37*
G36*
X025593Y024506D02*
X025624Y02448D01*
X025638Y024471D01*
X025651Y024463D01*
X025664Y024458D01*
X025675Y024455D01*
X025685Y024453D01*
X025695Y024454D01*
X025704Y024458D01*
X025538Y024371D01*
X025545Y024376D01*
X025549Y024383D01*
X02555Y024391D01*
X025548Y024402D01*
X025543Y024414D01*
X025535Y024427D01*
X025524Y024442D01*
X02551Y024459D01*
X025473Y024498D01*
X025576Y024523D01*
X025593Y024506D01*
D02*
G37*
G36*
X0225Y024513D02*
X022502Y024486D01*
X022504Y024474D01*
X022507Y024464D01*
X02251Y024455D01*
X022514Y024447D01*
X022519Y024441D01*
X022524Y024437D01*
X022529Y024433D01*
X022379D01*
X022385Y024437D01*
X02239Y024441D01*
X022395Y024447D01*
X022399Y024455D01*
X022402Y024464D01*
X022405Y024474D01*
X022407Y024486D01*
X022408Y024499D01*
X022409Y024529D01*
X022499D01*
X0225Y024513D01*
D02*
G37*
G36*
X023267D02*
X02327Y024486D01*
X023272Y024474D01*
X023275Y024464D01*
X023278Y024455D01*
X023282Y024447D01*
X023286Y024441D01*
X023291Y024437D01*
X023297Y024433D01*
X023147D01*
X023153Y024437D01*
X023158Y024441D01*
X023162Y024447D01*
X023166Y024455D01*
X02317Y024464D01*
X023172Y024474D01*
X023174Y024486D01*
X023176Y024499D01*
X023177Y024529D01*
X023267D01*
X023267Y024513D01*
D02*
G37*
G36*
X022745Y024514D02*
X022747Y0245D01*
X022749Y024487D01*
X022751Y024476D01*
X022755Y024466D01*
X022759Y024457D01*
X022765Y024449D01*
X022771Y024443D01*
X022778Y024437D01*
X022785Y024433D01*
X022635D01*
X022639Y024436D01*
X022642Y02444D01*
X022645Y024445D01*
X022648Y024453D01*
X02265Y024461D01*
X022652Y024472D01*
X022653Y024484D01*
X022655Y024513D01*
X022655Y024529D01*
X022745D01*
X022745Y024514D01*
D02*
G37*
G36*
X022524Y023823D02*
X022519Y023819D01*
X022514Y023813D01*
X02251Y023805D01*
X022507Y023796D01*
X022504Y023786D01*
X022502Y023774D01*
X022501Y023761D01*
X022499Y02373D01*
X022409D01*
X022409Y023747D01*
X022407Y023774D01*
X022405Y023786D01*
X022402Y023796D01*
X022399Y023805D01*
X022395Y023813D01*
X02239Y023819D01*
X022385Y023823D01*
X022379Y023827D01*
X022529D01*
X022524Y023823D01*
D02*
G37*
G36*
X012419Y02249D02*
X012447Y022476D01*
X012482Y022465D01*
X012526Y022454D01*
X012577Y022446D01*
X012703Y022433D01*
X012862Y022427D01*
X012952Y022426D01*
Y022229D01*
X012864Y022229D01*
X012838Y022226D01*
X012815Y022215D01*
X012803Y022197D01*
X012802Y022173D01*
X012812Y022141D01*
X012833Y022102D01*
X012866Y022056D01*
X012963Y021943D01*
X012987Y02192D01*
X013125Y021807D01*
X013193Y021761D01*
X01326Y021722D01*
X013327Y02169D01*
X013392Y021665D01*
X013457Y021648D01*
X013521Y021637D01*
X013584Y021633D01*
X012917Y020967D01*
X012913Y02103D01*
X012903Y021093D01*
X012885Y021158D01*
X01286Y021224D01*
X012829Y02129D01*
X01279Y021357D01*
X012744Y021425D01*
X012691Y021494D01*
X012631Y021563D01*
X012563Y021633D01*
X012886Y021956D01*
X012472Y022188D01*
X012447Y022179D01*
X012419Y022166D01*
X012399Y022151D01*
Y022229D01*
X012223Y022328D01*
Y022426D01*
X012399Y022373D01*
Y022505D01*
X012419Y02249D01*
D02*
G37*
G36*
X0225Y022232D02*
X022501Y02221D01*
X022503Y022201D01*
X022505Y022193D01*
X022507Y022187D01*
X022509Y022182D01*
X022513Y022179D01*
X022516Y022177D01*
X02252Y022176D01*
X022389D01*
X022393Y022177D01*
X022396Y022179D01*
X022399Y022182D01*
X022402Y022187D01*
X022404Y022193D01*
X022406Y022201D01*
X022407Y02221D01*
X022408Y022221D01*
X022409Y022246D01*
X022499D01*
X0225Y022232D01*
D02*
G37*
G36*
X014691Y022549D02*
X014674Y022421D01*
Y021735D01*
X0146D01*
Y0213D01*
X0145D01*
Y021735D01*
X014115D01*
Y021558D01*
X014065Y021533D01*
X014057Y021538D01*
Y021596D01*
X01406Y021607D01*
X014059Y021612D01*
X01406Y02162D01*
X014059Y021627D01*
X01406Y021633D01*
X014057Y021655D01*
Y022107D01*
X013787D01*
X013768Y022153D01*
X013845Y02223D01*
X013887Y022263D01*
X013979Y022382D01*
X014017Y022474D01*
X014104Y022463D01*
X014336D01*
X014464Y02248D01*
X014582Y022529D01*
X014644Y022576D01*
X014691Y022549D01*
D02*
G37*
G36*
X021312Y022652D02*
X021275Y022651D01*
X021242Y022648D01*
X021212Y022643D01*
X021186Y022636D01*
X021165Y022627D01*
X021147Y022616D01*
X021133Y022603D01*
X021123Y022589D01*
X021118Y022572D01*
X021116Y022553D01*
Y022766D01*
X021118Y022782D01*
X021123Y022796D01*
X021133Y022808D01*
X021147Y022819D01*
X021165Y022828D01*
X021186Y022835D01*
X021212Y022841D01*
X021242Y022845D01*
X021275Y022848D01*
X021312Y022848D01*
Y022652D01*
D02*
G37*
G36*
X019059Y022932D02*
X019089Y022907D01*
X01912Y022885D01*
X019151Y022866D01*
X019182Y02285D01*
X019214Y022837D01*
X019247Y022827D01*
X019279Y02282D01*
X019313Y022816D01*
X019347Y022815D01*
X019035Y022503D01*
X019034Y022537D01*
X01903Y022571D01*
X019023Y022603D01*
X019013Y022636D01*
X019Y022668D01*
X018984Y022699D01*
X018965Y02273D01*
X018943Y022761D01*
X018918Y022791D01*
X018891Y02282D01*
X01903Y022959D01*
X019059Y022932D01*
D02*
G37*
G36*
X012068Y022131D02*
X012044Y02215D01*
X011963Y022205D01*
X011947Y022214D01*
X011933Y02222D01*
X01192Y022225D01*
X011908Y022228D01*
X011899Y022229D01*
Y022426D01*
X011908Y022427D01*
X01192Y02243D01*
X011933Y022435D01*
X011947Y022442D01*
X011963Y022451D01*
X012001Y022474D01*
X012044Y022505D01*
X012068Y022524D01*
Y022131D01*
D02*
G37*
G36*
X027978Y021816D02*
Y015666D01*
X027584Y015272D01*
X019263D01*
X019219Y015287D01*
Y015681D01*
Y016271D01*
Y017316D01*
Y017513D01*
X018663D01*
Y017627D01*
X018668Y017631D01*
X019205Y018168D01*
X019924D01*
Y019585D01*
X019552D01*
Y019961D01*
X019226D01*
Y019625D01*
X019126D01*
Y019961D01*
X018851D01*
Y020093D01*
X018888Y020126D01*
X0189Y020124D01*
X019974D01*
Y01825D01*
X019994Y018101D01*
X020051Y017962D01*
X020143Y017843D01*
X020793Y017193D01*
X020912Y017101D01*
X021051Y017044D01*
X0212Y017024D01*
X02205D01*
X022199Y017044D01*
X022338Y017101D01*
X022457Y017193D01*
X022857Y017593D01*
X022949Y017712D01*
X023006Y017851D01*
X023026Y018D01*
Y018058D01*
X02311Y01816D01*
X023158Y018251D01*
X023207Y018262D01*
X023239Y018238D01*
X02334Y018196D01*
X0234Y018188D01*
Y0186D01*
X0235D01*
Y018188D01*
X02356Y018196D01*
X023661Y018238D01*
X023693Y018262D01*
X023742Y018251D01*
X02379Y01816D01*
X023889Y018041D01*
X024008Y017942D01*
X024145Y017869D01*
X024294Y017824D01*
X024448Y017809D01*
X024452D01*
X024606Y017824D01*
X024755Y017869D01*
X024892Y017942D01*
X025011Y018041D01*
X02511Y01816D01*
X025183Y018297D01*
X025228Y018446D01*
X025243Y0186D01*
X025228Y018754D01*
X025219Y018785D01*
X025239Y018813D01*
X025239D01*
Y020387D01*
X024958D01*
X024937Y020437D01*
X024965Y020478D01*
X02615D01*
X026285Y020496D01*
X026411Y020548D01*
X026519Y020631D01*
X027069Y021181D01*
X027152Y021289D01*
X027204Y021415D01*
X027222Y02155D01*
Y02172D01*
X027262Y021749D01*
X027346Y021724D01*
X0275Y021709D01*
X027654Y021724D01*
X027803Y021769D01*
X027928Y021836D01*
X027978Y021816D01*
D02*
G37*
G36*
X020568Y021586D02*
X020566Y021605D01*
X02056Y021622D01*
X02055Y021637D01*
X020536Y021649D01*
X020518Y02166D01*
X020497Y021669D01*
X020471Y021676D01*
X020441Y021681D01*
X020408Y021684D01*
X02037Y021685D01*
Y021882D01*
X020408Y021883D01*
X020441Y021886D01*
X020471Y021891D01*
X020497Y021897D01*
X020518Y021906D01*
X020536Y021917D01*
X02055Y02193D01*
X02056Y021945D01*
X020566Y021961D01*
X020568Y02198D01*
Y021586D01*
D02*
G37*
G36*
X028687Y022241D02*
X028657Y022206D01*
X028631Y022172D01*
X028608Y022138D01*
X028589Y022104D01*
X028573Y022071D01*
X028561Y022037D01*
X028552Y022003D01*
X028547Y02197D01*
X028545Y021936D01*
X028455D01*
X028453Y02197D01*
X028448Y022003D01*
X028439Y022037D01*
X028427Y022071D01*
X028411Y022104D01*
X028392Y022138D01*
X028369Y022172D01*
X028343Y022206D01*
X028313Y022241D01*
X02828Y022275D01*
X02872D01*
X028687Y022241D01*
D02*
G37*
G36*
X024646Y021951D02*
X024634Y021938D01*
X024623Y021925D01*
X024613Y021912D01*
X024605Y0219D01*
X024598Y021887D01*
X024592Y021874D01*
X024587Y021862D01*
X024584Y021849D01*
X024582Y021836D01*
X024581Y021824D01*
Y022078D01*
X024582Y022067D01*
X024584Y022058D01*
X024587Y022051D01*
X024592Y022047D01*
X024598Y022046D01*
X024605Y022047D01*
X024613Y022051D01*
X024623Y022058D01*
X024634Y022067D01*
X024646Y022078D01*
Y021951D01*
D02*
G37*
G36*
X021179Y022058D02*
X02116Y022037D01*
X021129Y022002D01*
X021118Y021987D01*
X02111Y021973D01*
X021105Y021961D01*
X021103Y021951D01*
X021104Y021942D01*
X021108Y021936D01*
X021114Y02193D01*
X021073Y021952D01*
X021049Y021927D01*
X020961Y021827D01*
X020952Y021813D01*
X020945Y021801D01*
X020941Y021791D01*
X02094Y021783D01*
X020841Y021882D01*
X020849Y021883D01*
X020859Y021887D01*
X020871Y021894D01*
X020885Y021903D01*
X020901Y021915D01*
X020939Y021948D01*
X020989Y021996D01*
X020949Y022017D01*
X020958Y022014D01*
X020967Y022013D01*
X020978Y022014D01*
X020989Y022017D01*
X021001Y022023D01*
X021014Y02203D01*
X021028Y02204D01*
X021043Y022052D01*
X021059Y022066D01*
X021076Y022082D01*
X021179Y022058D01*
D02*
G37*
G36*
X021643Y023828D02*
X021658Y023712D01*
X021708Y023593D01*
X021787Y02349D01*
X021889Y023411D01*
X022009Y023361D01*
X022022Y023359D01*
X022085Y023277D01*
X022331Y023031D01*
X022361Y023008D01*
X022341Y02296D01*
X02225Y022972D01*
X021508D01*
X021373Y022954D01*
X021247Y022902D01*
X021202Y022868D01*
X020891D01*
Y022571D01*
X020851Y022531D01*
X020791D01*
Y022868D01*
X02066D01*
X020656Y022899D01*
X020599Y023038D01*
X020553Y023097D01*
X020575Y023142D01*
X020791D01*
Y023478D01*
X020891D01*
Y023142D01*
X021217D01*
Y023518D01*
X021589D01*
Y023807D01*
X021639Y023831D01*
X021643Y023828D01*
D02*
G37*
G36*
X019666Y023463D02*
X01967Y023429D01*
X019677Y023397D01*
X019687Y023364D01*
X0197Y023332D01*
X019716Y023301D01*
X019735Y02327D01*
X019757Y023239D01*
X019782Y023209D01*
X019809Y02318D01*
X01967Y023041D01*
X019641Y023068D01*
X019611Y023093D01*
X01958Y023115D01*
X019549Y023134D01*
X019518Y02315D01*
X019486Y023163D01*
X019453Y023173D01*
X019421Y02318D01*
X019387Y023184D01*
X019353Y023185D01*
X019665Y023497D01*
X019666Y023463D01*
D02*
G37*
G36*
X028356Y02322D02*
X02832Y023236D01*
X028286Y023248D01*
X028252Y023255D01*
X028219Y023258D01*
X028187Y023256D01*
X028156Y023249D01*
X028126Y023238D01*
X028097Y023223D01*
X028069Y023203D01*
X028042Y023178D01*
X02801Y023274D01*
X028029Y023294D01*
X028047Y023317D01*
X028066Y023343D01*
X028105Y023406D01*
X028146Y023483D01*
X02821Y023623D01*
X028356Y02322D01*
D02*
G37*
G36*
X014319Y023507D02*
X014323Y02345D01*
X014326Y023435D01*
X014329Y023423D01*
X014333Y023412D01*
X014337Y023405D01*
X014342Y023399D01*
X014347Y023395D01*
X014093D01*
X014098Y023399D01*
X014103Y023405D01*
X014108Y023412D01*
X014111Y023423D01*
X014114Y023435D01*
X014117Y02345D01*
X014119Y023466D01*
X014121Y023507D01*
X014122Y02353D01*
X014318D01*
X014319Y023507D01*
D02*
G37*
G36*
X016001Y023467D02*
X016004Y023433D01*
X016009Y023403D01*
X016016Y023377D01*
X016024Y023356D01*
X016035Y023338D01*
X016048Y023324D01*
X016063Y023314D01*
X016079Y023308D01*
X016098Y023306D01*
X015704D01*
X015723Y023308D01*
X01574Y023314D01*
X015755Y023324D01*
X015767Y023338D01*
X015778Y023356D01*
X015787Y023377D01*
X015794Y023403D01*
X015799Y023433D01*
X015802Y023467D01*
X015803Y023504D01*
X016D01*
X016001Y023467D01*
D02*
G37*
G36*
X017616Y023108D02*
X017622Y023106D01*
X01763Y023104D01*
X01764Y023103D01*
X017667Y0231D01*
X017725Y023099D01*
X017749Y023098D01*
Y022902D01*
X017725Y022901D01*
X01763Y022896D01*
X017622Y022894D01*
X017616Y022892D01*
X017612Y02289D01*
Y02311D01*
X017616Y023108D01*
D02*
G37*
G36*
X013602Y02294D02*
X013597Y022932D01*
X013592Y022921D01*
X013589Y022906D01*
X013586Y022888D01*
X013583Y022866D01*
X013579Y022811D01*
X013578Y022743D01*
X013382D01*
X013381Y022779D01*
X013374Y022888D01*
X013371Y022906D01*
X013367Y022921D01*
X013363Y022932D01*
X013358Y02294D01*
X013353Y022944D01*
X013607D01*
X013602Y02294D01*
D02*
G37*
G36*
X027993Y022679D02*
X027974Y022659D01*
X027933Y02261D01*
X027913Y022581D01*
X027848Y02248D01*
X027803Y0224D01*
X02778Y022356D01*
X027679Y022759D01*
X027711Y02274D01*
X027741Y022725D01*
X027772Y022716D01*
X027802Y022711D01*
X027831Y022712D01*
X027861Y022717D01*
X02789Y022727D01*
X027918Y022742D01*
X027946Y022762D01*
X027974Y022787D01*
X027993Y022679D01*
D02*
G37*
G36*
X015945Y022838D02*
X015928Y022848D01*
X015908Y022852D01*
X015887Y022851D01*
X015862Y022844D01*
X015836Y022833D01*
X015807Y022816D01*
X015775Y022795D01*
X015741Y022768D01*
X015705Y022735D01*
X015666Y022698D01*
X015488Y022798D01*
X015529Y02284D01*
X015592Y022915D01*
X015615Y022948D01*
X015632Y022977D01*
X015644Y023003D01*
X015649Y023026D01*
X015648Y023046D01*
X015641Y023063D01*
X015628Y023076D01*
X015945Y022838D01*
D02*
G37*
G36*
X016177Y02325D02*
X016182Y023234D01*
X016192Y023219D01*
X016206Y023206D01*
X016224Y023195D01*
X016246Y023186D01*
X016272Y02318D01*
X016301Y023175D01*
X016335Y023172D01*
X016373Y023171D01*
Y022974D01*
X016335Y022973D01*
X016301Y02297D01*
X016272Y022965D01*
X016246Y022958D01*
X016224Y022949D01*
X016206Y022938D01*
X016192Y022926D01*
X016182Y022911D01*
X016177Y022894D01*
X016175Y022875D01*
Y023269D01*
X016177Y02325D01*
D02*
G37*
G36*
X013931Y02294D02*
X013924Y022937D01*
X013917Y022932D01*
X013911Y022926D01*
X013906Y022918D01*
X013902Y022908D01*
X013899Y022896D01*
X013897Y022882D01*
X013895Y022867D01*
X013895Y022849D01*
X013805D01*
X013805Y022867D01*
X013803Y022882D01*
X013801Y022896D01*
X013798Y022908D01*
X013794Y022918D01*
X013789Y022926D01*
X013783Y022932D01*
X013776Y022937D01*
X013769Y02294D01*
X01376Y022941D01*
X01394D01*
X013931Y02294D01*
D02*
G37*
G36*
X027644Y035402D02*
X027607Y035401D01*
X027573Y035398D01*
X027543Y035393D01*
X027518Y035386D01*
X027496Y035377D01*
X027478Y035366D01*
X027464Y035353D01*
X027454Y035339D01*
X027448Y035322D01*
X027446Y035303D01*
X027447Y035511D01*
X027644Y035598D01*
Y035402D01*
D02*
G37*
G36*
X028288Y03539D02*
X028284Y035392D01*
X028278Y035394D01*
X02827Y035396D01*
X02826Y035397D01*
X028233Y0354D01*
X028175Y035401D01*
X028151Y035402D01*
Y035598D01*
X028175Y035599D01*
X02827Y035604D01*
X028278Y035606D01*
X028284Y035608D01*
X028288Y03561D01*
Y03539D01*
D02*
G37*
G36*
X033544Y035314D02*
X033542Y035333D01*
X033536Y03535D01*
X033526Y035365D01*
X033512Y035377D01*
X033494Y035388D01*
X033473Y035397D01*
X033447Y035404D01*
X033417Y035409D01*
X033383Y035412D01*
X033346Y035413D01*
Y03561D01*
X033383Y035611D01*
X033417Y035614D01*
X033447Y035619D01*
X033473Y035626D01*
X033494Y035634D01*
X033512Y035645D01*
X033526Y035658D01*
X033536Y035673D01*
X033542Y035689D01*
X033544Y035708D01*
Y035314D01*
D02*
G37*
G36*
X031746Y035877D02*
X03182Y035813D01*
X031853Y03579D01*
X031883Y035773D01*
X031909Y035762D01*
X031932Y035757D01*
X031952Y035758D01*
X031968Y035764D01*
X031982Y035777D01*
X031744Y035461D01*
X031753Y035478D01*
X031757Y035497D01*
X031756Y035519D01*
X03175Y035543D01*
X031738Y03557D01*
X031722Y035599D01*
X0317Y03563D01*
X031673Y035664D01*
X031641Y0357D01*
X031604Y035739D01*
X031703Y035918D01*
X031746Y035877D01*
D02*
G37*
G36*
X029458Y039604D02*
X029464Y039587D01*
X029474Y039573D01*
X029488Y03956D01*
X029506Y039549D01*
X029527Y03954D01*
X029553Y039533D01*
X029583Y039528D01*
X029617Y039525D01*
X029654Y039524D01*
Y039328D01*
X029617Y039327D01*
X029583Y039324D01*
X029553Y039319D01*
X029527Y039312D01*
X029506Y039303D01*
X029488Y039292D01*
X029474Y039279D01*
X029464Y039265D01*
X029458Y039248D01*
X029456Y039229D01*
Y039623D01*
X029458Y039604D01*
D02*
G37*
G36*
X033522Y043636D02*
X033595Y043576D01*
X03367Y043523D01*
X033748Y043477D01*
X033826Y043438D01*
X033907Y043407D01*
X03399Y043382D01*
X034074Y043364D01*
X034161Y043354D01*
X034249Y04335D01*
Y04285D01*
X034161Y042846D01*
X034074Y042836D01*
X03399Y042818D01*
X033907Y042793D01*
X033826Y042762D01*
X033748Y042723D01*
X03367Y042677D01*
X033595Y042624D01*
X033522Y042564D01*
X03345Y042496D01*
X032993Y042746D01*
X033057Y042817D01*
X033107Y042887D01*
X033144Y042956D01*
X033167Y043024D01*
X033177Y043092D01*
X033174Y04316D01*
X033156Y043227D01*
X033125Y043293D01*
X033081Y043358D01*
X033023Y043423D01*
X03345Y043704D01*
X033522Y043636D01*
D02*
G37*
G36*
X03014Y039229D02*
X030138Y039248D01*
X030133Y039265D01*
X030123Y039279D01*
X030109Y039292D01*
X030091Y039303D01*
X030069Y039312D01*
X030043Y039319D01*
X030014Y039324D01*
X02998Y039327D01*
X029942Y039328D01*
Y039524D01*
X02998Y039525D01*
X030014Y039528D01*
X030043Y039533D01*
X030069Y03954D01*
X030091Y039549D01*
X030109Y03956D01*
X030123Y039573D01*
X030133Y039587D01*
X030138Y039604D01*
X03014Y039623D01*
Y039229D01*
D02*
G37*
G36*
X028239Y039202D02*
X028234Y039206D01*
X028219Y03921D01*
X028194Y039214D01*
X028159Y039217D01*
X027919Y039225D01*
X027739Y039226D01*
Y039726D01*
X028239Y03975D01*
Y039202D01*
D02*
G37*
G36*
X023927Y04443D02*
X023998Y04437D01*
X024069Y044317D01*
X024139Y044271D01*
X02421Y044231D01*
X024281Y0442D01*
X024352Y044175D01*
X024422Y044157D01*
X024493Y044146D01*
X024563Y044143D01*
X023488Y044144D01*
X023485Y04415D01*
X023476Y044161D01*
X023461Y044178D01*
X02319Y044456D01*
X023856Y044497D01*
X023927Y04443D01*
D02*
G37*
G36*
X029798Y040364D02*
Y040224D01*
X028948D01*
X028938Y040274D01*
X029257Y040593D01*
X029347Y040709D01*
X029453D01*
X029798Y040364D01*
D02*
G37*
G36*
X018893Y046307D02*
X017143Y044557D01*
X017051Y044438D01*
X016994Y044299D01*
X016974Y04415D01*
Y040289D01*
X014962Y038276D01*
X01185D01*
X011701Y038256D01*
X011562Y038199D01*
X011443Y038107D01*
X010893Y037557D01*
X010846Y037576D01*
Y044449D01*
X010896Y044472D01*
X011007Y044378D01*
X011176Y044274D01*
X011359Y044198D01*
X011552Y044152D01*
X01175Y044136D01*
X011948Y044152D01*
X012141Y044198D01*
X012324Y044274D01*
X012493Y044378D01*
X012644Y044506D01*
X012772Y044657D01*
X012876Y044826D01*
X012952Y045009D01*
X012998Y045202D01*
X013014Y0454D01*
X012998Y045598D01*
X012952Y045791D01*
X012876Y045974D01*
X012772Y046143D01*
X012644Y046294D01*
X012628Y046307D01*
X012646Y046354D01*
X018874D01*
X018893Y046307D01*
D02*
G37*
G36*
X030046Y041183D02*
X030027Y041179D01*
X030013Y041172D01*
X030004Y041162D01*
X030001Y041149D01*
X030004Y041134D01*
X030013Y041115D01*
X030027Y041094D01*
X030046Y041071D01*
X030072Y041044D01*
X029793D01*
X029765Y041071D01*
X029737Y041094D01*
X029709Y041115D01*
X029681Y041134D01*
X029653Y041149D01*
X029626Y041162D01*
X029598Y041172D01*
X02957Y041179D01*
X029543Y041183D01*
X029515Y041184D01*
X030072D01*
X030046Y041183D01*
D02*
G37*
G36*
X028498Y03574D02*
X028597D01*
X028578Y035738D01*
X028561Y035733D01*
X028547Y035723D01*
X028534Y035709D01*
X028523Y035691D01*
X028514Y035669D01*
X028507Y035643D01*
X028505Y035628D01*
X028506Y035622D01*
X028508Y035616D01*
X02851Y035612D01*
X028502D01*
X028499Y03558D01*
X028498Y035542D01*
X028302D01*
X028301Y03558D01*
X028298Y035612D01*
X02829D01*
X028292Y035616D01*
X028294Y035622D01*
X028295Y035628D01*
X028293Y035643D01*
X028286Y035669D01*
X028277Y035691D01*
X028266Y035709D01*
X028253Y035723D01*
X028239Y035733D01*
X028222Y035738D01*
X028203Y03574D01*
X028302D01*
X028302Y035749D01*
X028498D01*
X028498Y03574D01*
D02*
G37*
G36*
X028181Y041817D02*
X028184Y041783D01*
X028189Y041753D01*
X028196Y041727D01*
X028204Y041706D01*
X028215Y041688D01*
X028228Y041674D01*
X028243Y041664D01*
X028259Y041658D01*
X028278Y041656D01*
X027884D01*
X027903Y041658D01*
X02792Y041664D01*
X027935Y041674D01*
X027947Y041688D01*
X027958Y041706D01*
X027967Y041727D01*
X027974Y041753D01*
X027979Y041783D01*
X027982Y041817D01*
X027983Y041854D01*
X02818D01*
X028181Y041817D01*
D02*
G37*
G36*
X03455Y042565D02*
X03454Y04255D01*
X03453Y042525D01*
X034522Y04249D01*
X034515Y042445D01*
X034505Y042325D01*
X034499Y042165D01*
X034499Y042094D01*
X034499Y042023D01*
X034522Y041698D01*
X03453Y041663D01*
X03454Y041638D01*
X03455Y041623D01*
X034563Y041618D01*
X033935D01*
X033947Y041623D01*
X033958Y041638D01*
X033968Y041663D01*
X033976Y041698D01*
X033983Y041743D01*
X033993Y041863D01*
X033998Y042023D01*
X033999Y042094D01*
X033998Y042165D01*
X033976Y04249D01*
X033968Y042525D01*
X033958Y04255D01*
X033947Y042565D01*
X033935Y04257D01*
X034563D01*
X03455Y042565D01*
D02*
G37*
G36*
Y040553D02*
X03454Y040538D01*
X03453Y040513D01*
X034522Y040478D01*
X034515Y040433D01*
X034505Y040313D01*
X034499Y040153D01*
X034499Y040058D01*
X033999D01*
X033998Y040153D01*
X033976Y040478D01*
X033968Y040513D01*
X033958Y040538D01*
X033947Y040553D01*
X033935Y040558D01*
X034563D01*
X03455Y040553D01*
D02*
G37*
G36*
X031222Y03986D02*
X031225Y039826D01*
X03123Y039797D01*
X031236Y039771D01*
X031245Y03975D01*
X031256Y039732D01*
X031269Y039718D01*
X031284Y039708D01*
X0313Y039702D01*
X031319Y0397D01*
X030925D01*
X030944Y039702D01*
X030961Y039708D01*
X030976Y039718D01*
X030988Y039732D01*
X030999Y03975D01*
X031008Y039771D01*
X031015Y039797D01*
X03102Y039826D01*
X031023Y03986D01*
X031024Y039897D01*
X031221D01*
X031222Y03986D01*
D02*
G37*
G36*
X021366Y039168D02*
X021363Y03916D01*
X02136Y039147D01*
X021358Y039128D01*
X021354Y039074D01*
X021351Y038901D01*
X020851D01*
X020851Y038952D01*
X020839Y03916D01*
X020836Y039168D01*
X020833Y039171D01*
X02137D01*
X021366Y039168D01*
D02*
G37*
G36*
X032094Y041183D02*
X032074Y041179D01*
X03206Y041172D01*
X032052Y041162D01*
X032049Y041149D01*
X032052Y041134D01*
X03206Y041115D01*
X032074Y041094D01*
X032094Y041071D01*
X032119Y041044D01*
X031841D01*
X031812Y041071D01*
X031784Y041094D01*
X031757Y041115D01*
X031729Y041134D01*
X031701Y041149D01*
X031673Y041162D01*
X031645Y041172D01*
X031617Y041179D01*
X03159Y041183D01*
X031562Y041184D01*
X032119D01*
X032094Y041183D01*
D02*
G37*
G36*
X03123Y040062D02*
X031228Y040056D01*
X031226Y040048D01*
X031225Y040038D01*
X031223Y040011D01*
X031221Y039953D01*
X031221Y039929D01*
X031024D01*
X031024Y039953D01*
X031018Y040048D01*
X031016Y040056D01*
X031014Y040062D01*
X031012Y040065D01*
X031233D01*
X03123Y040062D01*
D02*
G37*
G36*
X032157Y041913D02*
X032163Y04191D01*
X032173Y041907D01*
X032187Y041905D01*
X032205Y041903D01*
X032281Y041899D01*
X032352Y041898D01*
Y041702D01*
X032315Y041701D01*
X032173Y041693D01*
X032163Y04169D01*
X032157Y041687D01*
X032155Y041683D01*
Y041917D01*
X032157Y041913D01*
D02*
G37*
G36*
X021403Y040815D02*
X021392Y0408D01*
X021382Y040775D01*
X021374Y04074D01*
X021367Y040695D01*
X021357Y040575D01*
X021357Y040565D01*
X021374Y04031D01*
X021382Y040275D01*
X021392Y04025D01*
X021403Y040235D01*
X021415Y04023D01*
X020787D01*
X0208Y040235D01*
X02081Y04025D01*
X02082Y040275D01*
X020828Y04031D01*
X020835Y040355D01*
X020845Y040475D01*
X020846Y040485D01*
X020828Y04074D01*
X02082Y040775D01*
X02081Y0408D01*
X0208Y040815D01*
X020787Y04082D01*
X021415D01*
X021403Y040815D01*
D02*
G37*
G36*
X030552Y044501D02*
X030536Y044495D01*
X030521Y044485D01*
X030508Y044471D01*
X030497Y044453D01*
X030488Y044432D01*
X030482Y044406D01*
X030477Y044376D01*
X030474Y044342D01*
X030473Y044305D01*
X030276D01*
X030275Y044342D01*
X030272Y044376D01*
X030267Y044406D01*
X03026Y044432D01*
X030251Y044453D01*
X03024Y044471D01*
X030228Y044485D01*
X030213Y044495D01*
X030196Y044501D01*
X030177Y044503D01*
X030571D01*
X030552Y044501D01*
D02*
G37*
G36*
X032937Y0401D02*
X032956Y039815D01*
X032962Y039784D01*
X032972Y039767D01*
X032985Y039753D01*
X033Y039743D01*
X033016Y039737D01*
X033035Y039735D01*
X032972D01*
X032975Y03972D01*
X032987Y039685D01*
X033Y039657D01*
X033015Y039638D01*
X032661D01*
X032676Y039657D01*
X03269Y039685D01*
X032701Y03972D01*
X032705Y039735D01*
X032641D01*
X03266Y039737D01*
X032677Y039743D01*
X032692Y039753D01*
X032704Y039767D01*
X032715Y039784D01*
X03272Y039815D01*
X032733Y039942D01*
X032739Y0401D01*
X03274Y040191D01*
X032937D01*
X032937Y0401D01*
D02*
G37*
G36*
X032149Y045208D02*
X032152Y045174D01*
X032157Y045144D01*
X032164Y045119D01*
X032173Y045097D01*
X032184Y045079D01*
X032197Y045065D01*
X032211Y045055D01*
X032228Y045049D01*
X032247Y045047D01*
X03186Y045048D01*
X031877Y04505D01*
X031893Y045056D01*
X031907Y045066D01*
X031918Y04508D01*
X031929Y045098D01*
X031937Y045119D01*
X031943Y045145D01*
X031948Y045174D01*
X031951Y045208D01*
X031952Y045245D01*
X032148D01*
X032149Y045208D01*
D02*
G37*
G36*
X031116Y036408D02*
X031122Y036406D01*
X03113Y036404D01*
X03114Y036403D01*
X031167Y0364D01*
X031225Y036399D01*
X031249Y036398D01*
Y036202D01*
X031225Y036201D01*
X03113Y036196D01*
X031122Y036194D01*
X031116Y036192D01*
X031112Y03619D01*
Y03641D01*
X031116Y036408D01*
D02*
G37*
G36*
X032315Y040857D02*
X032144Y040718D01*
X032143Y040723D01*
X032141Y040729D01*
X032137Y040736D01*
X032131Y040745D01*
X032123Y040755D01*
X032103Y04078D01*
X032058Y040826D01*
X032216Y040946D01*
X032315Y040857D01*
D02*
G37*
G36*
X030498Y035393D02*
X030494Y035392D01*
X030489Y035389D01*
X030482Y035385D01*
X030474Y035379D01*
X030453Y035361D01*
X030411Y035321D01*
X030394Y035304D01*
X030254Y035444D01*
X030271Y035461D01*
X030335Y035532D01*
X030339Y035539D01*
X030342Y035544D01*
X030343Y035548D01*
X030498Y035393D01*
D02*
G37*
G36*
X031498Y046304D02*
X031465Y046242D01*
X031429Y046123D01*
X031417Y046D01*
X031429Y045877D01*
X031465Y045758D01*
X031474Y045741D01*
Y045524D01*
X029666D01*
Y045497D01*
X028513D01*
Y045124D01*
X028137D01*
Y044799D01*
X028473D01*
Y044699D01*
X028137D01*
Y044373D01*
X028513D01*
Y044001D01*
X029101D01*
Y043391D01*
X028824D01*
Y043486D01*
X028452D01*
Y043862D01*
X028126D01*
Y043526D01*
X028026D01*
Y043862D01*
X0277D01*
Y043486D01*
X027328D01*
Y043152D01*
X027278Y043134D01*
X027213Y043213D01*
X026339Y044087D01*
X026229Y044178D01*
X026104Y044245D01*
X026085Y04425D01*
Y044617D01*
X024593D01*
X024588Y044618D01*
X024541Y044621D01*
X024516Y044625D01*
X024489Y044631D01*
X024458Y044642D01*
X024424Y044658D01*
X024385Y044679D01*
X024342Y044707D01*
X024296Y044742D01*
X024246Y044784D01*
X024184Y044843D01*
X024182Y044844D01*
X024166Y044861D01*
X024183Y044911D01*
X024419D01*
Y045542D01*
X024469D01*
Y045592D01*
X024884D01*
Y045924D01*
X025591D01*
X025608Y045915D01*
X025727Y045879D01*
X02585Y045867D01*
X025973Y045879D01*
X026092Y045915D01*
X026202Y045974D01*
X026298Y046052D01*
X026376Y046148D01*
X026435Y046258D01*
X026464Y046354D01*
X031468D01*
X031498Y046304D01*
D02*
G37*
G36*
X025738Y04639D02*
X025734Y046392D01*
X025728Y046394D01*
X02572Y046396D01*
X02571Y046397D01*
X025683Y0464D01*
X025625Y046401D01*
X025601Y046402D01*
Y046598D01*
X025625Y046599D01*
X02572Y046604D01*
X025728Y046606D01*
X025734Y046608D01*
X025738Y04661D01*
Y04639D01*
D02*
G37*
G36*
X031046Y042962D02*
X031074Y042949D01*
X031109Y042937D01*
X031153Y042927D01*
X031204Y042918D01*
X031284Y04291D01*
X031284Y04291D01*
X03129Y042913D01*
X031292Y042917D01*
Y042909D01*
X031331Y042905D01*
X031489Y042899D01*
X03158Y042898D01*
Y042702D01*
X031489Y042701D01*
X031292Y042688D01*
Y042683D01*
X03129Y042687D01*
X031288Y042688D01*
X031204Y042682D01*
X031153Y042673D01*
X031109Y042663D01*
X031074Y042651D01*
X031046Y042638D01*
X031027Y042623D01*
Y042977D01*
X031046Y042962D01*
D02*
G37*
G36*
X032158Y045884D02*
X032156Y045878D01*
X032154Y04587D01*
X032153Y04586D01*
X03215Y045833D01*
X032149Y045775D01*
X032148Y045751D01*
X031952D01*
X031951Y045775D01*
X031946Y04587D01*
X031944Y045878D01*
X031942Y045884D01*
X03194Y045888D01*
X03216D01*
X032158Y045884D01*
D02*
G37*
G36*
X022529Y045989D02*
X022465Y045924D01*
X022386Y045834D01*
X022395Y04583D01*
X02246Y045814D01*
X022535Y045802D01*
X02262Y045795D01*
X022632Y045794D01*
X022648Y045795D01*
X022734Y045802D01*
X022809Y045815D01*
X022874Y045832D01*
X022929Y045855D01*
X022974Y045882D01*
X023009Y045915D01*
X023034Y045952D01*
X023049Y045995D01*
X023054Y046042D01*
Y045042D01*
X023049Y04509D01*
X023034Y045132D01*
X023009Y04517D01*
X022974Y045202D01*
X022929Y04523D01*
X022874Y045252D01*
X022809Y04527D01*
X022734Y045282D01*
X022648Y04529D01*
X022634Y04529D01*
X02262Y04529D01*
X022535Y045282D01*
X022459Y04527D01*
X022394Y045252D01*
X022339Y04523D01*
X022294Y045202D01*
X022259Y04517D01*
X022234Y045132D01*
X022219Y04509D01*
X022214Y045042D01*
X022214Y045547D01*
X022214Y045535D01*
X022214Y04561D01*
X022207Y045595D01*
X022197Y045566D01*
X022193Y045542D01*
X022075Y04566D01*
X021709D01*
X021727Y045685D01*
X021743Y045714D01*
X021757Y045747D01*
X021769Y045784D01*
X021779Y045826D01*
X021788Y045872D01*
X021799Y045977D01*
X021802Y046036D01*
X021803Y046099D01*
X022D01*
X022001Y046036D01*
X022015Y045872D01*
X022023Y045826D01*
X022025Y04582D01*
X02203Y045822D01*
X022068Y045846D01*
X02211Y045876D01*
X022209Y045957D01*
X022215Y045962D01*
X022215Y04603D01*
X02223Y046031D01*
X022245Y046033D01*
X02226Y046036D01*
X022274Y04604D01*
X022288Y046046D01*
X022302Y046053D01*
X022316Y046061D01*
X022329Y04607D01*
X022341Y04608D01*
X02239Y046128D01*
X022529Y045989D01*
D02*
G37*
G36*
X03011Y042413D02*
X030114Y04241D01*
X030121Y042407D01*
X030131Y042405D01*
X030144Y042403D01*
X030178Y0424D01*
X030223Y042399D01*
X03025Y042398D01*
Y042202D01*
X030223Y042201D01*
X030131Y042195D01*
X030121Y042193D01*
X030114Y04219D01*
X03011Y042187D01*
X030108Y042183D01*
Y042417D01*
X03011Y042413D01*
D02*
G37*
G36*
X023668Y045008D02*
X023658Y044997D01*
X023648Y044978D01*
X02364Y044951D01*
X023633Y044917D01*
X023627Y044876D01*
X023619Y044769D01*
X023617Y044633D01*
X023117D01*
X023116Y044705D01*
X023101Y044917D01*
X023094Y044951D01*
X023086Y044978D01*
X023076Y044997D01*
X023065Y045008D01*
X023053Y045012D01*
X023681D01*
X023668Y045008D01*
D02*
G37*
G36*
X028259Y042542D02*
X028243Y042536D01*
X028228Y042526D01*
X028215Y042512D01*
X028204Y042494D01*
X028196Y042473D01*
X028189Y042447D01*
X028184Y042417D01*
X028181Y042383D01*
X02818Y042346D01*
X027983D01*
X027982Y042383D01*
X027979Y042417D01*
X027974Y042447D01*
X027967Y042473D01*
X027958Y042494D01*
X027947Y042512D01*
X027935Y042526D01*
X02792Y042536D01*
X027903Y042542D01*
X027884Y042544D01*
X028278D01*
X028259Y042542D01*
D02*
G37*
G36*
X022203Y044965D02*
X022192Y044951D01*
X022182Y044927D01*
X022174Y044893D01*
X022167Y04485D01*
X022161Y044798D01*
X022152Y044583D01*
X022151Y044492D01*
X021651D01*
X021878Y044115D01*
X02181Y044045D01*
X021697Y04391D01*
X021651Y043846D01*
X021612Y043783D01*
X021581Y043722D01*
X021556Y043663D01*
X021538Y043606D01*
X021528Y043551D01*
X021524Y043497D01*
X021521Y043492D01*
X021519Y043478D01*
X021517Y043455D01*
X021512Y043331D01*
X021509Y043036D01*
X021009D01*
X020995Y043497D01*
X021524D01*
X020995Y044203D01*
X021049Y044207D01*
X021104Y044217D01*
X021161Y044235D01*
X021221Y04426D01*
X021281Y044292D01*
X021344Y04433D01*
X021409Y044376D01*
X021475Y044429D01*
X021613Y044557D01*
X021651Y044492D01*
X021651Y044583D01*
X021628Y044893D01*
X02162Y044927D01*
X02161Y044951D01*
X0216Y044965D01*
X021587Y04497D01*
X022215D01*
X022203Y044965D01*
D02*
G37*
G36*
X029446Y044775D02*
X029442Y044756D01*
X029443Y044734D01*
X029449Y04471D01*
X029461Y044683D01*
X029477Y044654D01*
X029499Y044623D01*
X029526Y044589D01*
X029558Y044552D01*
X029595Y044514D01*
X029496Y044335D01*
X029453Y044376D01*
X029379Y04444D01*
X029346Y044463D01*
X029316Y04448D01*
X02929Y044491D01*
X029267Y044496D01*
X029247Y044495D01*
X029231Y044488D01*
X029217Y044475D01*
X029455Y044792D01*
X029446Y044775D01*
D02*
G37*
G36*
X032962Y035689D02*
X032967Y035673D01*
X032977Y035658D01*
X032991Y035645D01*
X033009Y035634D01*
X033031Y035626D01*
X033057Y035619D01*
X033086Y035614D01*
X03312Y035611D01*
X033158Y03561D01*
Y035413D01*
X03312Y035412D01*
X033086Y035409D01*
X033057Y035404D01*
X033031Y035397D01*
X033009Y035388D01*
X032991Y035377D01*
X032977Y035365D01*
X032967Y03535D01*
X032962Y035333D01*
X03296Y035314D01*
Y035708D01*
X032962Y035689D01*
D02*
G37*
G36*
X021352Y042285D02*
X021374Y04196D01*
X021382Y041925D01*
X021392Y0419D01*
X021403Y041885D01*
X021415Y04188D01*
X020787D01*
X0208Y041885D01*
X02081Y0419D01*
X02082Y041925D01*
X020828Y04196D01*
X020835Y042005D01*
X020845Y042125D01*
X020851Y042285D01*
X020851Y04238D01*
X021351D01*
X021352Y042285D01*
D02*
G37*
G36*
X028356Y040829D02*
X028361Y040818D01*
X02837Y040807D01*
X028382Y040798D01*
X028397Y04079D01*
X028416Y040784D01*
X028438Y040779D01*
X028463Y040775D01*
X028492Y040773D01*
X028524Y040773D01*
Y040576D01*
X028492Y040575D01*
X028438Y04057D01*
X028416Y040565D01*
X028397Y040558D01*
X028382Y040551D01*
X02837Y040541D01*
X028361Y040531D01*
X028356Y040519D01*
X028355Y040506D01*
Y040843D01*
X028356Y040829D01*
D02*
G37*
G36*
X030474Y03986D02*
X030477Y039826D01*
X030482Y039797D01*
X030488Y039771D01*
X030497Y03975D01*
X030508Y039732D01*
X030521Y039718D01*
X030536Y039708D01*
X030552Y039702D01*
X030571Y0397D01*
X030177D01*
X030196Y039702D01*
X030213Y039708D01*
X030228Y039718D01*
X03024Y039732D01*
X030251Y03975D01*
X03026Y039771D01*
X030267Y039797D01*
X030272Y039826D01*
X030275Y03986D01*
X030276Y039897D01*
X030473D01*
X030474Y03986D01*
D02*
G37*
G36*
X029776Y043076D02*
X029779Y043042D01*
X029784Y043013D01*
X029791Y042987D01*
X029799Y042965D01*
X02981Y042947D01*
X029823Y042934D01*
X029838Y042924D01*
X029855Y042918D01*
X029873Y042916D01*
X02948D01*
X029498Y042918D01*
X029515Y042924D01*
X02953Y042934D01*
X029543Y042947D01*
X029553Y042965D01*
X029562Y042987D01*
X029569Y043013D01*
X029574Y043042D01*
X029577Y043076D01*
X029578Y043114D01*
X029775D01*
X029776Y043076D01*
D02*
G37*
%LPC*%
G36*
X02215Y029442D02*
Y0293D01*
X022292D01*
X022287Y029327D01*
X022243Y029393D01*
X022177Y029437D01*
X02215Y029442D01*
D02*
G37*
G36*
X02205D02*
X022023Y029437D01*
X021957Y029393D01*
X021913Y029327D01*
X021908Y0293D01*
X02205D01*
Y029442D01*
D02*
G37*
G36*
X02275D02*
Y0293D01*
X022892D01*
X022887Y029327D01*
X022843Y029393D01*
X022777Y029437D01*
X02275Y029442D01*
D02*
G37*
G36*
X02265D02*
X022623Y029437D01*
X022557Y029393D01*
X022513Y029327D01*
X022508Y0293D01*
X02265D01*
Y029442D01*
D02*
G37*
G36*
X022892Y0292D02*
X02275D01*
Y029058D01*
X022777Y029063D01*
X022843Y029107D01*
X022887Y029173D01*
X022892Y0292D01*
D02*
G37*
G36*
X02265D02*
X022508D01*
X022513Y029173D01*
X022557Y029107D01*
X022623Y029063D01*
X02265Y029058D01*
Y0292D01*
D02*
G37*
G36*
X022292D02*
X02215D01*
Y029058D01*
X022177Y029063D01*
X022243Y029107D01*
X022287Y029173D01*
X022292Y0292D01*
D02*
G37*
G36*
X02205D02*
X021908D01*
X021913Y029173D01*
X021957Y029107D01*
X022023Y029063D01*
X02205Y029058D01*
Y0292D01*
D02*
G37*
G36*
X026535Y028342D02*
X026288D01*
Y028174D01*
X026535D01*
Y028342D01*
D02*
G37*
G36*
X013336Y025934D02*
X013193D01*
X013199Y025907D01*
X013243Y025841D01*
X013308Y025797D01*
X013336Y025792D01*
Y025934D01*
D02*
G37*
G36*
X012548D02*
X012406D01*
X012412Y025907D01*
X012455Y025841D01*
X012521Y025797D01*
X012548Y025792D01*
Y025934D01*
D02*
G37*
G36*
X012791D02*
X012648D01*
Y025792D01*
X012676Y025797D01*
X012741Y025841D01*
X012785Y025907D01*
X012791Y025934D01*
D02*
G37*
G36*
X035625D02*
X035483D01*
Y025792D01*
X035511Y025797D01*
X035576Y025841D01*
X03562Y025907D01*
X035625Y025934D01*
D02*
G37*
G36*
X035383D02*
X035241D01*
X035246Y025907D01*
X03529Y025841D01*
X035356Y025797D01*
X035383Y025792D01*
Y025934D01*
D02*
G37*
G36*
X036413D02*
X03627D01*
Y025792D01*
X036298Y025797D01*
X036364Y025841D01*
X036407Y025907D01*
X036413Y025934D01*
D02*
G37*
G36*
X03617D02*
X036028D01*
X036034Y025907D01*
X036077Y025841D01*
X036143Y025797D01*
X03617Y025792D01*
Y025934D01*
D02*
G37*
G36*
X034838D02*
X034696D01*
Y025792D01*
X034723Y025797D01*
X034789Y025841D01*
X034833Y025907D01*
X034838Y025934D01*
D02*
G37*
G36*
X014123D02*
X013981D01*
X013986Y025907D01*
X01403Y025841D01*
X014096Y025797D01*
X014123Y025792D01*
Y025934D01*
D02*
G37*
G36*
X013578D02*
X013436D01*
Y025792D01*
X013463Y025797D01*
X013529Y025841D01*
X013573Y025907D01*
X013578Y025934D01*
D02*
G37*
G36*
X034596D02*
X034453D01*
X034459Y025907D01*
X034503Y025841D01*
X034568Y025797D01*
X034596Y025792D01*
Y025934D01*
D02*
G37*
G36*
X014366D02*
X014223D01*
Y025792D01*
X014251Y025797D01*
X014316Y025841D01*
X01436Y025907D01*
X014366Y025934D01*
D02*
G37*
G36*
X012003D02*
X011861D01*
Y025792D01*
X011888Y025797D01*
X011954Y025841D01*
X011998Y025907D01*
X012003Y025934D01*
D02*
G37*
G36*
X035777Y025147D02*
X035634D01*
X03564Y025119D01*
X035684Y025054D01*
X035749Y02501D01*
X035777Y025004D01*
Y025147D01*
D02*
G37*
G36*
X035232D02*
X035089D01*
Y025004D01*
X035117Y02501D01*
X035182Y025054D01*
X035226Y025119D01*
X035232Y025147D01*
D02*
G37*
G36*
X036019D02*
X035877D01*
Y025004D01*
X035904Y02501D01*
X03597Y025054D01*
X036014Y025119D01*
X036019Y025147D01*
D02*
G37*
G36*
X036807D02*
X036664D01*
Y025004D01*
X036692Y02501D01*
X036757Y025054D01*
X036801Y025119D01*
X036807Y025147D01*
D02*
G37*
G36*
X036564D02*
X036422D01*
X036427Y025119D01*
X036471Y025054D01*
X036537Y02501D01*
X036564Y025004D01*
Y025147D01*
D02*
G37*
G36*
X034989D02*
X034847D01*
X034852Y025119D01*
X034896Y025054D01*
X034962Y02501D01*
X034989Y025004D01*
Y025147D01*
D02*
G37*
G36*
X037058Y024602D02*
Y024459D01*
X0372D01*
X037195Y024487D01*
X037151Y024553D01*
X037085Y024596D01*
X037058Y024602D01*
D02*
G37*
G36*
X036958D02*
X03693Y024596D01*
X036865Y024553D01*
X036821Y024487D01*
X036816Y024459D01*
X036958D01*
Y024602D01*
D02*
G37*
G36*
X037745D02*
X037718Y024596D01*
X037652Y024553D01*
X037608Y024487D01*
X037603Y024459D01*
X037745D01*
Y024602D01*
D02*
G37*
G36*
X037845D02*
Y024459D01*
X037988D01*
X037982Y024487D01*
X037938Y024553D01*
X037873Y024596D01*
X037845Y024602D01*
D02*
G37*
G36*
X036664Y025389D02*
Y025247D01*
X036807D01*
X036801Y025274D01*
X036757Y02534D01*
X036692Y025384D01*
X036664Y025389D01*
D02*
G37*
G36*
X036564D02*
X036537Y025384D01*
X036471Y02534D01*
X036427Y025274D01*
X036422Y025247D01*
X036564D01*
Y025389D01*
D02*
G37*
G36*
X037352D02*
X037324Y025384D01*
X037259Y02534D01*
X037215Y025274D01*
X037209Y025247D01*
X037352D01*
Y025389D01*
D02*
G37*
G36*
X011761Y025934D02*
X011619D01*
X011624Y025907D01*
X011668Y025841D01*
X011734Y025797D01*
X011761Y025792D01*
Y025934D01*
D02*
G37*
G36*
X037452Y025389D02*
Y025247D01*
X037594D01*
X037589Y025274D01*
X037545Y02534D01*
X037479Y025384D01*
X037452Y025389D01*
D02*
G37*
G36*
X035877D02*
Y025247D01*
X036019D01*
X036014Y025274D01*
X03597Y02534D01*
X035904Y025384D01*
X035877Y025389D01*
D02*
G37*
G36*
X037594Y025147D02*
X037452D01*
Y025004D01*
X037479Y02501D01*
X037545Y025054D01*
X037589Y025119D01*
X037594Y025147D01*
D02*
G37*
G36*
X037352D02*
X037209D01*
X037215Y025119D01*
X037259Y025054D01*
X037324Y02501D01*
X037352Y025004D01*
Y025147D01*
D02*
G37*
G36*
X034989Y025389D02*
X034962Y025384D01*
X034896Y02534D01*
X034852Y025274D01*
X034847Y025247D01*
X034989D01*
Y025389D01*
D02*
G37*
G36*
X035777D02*
X035749Y025384D01*
X035684Y02534D01*
X03564Y025274D01*
X035634Y025247D01*
X035777D01*
Y025389D01*
D02*
G37*
G36*
X035089D02*
Y025247D01*
X035232D01*
X035226Y025274D01*
X035182Y02534D01*
X035117Y025384D01*
X035089Y025389D01*
D02*
G37*
G36*
X036807Y026722D02*
X036664D01*
Y026579D01*
X036692Y026585D01*
X036757Y026629D01*
X036801Y026694D01*
X036807Y026722D01*
D02*
G37*
G36*
X036564D02*
X036422D01*
X036427Y026694D01*
X036471Y026629D01*
X036537Y026585D01*
X036564Y026579D01*
Y026722D01*
D02*
G37*
G36*
X036019D02*
X035877D01*
Y026579D01*
X035904Y026585D01*
X03597Y026629D01*
X036014Y026694D01*
X036019Y026722D01*
D02*
G37*
G36*
X02715Y02675D02*
X027008D01*
X027013Y026723D01*
X027057Y026657D01*
X027123Y026613D01*
X02715Y026608D01*
Y02675D01*
D02*
G37*
G36*
X037594Y026722D02*
X037452D01*
Y026579D01*
X037479Y026585D01*
X037545Y026629D01*
X037589Y026694D01*
X037594Y026722D01*
D02*
G37*
G36*
X037352D02*
X037209D01*
X037215Y026694D01*
X037259Y026629D01*
X037324Y026585D01*
X037352Y026579D01*
Y026722D01*
D02*
G37*
G36*
X035777D02*
X035634D01*
X03564Y026694D01*
X035684Y026629D01*
X035749Y026585D01*
X035777Y026579D01*
Y026722D01*
D02*
G37*
G36*
X035232D02*
X035089D01*
Y026579D01*
X035117Y026585D01*
X035182Y026629D01*
X035226Y026694D01*
X035232Y026722D01*
D02*
G37*
G36*
X034989D02*
X034847D01*
X034852Y026694D01*
X034896Y026629D01*
X034962Y026585D01*
X034989Y026579D01*
Y026722D01*
D02*
G37*
G36*
X027392Y02675D02*
X02725D01*
Y026608D01*
X027277Y026613D01*
X027343Y026657D01*
X027387Y026723D01*
X027392Y02675D01*
D02*
G37*
G36*
X037452Y026964D02*
Y026822D01*
X037594D01*
X037589Y026849D01*
X037545Y026915D01*
X037479Y026959D01*
X037452Y026964D01*
D02*
G37*
G36*
X037352D02*
X037324Y026959D01*
X037259Y026915D01*
X037215Y026849D01*
X037209Y026822D01*
X037352D01*
Y026964D01*
D02*
G37*
G36*
X036664D02*
Y026822D01*
X036807D01*
X036801Y026849D01*
X036757Y026915D01*
X036692Y026959D01*
X036664Y026964D01*
D02*
G37*
G36*
X02725Y026992D02*
Y02685D01*
X027392D01*
X027387Y026877D01*
X027343Y026943D01*
X027277Y026987D01*
X02725Y026992D01*
D02*
G37*
G36*
X02715D02*
X027123Y026987D01*
X027057Y026943D01*
X027013Y026877D01*
X027008Y02685D01*
X02715D01*
Y026992D01*
D02*
G37*
G36*
X035089Y026964D02*
Y026822D01*
X035232D01*
X035226Y026849D01*
X035182Y026915D01*
X035117Y026959D01*
X035089Y026964D01*
D02*
G37*
G36*
X034989D02*
X034962Y026959D01*
X034896Y026915D01*
X034852Y026849D01*
X034847Y026822D01*
X034989D01*
Y026964D01*
D02*
G37*
G36*
X036564D02*
X036537Y026959D01*
X036471Y026915D01*
X036427Y026849D01*
X036422Y026822D01*
X036564D01*
Y026964D01*
D02*
G37*
G36*
X035877D02*
Y026822D01*
X036019D01*
X036014Y026849D01*
X03597Y026915D01*
X035904Y026959D01*
X035877Y026964D01*
D02*
G37*
G36*
X035777D02*
X035749Y026959D01*
X035684Y026915D01*
X03564Y026849D01*
X035634Y026822D01*
X035777D01*
Y026964D01*
D02*
G37*
G36*
X013336Y026177D02*
X013308Y026171D01*
X013243Y026127D01*
X013199Y026062D01*
X013193Y026034D01*
X013336D01*
Y026177D01*
D02*
G37*
G36*
X012648D02*
Y026034D01*
X012791D01*
X012785Y026062D01*
X012741Y026127D01*
X012676Y026171D01*
X012648Y026177D01*
D02*
G37*
G36*
X012548D02*
X012521Y026171D01*
X012455Y026127D01*
X012412Y026062D01*
X012406Y026034D01*
X012548D01*
Y026177D01*
D02*
G37*
G36*
X014223D02*
Y026034D01*
X014366D01*
X01436Y026062D01*
X014316Y026127D01*
X014251Y026171D01*
X014223Y026177D01*
D02*
G37*
G36*
X014123D02*
X014096Y026171D01*
X01403Y026127D01*
X013986Y026062D01*
X013981Y026034D01*
X014123D01*
Y026177D01*
D02*
G37*
G36*
X013436D02*
Y026034D01*
X013578D01*
X013573Y026062D01*
X013529Y026127D01*
X013463Y026171D01*
X013436Y026177D01*
D02*
G37*
G36*
X037745Y025934D02*
X037603D01*
X037608Y025907D01*
X037652Y025841D01*
X037718Y025797D01*
X037745Y025792D01*
Y025934D01*
D02*
G37*
G36*
X0372D02*
X037058D01*
Y025792D01*
X037085Y025797D01*
X037151Y025841D01*
X037195Y025907D01*
X0372Y025934D01*
D02*
G37*
G36*
X036958D02*
X036816D01*
X036821Y025907D01*
X036865Y025841D01*
X03693Y025797D01*
X036958Y025792D01*
Y025934D01*
D02*
G37*
G36*
X011861Y026177D02*
Y026034D01*
X012003D01*
X011998Y026062D01*
X011954Y026127D01*
X011888Y026171D01*
X011861Y026177D01*
D02*
G37*
G36*
X011761D02*
X011734Y026171D01*
X011668Y026127D01*
X011624Y026062D01*
X011619Y026034D01*
X011761D01*
Y026177D01*
D02*
G37*
G36*
X037988Y025934D02*
X037845D01*
Y025792D01*
X037873Y025797D01*
X037938Y025841D01*
X037982Y025907D01*
X037988Y025934D01*
D02*
G37*
G36*
X034596Y026177D02*
X034568Y026171D01*
X034503Y026127D01*
X034459Y026062D01*
X034453Y026034D01*
X034596D01*
Y026177D01*
D02*
G37*
G36*
X037845D02*
Y026034D01*
X037988D01*
X037982Y026062D01*
X037938Y026127D01*
X037873Y026171D01*
X037845Y026177D01*
D02*
G37*
G36*
X037745D02*
X037718Y026171D01*
X037652Y026127D01*
X037608Y026062D01*
X037603Y026034D01*
X037745D01*
Y026177D01*
D02*
G37*
G36*
X037058D02*
Y026034D01*
X0372D01*
X037195Y026062D01*
X037151Y026127D01*
X037085Y026171D01*
X037058Y026177D01*
D02*
G37*
G36*
X035483D02*
Y026034D01*
X035625D01*
X03562Y026062D01*
X035576Y026127D01*
X035511Y026171D01*
X035483Y026177D01*
D02*
G37*
G36*
X035383D02*
X035356Y026171D01*
X03529Y026127D01*
X035246Y026062D01*
X035241Y026034D01*
X035383D01*
Y026177D01*
D02*
G37*
G36*
X034696D02*
Y026034D01*
X034838D01*
X034833Y026062D01*
X034789Y026127D01*
X034723Y026171D01*
X034696Y026177D01*
D02*
G37*
G36*
X036958D02*
X03693Y026171D01*
X036865Y026127D01*
X036821Y026062D01*
X036816Y026034D01*
X036958D01*
Y026177D01*
D02*
G37*
G36*
X03627D02*
Y026034D01*
X036413D01*
X036407Y026062D01*
X036364Y026127D01*
X036298Y026171D01*
X03627Y026177D01*
D02*
G37*
G36*
X03617D02*
X036143Y026171D01*
X036077Y026127D01*
X036034Y026062D01*
X036028Y026034D01*
X03617D01*
Y026177D01*
D02*
G37*
G36*
X020749Y04545D02*
X020384D01*
Y044868D01*
X020749D01*
Y04545D01*
D02*
G37*
G36*
X01475Y015849D02*
X014168D01*
Y015484D01*
X01475D01*
Y015849D01*
D02*
G37*
G36*
X019891Y0438D02*
X019575D01*
Y043396D01*
X019891D01*
Y0438D01*
D02*
G37*
G36*
Y044304D02*
X019575D01*
Y0439D01*
X019891D01*
Y044304D01*
D02*
G37*
G36*
X020306D02*
X019991D01*
Y0439D01*
X020306D01*
Y044304D01*
D02*
G37*
G36*
X019949Y041982D02*
X019584D01*
Y0414D01*
X019949D01*
Y041982D01*
D02*
G37*
G36*
X037988Y024359D02*
X037845D01*
Y024217D01*
X037873Y024223D01*
X037938Y024266D01*
X037982Y024332D01*
X037988Y024359D01*
D02*
G37*
G36*
X036413D02*
X03627D01*
Y024217D01*
X036298Y024223D01*
X036364Y024266D01*
X036407Y024332D01*
X036413Y024359D01*
D02*
G37*
G36*
X03617D02*
X036028D01*
X036034Y024332D01*
X036077Y024266D01*
X036143Y024223D01*
X03617Y024217D01*
Y024359D01*
D02*
G37*
G36*
X036958D02*
X036816D01*
X036821Y024332D01*
X036865Y024266D01*
X03693Y024223D01*
X036958Y024217D01*
Y024359D01*
D02*
G37*
G36*
X037745D02*
X037603D01*
X037608Y024332D01*
X037652Y024266D01*
X037718Y024223D01*
X037745Y024217D01*
Y024359D01*
D02*
G37*
G36*
X0372D02*
X037058D01*
Y024217D01*
X037085Y024223D01*
X037151Y024266D01*
X037195Y024332D01*
X0372Y024359D01*
D02*
G37*
G36*
X035383Y024602D02*
X035356Y024596D01*
X03529Y024553D01*
X035246Y024487D01*
X035241Y024459D01*
X035383D01*
Y024602D01*
D02*
G37*
G36*
X034696D02*
Y024459D01*
X034838D01*
X034833Y024487D01*
X034789Y024553D01*
X034723Y024596D01*
X034696Y024602D01*
D02*
G37*
G36*
X035483D02*
Y024459D01*
X035625D01*
X03562Y024487D01*
X035576Y024553D01*
X035511Y024596D01*
X035483Y024602D01*
D02*
G37*
G36*
X03627D02*
Y024459D01*
X036413D01*
X036407Y024487D01*
X036364Y024553D01*
X036298Y024596D01*
X03627Y024602D01*
D02*
G37*
G36*
X03617D02*
X036143Y024596D01*
X036077Y024553D01*
X036034Y024487D01*
X036028Y024459D01*
X03617D01*
Y024602D01*
D02*
G37*
G36*
X034596D02*
X034568Y024596D01*
X034503Y024553D01*
X034459Y024487D01*
X034453Y024459D01*
X034596D01*
Y024602D01*
D02*
G37*
G36*
Y024359D02*
X034453D01*
X034459Y024332D01*
X034503Y024266D01*
X034568Y024223D01*
X034596Y024217D01*
Y024359D01*
D02*
G37*
G36*
X034838D02*
X034696D01*
Y024217D01*
X034723Y024223D01*
X034789Y024266D01*
X034833Y024332D01*
X034838Y024359D01*
D02*
G37*
G36*
X035625D02*
X035483D01*
Y024217D01*
X035511Y024223D01*
X035576Y024266D01*
X03562Y024332D01*
X035625Y024359D01*
D02*
G37*
G36*
X035383D02*
X035241D01*
X035246Y024332D01*
X03529Y024266D01*
X035356Y024223D01*
X035383Y024217D01*
Y024359D01*
D02*
G37*
G36*
X015499Y036546D02*
Y036404D01*
X015641D01*
X015636Y036431D01*
X015592Y036497D01*
X015526Y036541D01*
X015499Y036546D01*
D02*
G37*
G36*
X0137Y036971D02*
X013601Y036958D01*
X013461Y0369D01*
X013342Y036808D01*
X01325Y036689D01*
X013192Y036549D01*
X013179Y03645D01*
X0137D01*
Y036971D01*
D02*
G37*
G36*
X0138D02*
Y03645D01*
X014321D01*
X014308Y036549D01*
X01425Y036689D01*
X014158Y036808D01*
X014039Y0369D01*
X013899Y036958D01*
X0138Y036971D01*
D02*
G37*
G36*
X022251Y036654D02*
X021867D01*
Y036328D01*
X022251D01*
Y036654D01*
D02*
G37*
G36*
X015863Y036531D02*
X015836Y036525D01*
X01577Y036482D01*
X015726Y036416D01*
X015721Y036389D01*
X015863D01*
Y036531D01*
D02*
G37*
G36*
X015963D02*
Y036389D01*
X016105D01*
X0161Y036416D01*
X016056Y036482D01*
X01599Y036525D01*
X015963Y036531D01*
D02*
G37*
G36*
X026724Y036718D02*
X026418D01*
Y03658D01*
X026724D01*
Y036718D01*
D02*
G37*
G36*
X021767Y037079D02*
X021382D01*
Y036754D01*
X021767D01*
Y037079D01*
D02*
G37*
G36*
X022251D02*
X021867D01*
Y036754D01*
X022251D01*
Y037079D01*
D02*
G37*
G36*
X02553Y036718D02*
X025224D01*
Y03658D01*
X02553D01*
Y036718D01*
D02*
G37*
G36*
X025936D02*
X02563D01*
Y03658D01*
X025936D01*
Y036718D01*
D02*
G37*
G36*
X026318D02*
X026012D01*
Y03658D01*
X026318D01*
Y036718D01*
D02*
G37*
G36*
X022675Y033879D02*
X021415D01*
Y032721D01*
X022675D01*
Y033879D01*
D02*
G37*
G36*
X023572Y033263D02*
X023545Y033258D01*
X023479Y033214D01*
X023435Y033148D01*
X02343Y033121D01*
X023572D01*
Y033263D01*
D02*
G37*
G36*
X021767Y036654D02*
X021382D01*
Y036328D01*
X021767D01*
Y036654D01*
D02*
G37*
G36*
X025389Y033021D02*
X025247D01*
Y032879D01*
X025274Y032884D01*
X02534Y032928D01*
X025384Y032993D01*
X025389Y033021D01*
D02*
G37*
G36*
X024459Y033263D02*
Y033121D01*
X024602D01*
X024596Y033148D01*
X024553Y033214D01*
X024487Y033258D01*
X024459Y033263D01*
D02*
G37*
G36*
X024359D02*
X024332Y033258D01*
X024266Y033214D01*
X024223Y033148D01*
X024217Y033121D01*
X024359D01*
Y033263D01*
D02*
G37*
G36*
X023672D02*
Y033121D01*
X023814D01*
X023809Y033148D01*
X023765Y033214D01*
X023699Y033258D01*
X023672Y033263D01*
D02*
G37*
G36*
X023814Y033021D02*
X023672D01*
Y032879D01*
X023699Y032884D01*
X023765Y032928D01*
X023809Y032993D01*
X023814Y033021D01*
D02*
G37*
G36*
X023572D02*
X02343D01*
X023435Y032993D01*
X023479Y032928D01*
X023545Y032884D01*
X023572Y032879D01*
Y033021D01*
D02*
G37*
G36*
X020492Y033012D02*
X020324D01*
Y032765D01*
X020492D01*
Y033012D01*
D02*
G37*
G36*
X025147Y033021D02*
X025004D01*
X02501Y032993D01*
X025054Y032928D01*
X025119Y032884D01*
X025147Y032879D01*
Y033021D01*
D02*
G37*
G36*
X024602D02*
X024459D01*
Y032879D01*
X024487Y032884D01*
X024553Y032928D01*
X024596Y032993D01*
X024602Y033021D01*
D02*
G37*
G36*
X024359D02*
X024217D01*
X024223Y032993D01*
X024266Y032928D01*
X024332Y032884D01*
X024359Y032879D01*
Y033021D01*
D02*
G37*
G36*
X037352Y030114D02*
X037324Y030108D01*
X037259Y030064D01*
X037215Y029999D01*
X037209Y029971D01*
X037352D01*
Y030114D01*
D02*
G37*
G36*
X036664D02*
Y029971D01*
X036807D01*
X036801Y029999D01*
X036757Y030064D01*
X036692Y030108D01*
X036664Y030114D01*
D02*
G37*
G36*
X036564D02*
X036537Y030108D01*
X036471Y030064D01*
X036427Y029999D01*
X036422Y029971D01*
X036564D01*
Y030114D01*
D02*
G37*
G36*
X026535Y030542D02*
X026288D01*
Y030374D01*
X026535D01*
Y030542D01*
D02*
G37*
G36*
X037452Y030114D02*
Y029971D01*
X037594D01*
X037589Y029999D01*
X037545Y030064D01*
X037479Y030108D01*
X037452Y030114D01*
D02*
G37*
G36*
X034989D02*
X034962Y030108D01*
X034896Y030064D01*
X034852Y029999D01*
X034847Y029971D01*
X034989D01*
Y030114D01*
D02*
G37*
G36*
X037594Y029871D02*
X037452D01*
Y029729D01*
X037479Y029734D01*
X037545Y029778D01*
X037589Y029844D01*
X037594Y029871D01*
D02*
G37*
G36*
X037352D02*
X037209D01*
X037215Y029844D01*
X037259Y029778D01*
X037324Y029734D01*
X037352Y029729D01*
Y029871D01*
D02*
G37*
G36*
X035877Y030114D02*
Y029971D01*
X036019D01*
X036014Y029999D01*
X03597Y030064D01*
X035904Y030108D01*
X035877Y030114D01*
D02*
G37*
G36*
X035777D02*
X035749Y030108D01*
X035684Y030064D01*
X03564Y029999D01*
X035634Y029971D01*
X035777D01*
Y030114D01*
D02*
G37*
G36*
X035089D02*
Y029971D01*
X035232D01*
X035226Y029999D01*
X035182Y030064D01*
X035117Y030108D01*
X035089Y030114D01*
D02*
G37*
G36*
X025936Y036957D02*
X02563D01*
Y036818D01*
X025936D01*
Y036957D01*
D02*
G37*
G36*
X019949Y03965D02*
X019584D01*
Y039069D01*
X019949D01*
Y03965D01*
D02*
G37*
G36*
X02553Y036957D02*
X025224D01*
Y036818D01*
X02553D01*
Y036957D01*
D02*
G37*
G36*
X026318D02*
X026012D01*
Y036818D01*
X026318D01*
Y036957D01*
D02*
G37*
G36*
X026724D02*
X026418D01*
Y036818D01*
X026724D01*
Y036957D01*
D02*
G37*
G36*
X013662Y030876D02*
X013415D01*
Y030708D01*
X013662D01*
Y030876D01*
D02*
G37*
G36*
X023672Y034838D02*
Y034696D01*
X023814D01*
X023809Y034723D01*
X023765Y034789D01*
X023699Y034833D01*
X023672Y034838D01*
D02*
G37*
G36*
X023572D02*
X023545Y034833D01*
X023479Y034789D01*
X023435Y034723D01*
X02343Y034696D01*
X023572D01*
Y034838D01*
D02*
G37*
G36*
X015087Y034643D02*
X014944D01*
Y0345D01*
X014972Y034506D01*
X015037Y03455D01*
X015081Y034615D01*
X015087Y034643D01*
D02*
G37*
G36*
X025147Y034838D02*
X025119Y034833D01*
X025054Y034789D01*
X02501Y034723D01*
X025004Y034696D01*
X025147D01*
Y034838D01*
D02*
G37*
G36*
X024459D02*
Y034696D01*
X024602D01*
X024596Y034723D01*
X024553Y034789D01*
X024487Y034833D01*
X024459Y034838D01*
D02*
G37*
G36*
X024359D02*
X024332Y034833D01*
X024266Y034789D01*
X024223Y034723D01*
X024217Y034696D01*
X024359D01*
Y034838D01*
D02*
G37*
G36*
Y034596D02*
X024217D01*
X024223Y034568D01*
X024266Y034503D01*
X024332Y034459D01*
X024359Y034453D01*
Y034596D01*
D02*
G37*
G36*
X023814D02*
X023672D01*
Y034453D01*
X023699Y034459D01*
X023765Y034503D01*
X023809Y034568D01*
X023814Y034596D01*
D02*
G37*
G36*
X023572D02*
X02343D01*
X023435Y034568D01*
X023479Y034503D01*
X023545Y034459D01*
X023572Y034453D01*
Y034596D01*
D02*
G37*
G36*
X025389D02*
X025247D01*
Y034453D01*
X025274Y034459D01*
X02534Y034503D01*
X025384Y034568D01*
X025389Y034596D01*
D02*
G37*
G36*
X025147D02*
X025004D01*
X02501Y034568D01*
X025054Y034503D01*
X025119Y034459D01*
X025147Y034453D01*
Y034596D01*
D02*
G37*
G36*
X024602D02*
X024459D01*
Y034453D01*
X024487Y034459D01*
X024553Y034503D01*
X024596Y034568D01*
X024602Y034596D01*
D02*
G37*
G36*
X025247Y034838D02*
Y034696D01*
X025389D01*
X025384Y034723D01*
X02534Y034789D01*
X025274Y034833D01*
X025247Y034838D01*
D02*
G37*
G36*
X024753Y035383D02*
X024611D01*
X024616Y035356D01*
X02466Y03529D01*
X024726Y035246D01*
X024753Y035241D01*
Y035383D01*
D02*
G37*
G36*
X024208D02*
X024066D01*
Y035241D01*
X024093Y035246D01*
X024159Y03529D01*
X024203Y035356D01*
X024208Y035383D01*
D02*
G37*
G36*
X023966D02*
X023823D01*
X023829Y035356D01*
X023873Y03529D01*
X023938Y035246D01*
X023966Y035241D01*
Y035383D01*
D02*
G37*
G36*
X015952Y035389D02*
Y035246D01*
X016094D01*
X016089Y035274D01*
X016045Y035339D01*
X015979Y035383D01*
X015952Y035389D01*
D02*
G37*
G36*
X015852D02*
X015825Y035383D01*
X015759Y035339D01*
X015715Y035274D01*
X01571Y035246D01*
X015852D01*
Y035389D01*
D02*
G37*
G36*
X024996Y035383D02*
X024853D01*
Y035241D01*
X024881Y035246D01*
X024946Y03529D01*
X02499Y035356D01*
X024996Y035383D01*
D02*
G37*
G36*
X014944Y034885D02*
Y034743D01*
X015087D01*
X015081Y03477D01*
X015037Y034836D01*
X014972Y03488D01*
X014944Y034885D01*
D02*
G37*
G36*
X016075Y03485D02*
X015933D01*
Y034708D01*
X01596Y034713D01*
X016026Y034757D01*
X01607Y034823D01*
X016075Y03485D01*
D02*
G37*
G36*
X015833D02*
X01569D01*
X015696Y034823D01*
X01574Y034757D01*
X015805Y034713D01*
X015833Y034708D01*
Y03485D01*
D02*
G37*
G36*
X015366Y035292D02*
X015224D01*
Y03515D01*
X015251Y035155D01*
X015317Y035199D01*
X015361Y035265D01*
X015366Y035292D01*
D02*
G37*
G36*
X016094Y035146D02*
X01571D01*
X015715Y035119D01*
X015758Y035055D01*
X01574Y035043D01*
X015696Y034978D01*
X01569Y03495D01*
X016075D01*
X01607Y034978D01*
X016027Y035041D01*
X016045Y035053D01*
X016089Y035119D01*
X016094Y035146D01*
D02*
G37*
G36*
X014844Y034885D02*
X014817Y03488D01*
X014785Y034858D01*
X014746Y034838D01*
X014706Y034858D01*
X014675Y03488D01*
X014647Y034885D01*
Y034693D01*
Y0345D01*
X014675Y034506D01*
X014706Y034527D01*
X014746Y034547D01*
X014785Y034527D01*
X014817Y034506D01*
X014844Y0345D01*
Y034693D01*
Y034885D01*
D02*
G37*
G36*
X024753Y033808D02*
X024611D01*
X024616Y033781D01*
X02466Y033715D01*
X024726Y033671D01*
X024753Y033666D01*
Y033808D01*
D02*
G37*
G36*
X024208D02*
X024066D01*
Y033666D01*
X024093Y033671D01*
X024159Y033715D01*
X024203Y033781D01*
X024208Y033808D01*
D02*
G37*
G36*
X023966D02*
X023823D01*
X023829Y033781D01*
X023873Y033715D01*
X023938Y033671D01*
X023966Y033666D01*
Y033808D01*
D02*
G37*
G36*
X015399Y036546D02*
X015371Y036541D01*
X015306Y036497D01*
X015281Y036461D01*
X015262Y036431D01*
X015228Y036429D01*
Y036232D01*
X015178D01*
Y036182D01*
X014986D01*
X014991Y036154D01*
X015034Y03609D01*
X015018Y036079D01*
X014974Y036013D01*
X014968Y035986D01*
X015353D01*
X015348Y036013D01*
X015304Y036078D01*
X015321Y036089D01*
X015345Y036125D01*
X015365Y036154D01*
X015399Y036157D01*
Y036354D01*
Y036546D01*
D02*
G37*
G36*
X015863Y036289D02*
X015721D01*
X015726Y036261D01*
X01577Y036196D01*
X015836Y036152D01*
X015863Y036146D01*
Y036289D01*
D02*
G37*
G36*
X024996Y033808D02*
X024853D01*
Y033666D01*
X024881Y033671D01*
X024946Y033715D01*
X02499Y033781D01*
X024996Y033808D01*
D02*
G37*
G36*
X015128Y036424D02*
X015101Y036419D01*
X015035Y036375D01*
X014991Y036309D01*
X014986Y036282D01*
X015128D01*
Y036424D01*
D02*
G37*
G36*
X025247Y033263D02*
Y033121D01*
X025389D01*
X025384Y033148D01*
X02534Y033214D01*
X025274Y033258D01*
X025247Y033263D01*
D02*
G37*
G36*
X025147D02*
X025119Y033258D01*
X025054Y033214D01*
X02501Y033148D01*
X025004Y033121D01*
X025147D01*
Y033263D01*
D02*
G37*
G36*
X016105Y036289D02*
X015963D01*
Y036146D01*
X01599Y036152D01*
X016056Y036196D01*
X0161Y036261D01*
X016105Y036289D01*
D02*
G37*
G36*
X015641Y036304D02*
X015499D01*
Y036162D01*
X015526Y036167D01*
X015592Y036211D01*
X015636Y036277D01*
X015641Y036304D01*
D02*
G37*
G36*
X014321Y03635D02*
X01375D01*
X013179D01*
X013186Y036295D01*
X01314Y036263D01*
X013113Y036277D01*
X012935Y036331D01*
X01275Y036349D01*
X012565Y036331D01*
X012387Y036277D01*
X01236Y036263D01*
X012314Y036295D01*
X012321Y03635D01*
X0118D01*
Y035829D01*
X011855Y035836D01*
X011887Y03579D01*
X011873Y035763D01*
X011819Y035585D01*
X011801Y0354D01*
X011819Y035215D01*
X011873Y035037D01*
X011887Y03501D01*
X011855Y034964D01*
X0118Y034971D01*
Y03445D01*
X012321D01*
X012314Y034505D01*
X01236Y034537D01*
X012387Y034523D01*
X012565Y034469D01*
X01275Y034451D01*
X012935Y034469D01*
X013113Y034523D01*
X01314Y034537D01*
X013186Y034505D01*
X013179Y03445D01*
X01375D01*
X014321D01*
X014312Y034518D01*
X014311Y034551D01*
X014352Y034573D01*
X014387Y034581D01*
X014419Y034602D01*
X014454Y03455D01*
X01452Y034506D01*
X014547Y0345D01*
Y034693D01*
Y034885D01*
X01452Y03488D01*
X014488Y034858D01*
X014453Y03491D01*
X014387Y034954D01*
X01431Y03497D01*
X014291Y035017D01*
X014284Y035052D01*
X01424Y035118D01*
X014175Y035161D01*
X014147Y035167D01*
Y034975D01*
X014047D01*
Y035172D01*
X014014Y035175D01*
X013995Y035204D01*
X01397Y03524D01*
X013905Y035284D01*
X013877Y03529D01*
Y035097D01*
X013777D01*
Y03529D01*
X01375Y035284D01*
X013737Y035276D01*
X01369Y035305D01*
X013699Y0354D01*
X01369Y035498D01*
X013733Y035524D01*
X013745Y035516D01*
X013772Y03551D01*
Y035703D01*
X013872D01*
Y03551D01*
X013899Y035516D01*
X013929Y035536D01*
X013973Y035555D01*
X014008Y035534D01*
X014041Y035512D01*
X014069Y035507D01*
Y035699D01*
X014169D01*
Y035507D01*
X014183Y035509D01*
X01419Y035474D01*
X014233Y035408D01*
X014299Y035365D01*
X014377Y035349D01*
X014384Y035342D01*
X0144Y035264D01*
X014443Y035199D01*
X014509Y035155D01*
X014536Y035149D01*
Y035342D01*
X014636D01*
Y035149D01*
X014664Y035155D01*
X014715Y035189D01*
X014737Y035155D01*
X014803Y035111D01*
X01483Y035106D01*
Y035298D01*
Y03549D01*
X014803Y035485D01*
X014752Y035451D01*
X014729Y035485D01*
X014664Y035529D01*
X014586Y035544D01*
X014579Y035551D01*
X014563Y035629D01*
X01452Y035695D01*
X014454Y035738D01*
X014427Y035744D01*
Y035551D01*
X014327D01*
Y035744D01*
X014313Y035741D01*
X014306Y035776D01*
X014262Y035842D01*
X014196Y035886D01*
X014122Y035901D01*
X014116Y035911D01*
X014103Y035949D01*
X014158Y035992D01*
X01425Y036111D01*
X014308Y036251D01*
X014321Y03635D01*
D02*
G37*
G36*
X0137Y03435D02*
X013179D01*
X013192Y034251D01*
X01325Y034111D01*
X013342Y033992D01*
X013461Y0339D01*
X013601Y033842D01*
X0137Y033829D01*
Y03435D01*
D02*
G37*
G36*
X024753Y035625D02*
X024726Y03562D01*
X02466Y035576D01*
X024616Y035511D01*
X024611Y035483D01*
X024753D01*
Y035625D01*
D02*
G37*
G36*
X024853Y034051D02*
Y033908D01*
X024996D01*
X02499Y033936D01*
X024946Y034001D01*
X024881Y034045D01*
X024853Y034051D01*
D02*
G37*
G36*
X024753D02*
X024726Y034045D01*
X02466Y034001D01*
X024616Y033936D01*
X024611Y033908D01*
X024753D01*
Y034051D01*
D02*
G37*
G36*
X015353Y035589D02*
X014968D01*
X014974Y035561D01*
X015007Y035512D01*
X014971Y035476D01*
X014957Y035485D01*
X01493Y03549D01*
Y035298D01*
Y035106D01*
X014957Y035111D01*
X015023Y035155D01*
X015046Y035189D01*
X015096Y035155D01*
X015124Y03515D01*
Y035342D01*
X015174D01*
Y035392D01*
X015366D01*
X015361Y03542D01*
X015317Y035485D01*
X015331Y035536D01*
X015348Y035561D01*
X015353Y035589D01*
D02*
G37*
G36*
X023966Y035625D02*
X023938Y03562D01*
X023873Y035576D01*
X023829Y035511D01*
X023823Y035483D01*
X023966D01*
Y035625D01*
D02*
G37*
G36*
X024066D02*
Y035483D01*
X024208D01*
X024203Y035511D01*
X024159Y035576D01*
X024093Y03562D01*
X024066Y035625D01*
D02*
G37*
G36*
X015353Y035886D02*
X014968D01*
X014974Y035858D01*
X015018Y035792D01*
Y035782D01*
X014974Y035716D01*
X014968Y035689D01*
X015353D01*
X015348Y035716D01*
X015304Y035782D01*
Y035792D01*
X015348Y035858D01*
X015353Y035886D01*
D02*
G37*
G36*
X014321Y03435D02*
X0138D01*
Y033829D01*
X013899Y033842D01*
X014039Y0339D01*
X014158Y033992D01*
X01425Y034111D01*
X014308Y034251D01*
X014321Y03435D01*
D02*
G37*
G36*
X012321D02*
X0118D01*
Y033829D01*
X011899Y033842D01*
X012039Y0339D01*
X012158Y033992D01*
X01225Y034111D01*
X012308Y034251D01*
X012321Y03435D01*
D02*
G37*
G36*
X024066Y034051D02*
Y033908D01*
X024208D01*
X024203Y033936D01*
X024159Y034001D01*
X024093Y034045D01*
X024066Y034051D01*
D02*
G37*
G36*
X023966D02*
X023938Y034045D01*
X023873Y034001D01*
X023829Y033936D01*
X023823Y033908D01*
X023966D01*
Y034051D01*
D02*
G37*
G36*
X024853Y035625D02*
Y035483D01*
X024996D01*
X02499Y035511D01*
X024946Y035576D01*
X024881Y03562D01*
X024853Y035625D01*
D02*
G37*
G36*
X035777Y028296D02*
X035634D01*
X03564Y028269D01*
X035684Y028203D01*
X035749Y02816D01*
X035777Y028154D01*
Y028296D01*
D02*
G37*
G36*
X035232D02*
X035089D01*
Y028154D01*
X035117Y02816D01*
X035182Y028203D01*
X035226Y028269D01*
X035232Y028296D01*
D02*
G37*
G36*
X034989D02*
X034847D01*
X034852Y028269D01*
X034896Y028203D01*
X034962Y02816D01*
X034989Y028154D01*
Y028296D01*
D02*
G37*
G36*
X037845Y027751D02*
Y027609D01*
X037988D01*
X037982Y027636D01*
X037938Y027702D01*
X037873Y027746D01*
X037845Y027751D01*
D02*
G37*
G36*
X037745D02*
X037718Y027746D01*
X037652Y027702D01*
X037608Y027636D01*
X037603Y027609D01*
X037745D01*
Y027751D01*
D02*
G37*
G36*
X037058D02*
Y027609D01*
X0372D01*
X037195Y027636D01*
X037151Y027702D01*
X037085Y027746D01*
X037058Y027751D01*
D02*
G37*
G36*
X036019Y028296D02*
X035877D01*
Y028154D01*
X035904Y02816D01*
X03597Y028203D01*
X036014Y028269D01*
X036019Y028296D01*
D02*
G37*
G36*
X035777Y028539D02*
X035749Y028533D01*
X035684Y02849D01*
X03564Y028424D01*
X035634Y028396D01*
X035777D01*
Y028539D01*
D02*
G37*
G36*
X035089D02*
Y028396D01*
X035232D01*
X035226Y028424D01*
X035182Y02849D01*
X035117Y028533D01*
X035089Y028539D01*
D02*
G37*
G36*
X034989D02*
X034962Y028533D01*
X034896Y02849D01*
X034852Y028424D01*
X034847Y028396D01*
X034989D01*
Y028539D01*
D02*
G37*
G36*
X036664D02*
Y028396D01*
X036807D01*
X036801Y028424D01*
X036757Y02849D01*
X036692Y028533D01*
X036664Y028539D01*
D02*
G37*
G36*
X036564D02*
X036537Y028533D01*
X036471Y02849D01*
X036427Y028424D01*
X036422Y028396D01*
X036564D01*
Y028539D01*
D02*
G37*
G36*
X035877D02*
Y028396D01*
X036019D01*
X036014Y028424D01*
X03597Y02849D01*
X035904Y028533D01*
X035877Y028539D01*
D02*
G37*
G36*
X037352Y028296D02*
X037209D01*
X037215Y028269D01*
X037259Y028203D01*
X037324Y02816D01*
X037352Y028154D01*
Y028296D01*
D02*
G37*
G36*
X036807D02*
X036664D01*
Y028154D01*
X036692Y02816D01*
X036757Y028203D01*
X036801Y028269D01*
X036807Y028296D01*
D02*
G37*
G36*
X036564D02*
X036422D01*
X036427Y028269D01*
X036471Y028203D01*
X036537Y02816D01*
X036564Y028154D01*
Y028296D01*
D02*
G37*
G36*
X037594D02*
X037452D01*
Y028154D01*
X037479Y02816D01*
X037545Y028203D01*
X037589Y028269D01*
X037594Y028296D01*
D02*
G37*
G36*
X035625Y027509D02*
X035483D01*
Y027367D01*
X035511Y027372D01*
X035576Y027416D01*
X03562Y027482D01*
X035625Y027509D01*
D02*
G37*
G36*
X035383D02*
X035241D01*
X035246Y027482D01*
X03529Y027416D01*
X035356Y027372D01*
X035383Y027367D01*
Y027509D01*
D02*
G37*
G36*
X034838D02*
X034696D01*
Y027367D01*
X034723Y027372D01*
X034789Y027416D01*
X034833Y027482D01*
X034838Y027509D01*
D02*
G37*
G36*
X036958D02*
X036816D01*
X036821Y027482D01*
X036865Y027416D01*
X03693Y027372D01*
X036958Y027367D01*
Y027509D01*
D02*
G37*
G36*
X036413D02*
X03627D01*
Y027367D01*
X036298Y027372D01*
X036364Y027416D01*
X036407Y027482D01*
X036413Y027509D01*
D02*
G37*
G36*
X03617D02*
X036028D01*
X036034Y027482D01*
X036077Y027416D01*
X036143Y027372D01*
X03617Y027367D01*
Y027509D01*
D02*
G37*
G36*
X019949Y0413D02*
X019584D01*
Y040718D01*
X019949D01*
Y0413D01*
D02*
G37*
G36*
X034596Y027509D02*
X034453D01*
X034459Y027482D01*
X034503Y027416D01*
X034568Y027372D01*
X034596Y027367D01*
Y027509D01*
D02*
G37*
G36*
X030392Y0274D02*
X03025D01*
Y027258D01*
X030277Y027263D01*
X030343Y027307D01*
X030387Y027373D01*
X030392Y0274D01*
D02*
G37*
G36*
X03015D02*
X030008D01*
X030013Y027373D01*
X030057Y027307D01*
X030123Y027263D01*
X03015Y027258D01*
Y0274D01*
D02*
G37*
G36*
X0372Y027509D02*
X037058D01*
Y027367D01*
X037085Y027372D01*
X037151Y027416D01*
X037195Y027482D01*
X0372Y027509D01*
D02*
G37*
G36*
X035483Y027751D02*
Y027609D01*
X035625D01*
X03562Y027636D01*
X035576Y027702D01*
X035511Y027746D01*
X035483Y027751D01*
D02*
G37*
G36*
X035383D02*
X035356Y027746D01*
X03529Y027702D01*
X035246Y027636D01*
X035241Y027609D01*
X035383D01*
Y027751D01*
D02*
G37*
G36*
X034696D02*
Y027609D01*
X034838D01*
X034833Y027636D01*
X034789Y027702D01*
X034723Y027746D01*
X034696Y027751D01*
D02*
G37*
G36*
X036958D02*
X03693Y027746D01*
X036865Y027702D01*
X036821Y027636D01*
X036816Y027609D01*
X036958D01*
Y027751D01*
D02*
G37*
G36*
X03627D02*
Y027609D01*
X036413D01*
X036407Y027636D01*
X036364Y027702D01*
X036298Y027746D01*
X03627Y027751D01*
D02*
G37*
G36*
X03617D02*
X036143Y027746D01*
X036077Y027702D01*
X036034Y027636D01*
X036028Y027609D01*
X03617D01*
Y027751D01*
D02*
G37*
G36*
X037988Y027509D02*
X037845D01*
Y027367D01*
X037873Y027372D01*
X037938Y027416D01*
X037982Y027482D01*
X037988Y027509D01*
D02*
G37*
G36*
X037745D02*
X037603D01*
X037608Y027482D01*
X037652Y027416D01*
X037718Y027372D01*
X037745Y027367D01*
Y027509D01*
D02*
G37*
G36*
X034596Y027751D02*
X034568Y027746D01*
X034503Y027702D01*
X034459Y027636D01*
X034453Y027609D01*
X034596D01*
Y027751D01*
D02*
G37*
G36*
X03025Y027642D02*
Y0275D01*
X030392D01*
X030387Y027527D01*
X030343Y027593D01*
X030277Y027637D01*
X03025Y027642D01*
D02*
G37*
G36*
X03015D02*
X030123Y027637D01*
X030057Y027593D01*
X030013Y027527D01*
X030008Y0275D01*
X03015D01*
Y027642D01*
D02*
G37*
G36*
X037845Y029326D02*
Y029184D01*
X037988D01*
X037982Y029211D01*
X037938Y029277D01*
X037873Y029321D01*
X037845Y029326D01*
D02*
G37*
G36*
X03627D02*
Y029184D01*
X036413D01*
X036407Y029211D01*
X036364Y029277D01*
X036298Y029321D01*
X03627Y029326D01*
D02*
G37*
G36*
X03617D02*
X036143Y029321D01*
X036077Y029277D01*
X036034Y029211D01*
X036028Y029184D01*
X03617D01*
Y029326D01*
D02*
G37*
G36*
X035483D02*
Y029184D01*
X035625D01*
X03562Y029211D01*
X035576Y029277D01*
X035511Y029321D01*
X035483Y029326D01*
D02*
G37*
G36*
X037745D02*
X037718Y029321D01*
X037652Y029277D01*
X037608Y029211D01*
X037603Y029184D01*
X037745D01*
Y029326D01*
D02*
G37*
G36*
X037058D02*
Y029184D01*
X0372D01*
X037195Y029211D01*
X037151Y029277D01*
X037085Y029321D01*
X037058Y029326D01*
D02*
G37*
G36*
X036958D02*
X03693Y029321D01*
X036865Y029277D01*
X036821Y029211D01*
X036816Y029184D01*
X036958D01*
Y029326D01*
D02*
G37*
G36*
X035777Y029871D02*
X035634D01*
X03564Y029844D01*
X035684Y029778D01*
X035749Y029734D01*
X035777Y029729D01*
Y029871D01*
D02*
G37*
G36*
X035232D02*
X035089D01*
Y029729D01*
X035117Y029734D01*
X035182Y029778D01*
X035226Y029844D01*
X035232Y029871D01*
D02*
G37*
G36*
X034989D02*
X034847D01*
X034852Y029844D01*
X034896Y029778D01*
X034962Y029734D01*
X034989Y029729D01*
Y029871D01*
D02*
G37*
G36*
X036807D02*
X036664D01*
Y029729D01*
X036692Y029734D01*
X036757Y029778D01*
X036801Y029844D01*
X036807Y029871D01*
D02*
G37*
G36*
X036564D02*
X036422D01*
X036427Y029844D01*
X036471Y029778D01*
X036537Y029734D01*
X036564Y029729D01*
Y029871D01*
D02*
G37*
G36*
X036019D02*
X035877D01*
Y029729D01*
X035904Y029734D01*
X03597Y029778D01*
X036014Y029844D01*
X036019Y029871D01*
D02*
G37*
G36*
X034838Y029084D02*
X034696D01*
Y028942D01*
X034723Y028947D01*
X034789Y028991D01*
X034833Y029056D01*
X034838Y029084D01*
D02*
G37*
G36*
X034596D02*
X034453D01*
X034459Y029056D01*
X034503Y028991D01*
X034568Y028947D01*
X034596Y028942D01*
Y029084D01*
D02*
G37*
G36*
X03617D02*
X036028D01*
X036034Y029056D01*
X036077Y028991D01*
X036143Y028947D01*
X03617Y028942D01*
Y029084D01*
D02*
G37*
G36*
X035625D02*
X035483D01*
Y028942D01*
X035511Y028947D01*
X035576Y028991D01*
X03562Y029056D01*
X035625Y029084D01*
D02*
G37*
G36*
X035383D02*
X035241D01*
X035246Y029056D01*
X03529Y028991D01*
X035356Y028947D01*
X035383Y028942D01*
Y029084D01*
D02*
G37*
G36*
X037452Y028539D02*
Y028396D01*
X037594D01*
X037589Y028424D01*
X037545Y02849D01*
X037479Y028533D01*
X037452Y028539D01*
D02*
G37*
G36*
X037352D02*
X037324Y028533D01*
X037259Y02849D01*
X037215Y028424D01*
X037209Y028396D01*
X037352D01*
Y028539D01*
D02*
G37*
G36*
X036413Y029084D02*
X03627D01*
Y028942D01*
X036298Y028947D01*
X036364Y028991D01*
X036407Y029056D01*
X036413Y029084D01*
D02*
G37*
G36*
X035383Y029326D02*
X035356Y029321D01*
X03529Y029277D01*
X035246Y029211D01*
X035241Y029184D01*
X035383D01*
Y029326D01*
D02*
G37*
G36*
X034696D02*
Y029184D01*
X034838D01*
X034833Y029211D01*
X034789Y029277D01*
X034723Y029321D01*
X034696Y029326D01*
D02*
G37*
G36*
X034596D02*
X034568Y029321D01*
X034503Y029277D01*
X034459Y029211D01*
X034453Y029184D01*
X034596D01*
Y029326D01*
D02*
G37*
G36*
X037745Y029084D02*
X037603D01*
X037608Y029056D01*
X037652Y028991D01*
X037718Y028947D01*
X037745Y028942D01*
Y029084D01*
D02*
G37*
G36*
X0372D02*
X037058D01*
Y028942D01*
X037085Y028947D01*
X037151Y028991D01*
X037195Y029056D01*
X0372Y029084D01*
D02*
G37*
G36*
X036958D02*
X036816D01*
X036821Y029056D01*
X036865Y028991D01*
X03693Y028947D01*
X036958Y028942D01*
Y029084D01*
D02*
G37*
G36*
X019949Y040332D02*
X019584D01*
Y03975D01*
X019949D01*
Y040332D01*
D02*
G37*
G36*
X037988Y029084D02*
X037845D01*
Y028942D01*
X037873Y028947D01*
X037938Y028991D01*
X037982Y029056D01*
X037988Y029084D01*
D02*
G37*
G36*
X016492Y02145D02*
X01635D01*
Y021308D01*
X016377Y021313D01*
X016443Y021357D01*
X016487Y021423D01*
X016492Y02145D01*
D02*
G37*
G36*
X01625D02*
X016108D01*
X016113Y021423D01*
X016157Y021357D01*
X016223Y021313D01*
X01625Y021308D01*
Y02145D01*
D02*
G37*
G36*
X01635Y021692D02*
Y02155D01*
X016492D01*
X016487Y021577D01*
X016443Y021643D01*
X016377Y021687D01*
X01635Y021692D01*
D02*
G37*
G36*
X01625D02*
X016223Y021687D01*
X016157Y021643D01*
X016113Y021577D01*
X016108Y02155D01*
X01625D01*
Y021692D01*
D02*
G37*
G36*
X016976Y018647D02*
X016969Y018644D01*
X016976D01*
X016976Y018647D01*
D02*
G37*
G36*
X037745Y041137D02*
X037718Y041132D01*
X037652Y041088D01*
X037608Y041022D01*
X037603Y040995D01*
X037745D01*
Y041137D01*
D02*
G37*
G36*
X038533Y040895D02*
X03839D01*
X038396Y040867D01*
X03844Y040802D01*
X038505Y040758D01*
X038533Y040753D01*
Y040895D01*
D02*
G37*
G36*
X038775D02*
X038633D01*
Y040753D01*
X03866Y040758D01*
X038726Y040802D01*
X03877Y040867D01*
X038775Y040895D01*
D02*
G37*
G36*
X03932D02*
X039178D01*
X039183Y040867D01*
X039227Y040802D01*
X039293Y040758D01*
X03932Y040753D01*
Y040895D01*
D02*
G37*
G36*
X037745D02*
X037603D01*
X037608Y040867D01*
X037652Y040802D01*
X037718Y040758D01*
X037745Y040753D01*
Y040895D01*
D02*
G37*
G36*
X037988D02*
X037845D01*
Y040753D01*
X037873Y040758D01*
X037938Y040802D01*
X037982Y040867D01*
X037988Y040895D01*
D02*
G37*
G36*
X039562D02*
X03942D01*
Y040753D01*
X039448Y040758D01*
X039513Y040802D01*
X039557Y040867D01*
X039562Y040895D01*
D02*
G37*
G36*
X036958Y041137D02*
X03693Y041132D01*
X036865Y041088D01*
X036821Y041022D01*
X036816Y040995D01*
X036958D01*
Y041137D01*
D02*
G37*
G36*
X037058D02*
Y040995D01*
X0372D01*
X037195Y041022D01*
X037151Y041088D01*
X037085Y041132D01*
X037058Y041137D01*
D02*
G37*
G36*
X038381Y043257D02*
X038239D01*
Y043115D01*
X038266Y04312D01*
X038332Y043164D01*
X038376Y04323D01*
X038381Y043257D01*
D02*
G37*
G36*
X038139D02*
X037997D01*
X038002Y04323D01*
X038046Y043164D01*
X038112Y04312D01*
X038139Y043115D01*
Y043257D01*
D02*
G37*
G36*
X037352D02*
X037209D01*
X037215Y04323D01*
X037259Y043164D01*
X037324Y04312D01*
X037352Y043115D01*
Y043257D01*
D02*
G37*
G36*
X037594D02*
X037452D01*
Y043115D01*
X037479Y04312D01*
X037545Y043164D01*
X037589Y04323D01*
X037594Y043257D01*
D02*
G37*
G36*
X037352Y043499D02*
X037324Y043494D01*
X037259Y04345D01*
X037215Y043385D01*
X037209Y043357D01*
X037352D01*
Y043499D01*
D02*
G37*
G36*
X037452D02*
Y043357D01*
X037594D01*
X037589Y043385D01*
X037545Y04345D01*
X037479Y043494D01*
X037452Y043499D01*
D02*
G37*
G36*
X035766Y043731D02*
X035401D01*
Y04315D01*
X035766D01*
Y043731D01*
D02*
G37*
G36*
X038926Y043257D02*
X038784D01*
X038789Y04323D01*
X038833Y043164D01*
X038899Y04312D01*
X038926Y043115D01*
Y043257D01*
D02*
G37*
G36*
X039169D02*
X039026D01*
Y043115D01*
X039054Y04312D01*
X039119Y043164D01*
X039163Y04323D01*
X039169Y043257D01*
D02*
G37*
G36*
X03942Y042712D02*
Y04257D01*
X039562D01*
X039557Y042597D01*
X039513Y042663D01*
X039448Y042707D01*
X03942Y042712D01*
D02*
G37*
G36*
X037845D02*
Y04257D01*
X037988D01*
X037982Y042597D01*
X037938Y042663D01*
X037873Y042707D01*
X037845Y042712D01*
D02*
G37*
G36*
X037745D02*
X037718Y042707D01*
X037652Y042663D01*
X037608Y042597D01*
X037603Y04257D01*
X037745D01*
Y042712D01*
D02*
G37*
G36*
X036958D02*
X03693Y042707D01*
X036865Y042663D01*
X036821Y042597D01*
X036816Y04257D01*
X036958D01*
Y042712D01*
D02*
G37*
G36*
X037058D02*
Y04257D01*
X0372D01*
X037195Y042597D01*
X037151Y042663D01*
X037085Y042707D01*
X037058Y042712D01*
D02*
G37*
G36*
X03932D02*
X039293Y042707D01*
X039227Y042663D01*
X039183Y042597D01*
X039178Y04257D01*
X03932D01*
Y042712D01*
D02*
G37*
G36*
X038533D02*
X038505Y042707D01*
X03844Y042663D01*
X038396Y042597D01*
X03839Y04257D01*
X038533D01*
Y042712D01*
D02*
G37*
G36*
X038633D02*
Y04257D01*
X038775D01*
X03877Y042597D01*
X038726Y042663D01*
X03866Y042707D01*
X038633Y042712D01*
D02*
G37*
G36*
X039026Y043499D02*
Y043357D01*
X039169D01*
X039163Y043385D01*
X039119Y04345D01*
X039054Y043494D01*
X039026Y043499D01*
D02*
G37*
G36*
X038926D02*
X038899Y043494D01*
X038833Y04345D01*
X038789Y043385D01*
X038784Y043357D01*
X038926D01*
Y043499D01*
D02*
G37*
G36*
X038139D02*
X038112Y043494D01*
X038046Y04345D01*
X038002Y043385D01*
X037997Y043357D01*
X038139D01*
Y043499D01*
D02*
G37*
G36*
X038239D02*
Y043357D01*
X038381D01*
X038376Y043385D01*
X038332Y04345D01*
X038266Y043494D01*
X038239Y043499D01*
D02*
G37*
G36*
X037594Y041682D02*
X037452D01*
Y04154D01*
X037479Y041545D01*
X037545Y041589D01*
X037589Y041655D01*
X037594Y041682D01*
D02*
G37*
G36*
X038139D02*
X037997D01*
X038002Y041655D01*
X038046Y041589D01*
X038112Y041545D01*
X038139Y04154D01*
Y041682D01*
D02*
G37*
G36*
X037352D02*
X037209D01*
X037215Y041655D01*
X037259Y041589D01*
X037324Y041545D01*
X037352Y04154D01*
Y041682D01*
D02*
G37*
G36*
X035766Y04172D02*
X035401D01*
Y041138D01*
X035766D01*
Y04172D01*
D02*
G37*
G36*
X03942Y041137D02*
Y040995D01*
X039562D01*
X039557Y041022D01*
X039513Y041088D01*
X039448Y041132D01*
X03942Y041137D01*
D02*
G37*
G36*
X038633D02*
Y040995D01*
X038775D01*
X03877Y041022D01*
X038726Y041088D01*
X03866Y041132D01*
X038633Y041137D01*
D02*
G37*
G36*
X03932D02*
X039293Y041132D01*
X039227Y041088D01*
X039183Y041022D01*
X039178Y040995D01*
X03932D01*
Y041137D01*
D02*
G37*
G36*
X038533D02*
X038505Y041132D01*
X03844Y041088D01*
X038396Y041022D01*
X03839Y040995D01*
X038533D01*
Y041137D01*
D02*
G37*
G36*
X037845D02*
Y040995D01*
X037988D01*
X037982Y041022D01*
X037938Y041088D01*
X037873Y041132D01*
X037845Y041137D01*
D02*
G37*
G36*
X037745Y04247D02*
X037603D01*
X037608Y042442D01*
X037652Y042377D01*
X037718Y042333D01*
X037745Y042327D01*
Y04247D01*
D02*
G37*
G36*
X037988D02*
X037845D01*
Y042327D01*
X037873Y042333D01*
X037938Y042377D01*
X037982Y042442D01*
X037988Y04247D01*
D02*
G37*
G36*
X0372D02*
X037058D01*
Y042327D01*
X037085Y042333D01*
X037151Y042377D01*
X037195Y042442D01*
X0372Y04247D01*
D02*
G37*
G36*
X039026Y041925D02*
Y041782D01*
X039169D01*
X039163Y04181D01*
X039119Y041875D01*
X039054Y041919D01*
X039026Y041925D01*
D02*
G37*
G36*
X036958Y04247D02*
X036816D01*
X036821Y042442D01*
X036865Y042377D01*
X03693Y042333D01*
X036958Y042327D01*
Y04247D01*
D02*
G37*
G36*
X038533D02*
X03839D01*
X038396Y042442D01*
X03844Y042377D01*
X038505Y042333D01*
X038533Y042327D01*
Y04247D01*
D02*
G37*
G36*
X035766Y04305D02*
X035401D01*
Y042469D01*
X035766D01*
Y04305D01*
D02*
G37*
G36*
X039562Y04247D02*
X03942D01*
Y042327D01*
X039448Y042333D01*
X039513Y042377D01*
X039557Y042442D01*
X039562Y04247D01*
D02*
G37*
G36*
X038775D02*
X038633D01*
Y042327D01*
X03866Y042333D01*
X038726Y042377D01*
X03877Y042442D01*
X038775Y04247D01*
D02*
G37*
G36*
X03932D02*
X039178D01*
X039183Y042442D01*
X039227Y042377D01*
X039293Y042333D01*
X03932Y042327D01*
Y04247D01*
D02*
G37*
G36*
X038926Y041925D02*
X038899Y041919D01*
X038833Y041875D01*
X038789Y04181D01*
X038784Y041782D01*
X038926D01*
Y041925D01*
D02*
G37*
G36*
X038381Y041682D02*
X038239D01*
Y04154D01*
X038266Y041545D01*
X038332Y041589D01*
X038376Y041655D01*
X038381Y041682D01*
D02*
G37*
G36*
X038926D02*
X038784D01*
X038789Y041655D01*
X038833Y041589D01*
X038899Y041545D01*
X038926Y04154D01*
Y041682D01*
D02*
G37*
G36*
X038139Y041925D02*
X038112Y041919D01*
X038046Y041875D01*
X038002Y04181D01*
X037997Y041782D01*
X038139D01*
Y041925D01*
D02*
G37*
G36*
X038239D02*
Y041782D01*
X038381D01*
X038376Y04181D01*
X038332Y041875D01*
X038266Y041919D01*
X038239Y041925D01*
D02*
G37*
G36*
X037452D02*
Y041782D01*
X037594D01*
X037589Y04181D01*
X037545Y041875D01*
X037479Y041919D01*
X037452Y041925D01*
D02*
G37*
G36*
X039169Y041682D02*
X039026D01*
Y04154D01*
X039054Y041545D01*
X039119Y041589D01*
X039163Y041655D01*
X039169Y041682D01*
D02*
G37*
G36*
X037352Y041925D02*
X037324Y041919D01*
X037259Y041875D01*
X037215Y04181D01*
X037209Y041782D01*
X037352D01*
Y041925D01*
D02*
G37*
G36*
X039562Y03932D02*
X03942D01*
Y039178D01*
X039448Y039183D01*
X039513Y039227D01*
X039557Y039293D01*
X039562Y03932D01*
D02*
G37*
G36*
X03932D02*
X039178D01*
X039183Y039293D01*
X039227Y039227D01*
X039293Y039183D01*
X03932Y039178D01*
Y03932D01*
D02*
G37*
G36*
X036958D02*
X036816D01*
X036821Y039293D01*
X036865Y039227D01*
X03693Y039183D01*
X036958Y039178D01*
Y03932D01*
D02*
G37*
G36*
X037988D02*
X037845D01*
Y039178D01*
X037873Y039183D01*
X037938Y039227D01*
X037982Y039293D01*
X037988Y03932D01*
D02*
G37*
G36*
X038533D02*
X03839D01*
X038396Y039293D01*
X03844Y039227D01*
X038505Y039183D01*
X038533Y039178D01*
Y03932D01*
D02*
G37*
G36*
X038775D02*
X038633D01*
Y039178D01*
X03866Y039183D01*
X038726Y039227D01*
X03877Y039293D01*
X038775Y03932D01*
D02*
G37*
G36*
X0372D02*
X037058D01*
Y039178D01*
X037085Y039183D01*
X037151Y039227D01*
X037195Y039293D01*
X0372Y03932D01*
D02*
G37*
G36*
X037745D02*
X037603D01*
X037608Y039293D01*
X037652Y039227D01*
X037718Y039183D01*
X037745Y039178D01*
Y03932D01*
D02*
G37*
G36*
X037352Y04035D02*
X037324Y040344D01*
X037259Y040301D01*
X037215Y040235D01*
X037209Y040208D01*
X037352D01*
Y04035D01*
D02*
G37*
G36*
X037452D02*
Y040208D01*
X037594D01*
X037589Y040235D01*
X037545Y040301D01*
X037479Y040344D01*
X037452Y04035D01*
D02*
G37*
G36*
X038139D02*
X038112Y040344D01*
X038046Y040301D01*
X038002Y040235D01*
X037997Y040208D01*
X038139D01*
Y04035D01*
D02*
G37*
G36*
X038239D02*
Y040208D01*
X038381D01*
X038376Y040235D01*
X038332Y040301D01*
X038266Y040344D01*
X038239Y04035D01*
D02*
G37*
G36*
X038926D02*
X038899Y040344D01*
X038833Y040301D01*
X038789Y040235D01*
X038784Y040208D01*
X038926D01*
Y04035D01*
D02*
G37*
G36*
X039026D02*
Y040208D01*
X039169D01*
X039163Y040235D01*
X039119Y040301D01*
X039054Y040344D01*
X039026Y04035D01*
D02*
G37*
G36*
X039169Y040107D02*
X039026D01*
Y039965D01*
X039054Y039971D01*
X039119Y040014D01*
X039163Y04008D01*
X039169Y040107D01*
D02*
G37*
G36*
X036958Y040895D02*
X036816D01*
X036821Y040867D01*
X036865Y040802D01*
X03693Y040758D01*
X036958Y040753D01*
Y040895D01*
D02*
G37*
G36*
X0372D02*
X037058D01*
Y040753D01*
X037085Y040758D01*
X037151Y040802D01*
X037195Y040867D01*
X0372Y040895D01*
D02*
G37*
G36*
X035766Y041038D02*
X035401D01*
Y040457D01*
X035766D01*
Y041038D01*
D02*
G37*
G36*
X03942Y039562D02*
Y03942D01*
X039562D01*
X039557Y039448D01*
X039513Y039513D01*
X039448Y039557D01*
X03942Y039562D01*
D02*
G37*
G36*
X03932D02*
X039293Y039557D01*
X039227Y039513D01*
X039183Y039448D01*
X039178Y03942D01*
X03932D01*
Y039562D01*
D02*
G37*
G36*
X037845D02*
Y03942D01*
X037988D01*
X037982Y039448D01*
X037938Y039513D01*
X037873Y039557D01*
X037845Y039562D01*
D02*
G37*
G36*
X038533D02*
X038505Y039557D01*
X03844Y039513D01*
X038396Y039448D01*
X03839Y03942D01*
X038533D01*
Y039562D01*
D02*
G37*
G36*
X038633D02*
Y03942D01*
X038775D01*
X03877Y039448D01*
X038726Y039513D01*
X03866Y039557D01*
X038633Y039562D01*
D02*
G37*
G36*
X036958D02*
X03693Y039557D01*
X036865Y039513D01*
X036821Y039448D01*
X036816Y03942D01*
X036958D01*
Y039562D01*
D02*
G37*
G36*
X037058D02*
Y03942D01*
X0372D01*
X037195Y039448D01*
X037151Y039513D01*
X037085Y039557D01*
X037058Y039562D01*
D02*
G37*
G36*
X037745D02*
X037718Y039557D01*
X037652Y039513D01*
X037608Y039448D01*
X037603Y03942D01*
X037745D01*
Y039562D01*
D02*
G37*
G36*
X037352Y040107D02*
X037209D01*
X037215Y04008D01*
X037259Y040014D01*
X037324Y039971D01*
X037352Y039965D01*
Y040107D01*
D02*
G37*
G36*
X038926D02*
X038784D01*
X038789Y04008D01*
X038833Y040014D01*
X038899Y039971D01*
X038926Y039965D01*
Y040107D01*
D02*
G37*
G36*
X037594D02*
X037452D01*
Y039965D01*
X037479Y039971D01*
X037545Y040014D01*
X037589Y04008D01*
X037594Y040107D01*
D02*
G37*
G36*
X038139D02*
X037997D01*
X038002Y04008D01*
X038046Y040014D01*
X038112Y039971D01*
X038139Y039965D01*
Y040107D01*
D02*
G37*
G36*
X038381D02*
X038239D01*
Y039965D01*
X038266Y039971D01*
X038332Y040014D01*
X038376Y04008D01*
X038381Y040107D01*
D02*
G37*
G36*
X020795Y02446D02*
X020788D01*
X020795Y024457D01*
X020795Y02446D01*
D02*
G37*
G36*
X014542Y02205D02*
X0144D01*
Y021908D01*
X014427Y021913D01*
X014493Y021957D01*
X014537Y022023D01*
X014542Y02205D01*
D02*
G37*
G36*
X0143D02*
X014158D01*
X014163Y022023D01*
X014207Y021957D01*
X014273Y021913D01*
X0143Y021908D01*
Y02205D01*
D02*
G37*
G36*
X0144Y022292D02*
Y02215D01*
X014542D01*
X014537Y022177D01*
X014493Y022243D01*
X014427Y022287D01*
X0144Y022292D01*
D02*
G37*
G36*
X0143D02*
X014273Y022287D01*
X014207Y022243D01*
X014163Y022177D01*
X014158Y02215D01*
X014232D01*
X014227Y022157D01*
X01421Y022176D01*
X014201Y022186D01*
X014264Y022249D01*
X014274Y02224D01*
X014293Y022223D01*
X0143Y022218D01*
Y022292D01*
D02*
G37*
G36*
X027358Y044832D02*
X027215D01*
Y04469D01*
X027243Y044695D01*
X027308Y044739D01*
X027352Y044804D01*
X027358Y044832D01*
D02*
G37*
G36*
X027115D02*
X026973D01*
X026978Y044804D01*
X027022Y044739D01*
X027088Y044695D01*
X027115Y04469D01*
Y044832D01*
D02*
G37*
G36*
X026328D02*
X026186D01*
X026191Y044804D01*
X026235Y044739D01*
X026301Y044695D01*
X026328Y04469D01*
Y044832D01*
D02*
G37*
G36*
X02657D02*
X026428D01*
Y04469D01*
X026455Y044695D01*
X026521Y044739D01*
X026565Y044804D01*
X02657Y044832D01*
D02*
G37*
G36*
X024884Y045492D02*
X024519D01*
Y044911D01*
X024884D01*
Y045492D01*
D02*
G37*
G36*
X027215Y045074D02*
Y044932D01*
X027358D01*
X027352Y044959D01*
X027308Y045025D01*
X027243Y045069D01*
X027215Y045074D01*
D02*
G37*
G36*
X027115D02*
X027088Y045069D01*
X027022Y045025D01*
X026978Y044959D01*
X026973Y044932D01*
X027115D01*
Y045074D01*
D02*
G37*
G36*
X026328D02*
X026301Y045069D01*
X026235Y045025D01*
X026191Y044959D01*
X026186Y044932D01*
X026328D01*
Y045074D01*
D02*
G37*
G36*
X026428D02*
Y044932D01*
X02657D01*
X026565Y044959D01*
X026521Y045025D01*
X026455Y045069D01*
X026428Y045074D01*
D02*
G37*
G36*
X026822Y044287D02*
Y044145D01*
X026964D01*
X026959Y044172D01*
X026915Y044238D01*
X026849Y044281D01*
X026822Y044287D01*
D02*
G37*
G36*
X026964Y044045D02*
X026822D01*
Y043902D01*
X026849Y043908D01*
X026915Y043951D01*
X026959Y044017D01*
X026964Y044045D01*
D02*
G37*
G36*
X026722Y044287D02*
X026694Y044281D01*
X026629Y044238D01*
X026585Y044172D01*
X026579Y044145D01*
X026722D01*
Y044287D01*
D02*
G37*
G36*
Y044045D02*
X026579D01*
X026585Y044017D01*
X026629Y043951D01*
X026694Y043908D01*
X026722Y043902D01*
Y044045D01*
D02*
G37*
%LPD*%
D10*
X027222Y036378D02*
G03*
X0272Y0364I-000022J0D01*
G01*
X021817Y032483D02*
G03*
X0218Y0325I-000017J0D01*
G01*
X027222Y035885D02*
Y036378D01*
X021817Y031896D02*
Y032483D01*
X0285Y0245D02*
X02945D01*
X03615Y0178D01*
X03825D01*
X0275Y0245D02*
X0284Y0254D01*
X02985D01*
X03645Y0188D01*
X03825D01*
X018088Y019625D02*
X018103D01*
X01765Y019186D02*
X018088Y019625D01*
X01765Y019172D02*
Y019186D01*
X017356Y018878D02*
X01765Y019172D01*
X017022Y018878D02*
X017356D01*
X02106Y02275D02*
X0231D01*
X020841Y022531D02*
X02106Y02275D01*
X01825Y0245D02*
X01935D01*
X017978Y024228D02*
X01825Y0245D01*
X015899Y024228D02*
X017978D01*
X01885Y023D02*
X01935Y0225D01*
X0175Y023D02*
X01885D01*
X0189Y0207D02*
X02055D01*
X016528Y023072D02*
X0189Y0207D01*
X015901Y023072D02*
X016528D01*
X026368Y031832D02*
Y032282D01*
X02558Y031832D02*
Y03232D01*
X0234Y0287D02*
X0251D01*
X0231Y029D02*
X0234Y0287D01*
X0203Y024767D02*
X020841Y024226D01*
X0203Y024767D02*
Y027D01*
X013712Y027738D02*
X01435Y0271D01*
X013712Y027738D02*
Y028326D01*
X015901Y022324D02*
X016426D01*
X031978Y032428D02*
Y032624D01*
X03145Y0319D02*
X031978Y032428D01*
X03045Y0319D02*
X03145D01*
X029544Y032806D02*
X03045Y0319D01*
X029544Y032806D02*
Y033826D01*
X021943Y045542D02*
X022901Y0465D01*
X021901Y0455D02*
X021943Y045542D01*
X022901Y0465D02*
X02585D01*
X0148Y017001D02*
X015949Y01815D01*
X01645Y01805D02*
Y018306D01*
X03205Y044819D02*
X032095Y044774D01*
X03205Y044819D02*
Y046D01*
X0203Y027D02*
X020326Y027026D01*
Y027987D01*
X02245Y018D02*
Y0186D01*
X02205Y0176D02*
X02245Y018D01*
X0212Y0176D02*
X02205D01*
X02055Y01825D02*
X0212Y0176D01*
X02055Y01825D02*
Y0207D01*
X020317Y021783D02*
X020841D01*
X0201Y022D02*
X020317Y021783D01*
X0201Y022D02*
Y02275D01*
X01935Y0235D02*
X0201Y02275D01*
X0109Y03055D02*
Y03675D01*
X01185Y0377D01*
X0152D01*
X01755Y04005D01*
Y04415D01*
X0199Y0465D01*
X0215D01*
X021901Y046099D01*
Y0455D02*
Y046099D01*
X01645Y018306D02*
X017022Y018878D01*
X023225Y030325D02*
X024112D01*
X02315Y03025D02*
X023225Y030325D01*
X024141Y02815D02*
X024162Y028129D01*
X02315Y02815D02*
X024141D01*
X020326Y034774D02*
X02035Y03475D01*
X021D01*
X031Y0363D02*
X0323D01*
X032726Y035874D01*
Y035504D02*
Y035874D01*
X032733Y035511D02*
X033778D01*
X032726Y035504D02*
X032733Y035511D01*
X032726Y034064D02*
X03377D01*
X033778Y034071D01*
X032733Y032631D02*
X033778D01*
X031Y0343D02*
X0315Y0348D01*
X0325D01*
X032726Y034574D01*
Y034064D02*
Y034574D01*
X03095Y03315D02*
X03115Y03335D01*
X03255D01*
X032733Y033167D01*
Y032631D02*
Y033167D01*
X031514Y034064D02*
X031978D01*
X03125Y0338D02*
X031514Y034064D01*
X0308Y0338D02*
X03125D01*
X03035Y03425D02*
X0308Y0338D01*
X031532Y03595D02*
X031978Y035504D01*
X03015Y03595D02*
X031532D01*
X0298Y0356D02*
X03015Y03595D01*
X030056Y034574D02*
Y035106D01*
X0305Y03555D01*
X0284Y0355D02*
Y035974D01*
X0284Y035974D01*
X027337Y0355D02*
X0284D01*
X027222Y035385D02*
X027337Y0355D01*
X027281Y033826D02*
X029544D01*
X027222Y033885D02*
X027281Y033826D01*
X028374Y034574D02*
X029544D01*
X028185Y034385D02*
X028374Y034574D01*
X027222Y034385D02*
X028185D01*
X0298Y034574D02*
Y0348D01*
X02955Y03505D02*
X0298Y0348D01*
X0284Y03505D02*
X02955D01*
X027237Y0334D02*
X0284D01*
X027222Y033385D02*
X027237Y0334D01*
X0298Y0348D02*
Y0356D01*
X032838Y039461D02*
Y041362D01*
X0324Y0418D02*
X032838Y041362D01*
X031724Y0418D02*
X0324D01*
X031122Y039426D02*
Y040178D01*
X0323Y0407D02*
Y040724D01*
X031724Y0413D02*
X0323Y040724D01*
X029272Y039426D02*
X030374D01*
X029222Y039476D02*
X029272Y039426D01*
X030374D02*
Y040602D01*
X029676Y0413D02*
X030374Y040602D01*
X02915Y0418D02*
X029676D01*
X02885Y0415D02*
X02915Y0418D01*
X02885Y041D02*
Y0415D01*
X028524Y040674D02*
X02885Y041D01*
X028081Y040674D02*
X028524D01*
X028081Y041422D02*
Y042772D01*
X028076Y042778D02*
X028081Y042772D01*
X030374Y042424D02*
Y044776D01*
X03025Y0423D02*
X030374Y042424D01*
X029676Y0423D02*
X03025D01*
X029221Y044749D02*
X029676Y044294D01*
Y0428D02*
Y044294D01*
X03085Y0428D02*
X031724D01*
X014678Y03083D02*
Y031781D01*
X014674Y030826D02*
X014678Y03083D01*
X013819Y031781D02*
X014678D01*
X013712Y031674D02*
X013819Y031781D01*
X014678Y028197D02*
Y029198D01*
X014674Y028193D02*
X014678Y028197D01*
X013836Y029198D02*
X014678D01*
X013712Y029074D02*
X013836Y029198D01*
X012688Y0287D02*
X013226Y028162D01*
Y027224D02*
Y028162D01*
X012688Y0313D02*
X013222Y031834D01*
Y032776D01*
X01205Y027652D02*
X012478Y027224D01*
X01205Y027652D02*
Y0287D01*
Y032352D02*
X012474Y032776D01*
X01205Y0313D02*
Y032352D01*
X015495Y03185D02*
X0163D01*
X015426Y031781D02*
X015495Y03185D01*
X015426Y029198D02*
X0163Y030072D01*
Y03095D01*
X028176Y02955D02*
X02885D01*
X028149Y029578D02*
X028176Y02955D01*
X028174Y02815D02*
X02885D01*
X028151Y028127D02*
X028174Y02815D01*
X027262Y02775D02*
X027639Y028127D01*
X028151D01*
X027262Y02995D02*
X027634Y029578D01*
X028149D01*
X025337Y029576D02*
X026238D01*
X025335Y029573D02*
X025337Y029576D01*
X024112Y029577D02*
X024115Y029573D01*
X025336Y027376D02*
X026238D01*
X025335Y027378D02*
X025336Y027376D01*
X024165Y027378D02*
X025335D01*
X024162Y027381D02*
X024165Y027378D01*
X0186Y028964D02*
X019578Y027987D01*
X018895Y029694D02*
X019578Y029011D01*
X01885Y03D02*
X018895Y029955D01*
Y029694D02*
Y029955D01*
X0186Y028964D02*
Y0296D01*
X019578Y03383D02*
Y034774D01*
X019574Y033826D02*
X019578Y03383D01*
X019574Y03311D02*
Y033826D01*
X019526Y033062D02*
X019574Y03311D01*
X019577Y031715D02*
X0199Y032038D01*
X019577Y031201D02*
Y031715D01*
Y030178D02*
Y031201D01*
X019574Y030176D02*
X019577Y030178D01*
X018801Y031201D02*
X019577D01*
X020322Y029015D02*
Y030176D01*
Y029015D02*
X020326Y029011D01*
Y027987D02*
Y029011D01*
X024115Y029573D02*
X025335D01*
X0289Y03205D02*
Y0328D01*
X02825Y0314D02*
X0289Y03205D01*
X02155Y0314D02*
X02825D01*
X0213Y03115D02*
X02155Y0314D01*
X0213Y0305D02*
Y03115D01*
X020976Y030176D02*
X0213Y0305D01*
X020322Y030176D02*
X020976D01*
X02175Y024578D02*
Y02475D01*
Y024578D02*
X022198Y02413D01*
X022916Y026384D02*
X022936Y026364D01*
X013128Y022328D02*
X01348Y02268D01*
X011899Y022328D02*
X012223D01*
X013128D01*
X01348Y02267D02*
Y02268D01*
Y02317D01*
Y02343D01*
X01375Y0237D01*
X01405D01*
X01422Y02353D01*
Y02317D02*
Y02353D01*
X011996Y02413D02*
X01348D01*
X011899Y024228D02*
X011996Y02413D01*
X015901Y023072D02*
Y024225D01*
X015899Y024228D02*
X015901Y024225D01*
X014317Y024228D02*
X015899D01*
X01422Y02413D02*
X014317Y024228D01*
X01525Y022421D02*
X015901Y023072D01*
X01525Y0192D02*
Y022421D01*
Y0192D02*
X015572Y018878D01*
X015949D01*
Y01815D02*
Y018878D01*
D13*
X033778Y032631D02*
D03*
X034526D02*
D03*
X033778Y035511D02*
D03*
X034526D02*
D03*
X033778Y034071D02*
D03*
X034526D02*
D03*
X032726Y034064D02*
D03*
X031978D02*
D03*
X032726Y035504D02*
D03*
X031978D02*
D03*
X032726Y032624D02*
D03*
X031978D02*
D03*
X032843Y044774D02*
D03*
X032095D02*
D03*
X029221Y044749D02*
D03*
X028473D02*
D03*
X032838Y039461D02*
D03*
X03209D02*
D03*
X030374Y044776D02*
D03*
X031122D02*
D03*
X028474Y039476D02*
D03*
X029222D02*
D03*
X030374Y039426D02*
D03*
X031122D02*
D03*
X020922Y042699D02*
D03*
X020174D02*
D03*
X012474Y032776D02*
D03*
X013222D02*
D03*
X014674Y030826D02*
D03*
X015422D02*
D03*
X015426Y031781D02*
D03*
X014678D02*
D03*
X015426Y029198D02*
D03*
X014678D02*
D03*
X014674Y028193D02*
D03*
X015422D02*
D03*
X013226Y027224D02*
D03*
X012478D02*
D03*
X020326Y027987D02*
D03*
X019578D02*
D03*
X020326Y029011D02*
D03*
X019578D02*
D03*
X019574Y030176D02*
D03*
X020322D02*
D03*
X019574Y033826D02*
D03*
X020322D02*
D03*
X020326Y034774D02*
D03*
X019578D02*
D03*
X019577Y031201D02*
D03*
X020325D02*
D03*
D19*
X01565Y01495D02*
X0161D01*
X029544Y034356D02*
Y034574D01*
Y034356D02*
X02965Y03425D01*
X03035D01*
X0288Y023D02*
X02925Y02255D01*
X02825Y023D02*
X0288D01*
X02775Y0225D02*
X02825Y023D01*
X017353Y016203D02*
X01755Y0164D01*
X0161Y01495D02*
X017353Y016203D01*
X01385Y0226D02*
X01435Y0221D01*
X01385Y0226D02*
Y02317D01*
X015422Y030122D02*
Y030826D01*
X024502Y02187D02*
X02495Y022318D01*
X0298Y0335D02*
X031Y0323D01*
X0298Y0335D02*
Y033826D01*
X01653Y016203D02*
X017353D01*
X02271Y02034D02*
X02345Y0196D01*
X02271Y02034D02*
Y02187D01*
X023734Y021324D02*
Y02187D01*
X0267Y0226D02*
X02715Y02305D01*
X015753Y016597D02*
X01653D01*
Y016991D02*
Y01728D01*
X01667Y01742D01*
X016959D01*
X024502Y023652D02*
Y02413D01*
X02425Y0234D02*
X024502Y023652D01*
X0227Y0234D02*
X02425D01*
X022454Y023646D02*
X0227Y0234D01*
X022454Y023646D02*
Y02413D01*
X022522Y024828D02*
Y026628D01*
Y024828D02*
X0227Y02465D01*
Y02414D02*
Y02465D01*
X022916Y02418D02*
Y026384D01*
Y02418D02*
X022966Y02413D01*
X023309Y024959D02*
Y026741D01*
X023222Y024872D02*
X023309Y024959D01*
X023222Y02413D02*
Y024872D01*
X023703Y025003D02*
Y026397D01*
X023478Y024778D02*
X023703Y025003D01*
X023478Y02413D02*
Y024778D01*
X024097Y025097D02*
Y026697D01*
X023734Y024734D02*
X024097Y025097D01*
X023734Y02413D02*
Y024734D01*
X024491Y025191D02*
Y026391D01*
X02399Y02469D02*
X024491Y025191D01*
X02399Y02413D02*
Y02469D01*
X025235Y0248D02*
X025811Y024224D01*
X0244Y0248D02*
X025235D01*
X024246Y024646D02*
X0244Y0248D01*
X024246Y02413D02*
Y024646D01*
X025179Y0212D02*
X025764Y021784D01*
X02455Y0212D02*
X025179D01*
X024246Y021504D02*
X02455Y0212D01*
X024246Y021504D02*
Y02187D01*
X020841Y024226D02*
Y024841D01*
X0212Y0252D01*
X02185D01*
X022454Y024596D01*
Y02413D02*
Y024596D01*
X020841Y021783D02*
X021508Y02245D01*
X02225D01*
X022454Y022246D01*
Y02187D02*
Y022246D01*
X0148Y017001D02*
X015849D01*
X016056Y016794D01*
X01653D01*
X017022Y017972D02*
Y018878D01*
X016959Y017909D02*
X017022Y017972D01*
X016959Y01742D02*
Y017909D01*
X018103Y018803D02*
Y018877D01*
X017156Y017856D02*
X018103Y018803D01*
X017156Y01742D02*
Y017856D01*
X018299Y018D02*
X019176Y018877D01*
X01775Y018D02*
X018299D01*
X01755Y0178D02*
X01775Y018D01*
X01755Y01742D02*
Y0178D01*
X0162Y0164D02*
X01653D01*
X01575Y01595D02*
X0162Y0164D01*
X023222Y020422D02*
Y02187D01*
X022966Y020916D02*
Y02187D01*
Y020884D02*
Y020916D01*
Y020884D02*
X023Y02085D01*
X02615Y021D02*
X0267Y02155D01*
Y0226D01*
X023734Y021324D02*
X024058Y021D01*
X02615D01*
X02399Y02141D02*
X0241Y0213D01*
X02399Y02141D02*
Y02187D01*
X02345Y0196D02*
X023464Y019614D01*
X017353Y014947D02*
Y01538D01*
Y014947D02*
X01775Y01455D01*
X0281D01*
X0275Y0225D02*
X02775D01*
X02715Y02305D02*
X02785D01*
X0283Y0235D01*
X0285D01*
X01755Y01505D02*
Y01538D01*
Y01505D02*
X01785Y01475D01*
X0281Y01455D02*
X02925Y0157D01*
Y02255D01*
X01785Y01475D02*
X0278D01*
X0285Y01545D01*
Y0225D01*
D20*
X034249Y039001D02*
Y041088D01*
Y039001D02*
X03585Y0374D01*
X037D01*
X04035Y03405D01*
Y01705D02*
Y03405D01*
X0401Y0168D02*
X04035Y01705D01*
X03925Y0168D02*
X0401D01*
X01325Y02125D02*
Y0213D01*
Y02125D02*
X01435Y02015D01*
X034249Y041088D02*
Y0431D01*
X0337D02*
X034249D01*
X0329Y0423D02*
X0337Y0431D01*
X031724Y0423D02*
X0329D01*
X031122Y044028D02*
Y044776D01*
Y044028D02*
X03155Y0436D01*
X0332D01*
X0337Y0431D01*
X027424Y039476D02*
X028474D01*
X0267Y0402D02*
X027424Y039476D01*
X0267Y0402D02*
Y0427D01*
X025826Y043574D02*
X0267Y0427D01*
X02455Y043574D02*
X025826D01*
X021259Y043036D02*
Y04385D01*
X020922Y042699D02*
X021259Y043036D01*
X020922Y042699D02*
X021101Y04252D01*
Y04135D02*
Y04252D01*
Y0397D02*
Y04135D01*
X02095Y03875D02*
X021101Y038901D01*
Y0397D01*
X032838Y038938D02*
Y039461D01*
X03255Y03865D02*
X032838Y038938D01*
X02505Y03865D02*
X03255D01*
X02455Y03915D02*
X02505Y03865D01*
X02455Y03915D02*
Y039755D01*
X03085Y04085D02*
Y0428D01*
Y04085D02*
X03095Y04075D01*
X03145D01*
X03209Y04011D01*
Y039461D02*
Y04011D01*
X012223Y022328D02*
X01325Y0213D01*
X024426Y043574D02*
X02455D01*
X023367Y044633D02*
X024426Y043574D01*
X023367Y044633D02*
Y045542D01*
X021943D02*
X023367D01*
X021901Y044492D02*
Y0455D01*
X021259Y04385D02*
X021901Y044492D01*
D21*
X03825Y0208D02*
D03*
Y0198D02*
D03*
Y0188D02*
D03*
Y0178D02*
D03*
Y0168D02*
D03*
X03925D02*
D03*
Y0178D02*
D03*
Y0188D02*
D03*
Y0198D02*
D03*
X0275Y0225D02*
D03*
Y0235D02*
D03*
X0285Y0225D02*
D03*
Y0235D02*
D03*
Y0245D02*
D03*
X01935Y0235D02*
D03*
Y0225D02*
D03*
D22*
X03925Y0208D02*
D03*
X0275Y0245D02*
D03*
X01935D02*
D03*
D23*
X04005Y0454D02*
D03*
X01175Y01565D02*
D03*
Y0454D02*
D03*
D24*
X01275Y0354D02*
D03*
X01375Y0364D02*
D03*
Y0344D02*
D03*
X01175D02*
D03*
Y0364D02*
D03*
D25*
X02445Y0186D02*
D03*
X02345D02*
D03*
X02245D02*
D03*
X02145D02*
D03*
Y0196D02*
D03*
X02245D02*
D03*
X02345D02*
D03*
D26*
X02445D02*
D03*
D27*
X014173Y025984D02*
D03*
X013386D02*
D03*
X012598D02*
D03*
X011811D02*
D03*
X037795Y029134D02*
D03*
Y027559D02*
D03*
Y025984D02*
D03*
Y024409D02*
D03*
X037402Y029921D02*
D03*
X037008Y029134D02*
D03*
X037402Y028346D02*
D03*
X037008Y027559D02*
D03*
X037402Y026772D02*
D03*
X037008Y025984D02*
D03*
X037402Y025197D02*
D03*
X037008Y024409D02*
D03*
X036614Y029921D02*
D03*
X03622Y029134D02*
D03*
X036614Y028346D02*
D03*
X03622Y027559D02*
D03*
X036614Y026772D02*
D03*
X03622Y025984D02*
D03*
X036614Y025197D02*
D03*
X03622Y024409D02*
D03*
X035827Y029921D02*
D03*
X035433Y029134D02*
D03*
X035827Y028346D02*
D03*
X035433Y027559D02*
D03*
X035827Y026772D02*
D03*
X035433Y025984D02*
D03*
X035827Y025197D02*
D03*
X035433Y024409D02*
D03*
X035039Y029921D02*
D03*
X034646Y029134D02*
D03*
X035039Y028346D02*
D03*
X034646Y027559D02*
D03*
X035039Y026772D02*
D03*
X034646Y025984D02*
D03*
X035039Y025197D02*
D03*
X034646Y024409D02*
D03*
X015449Y036354D02*
D03*
X015178Y036232D02*
D03*
X015161Y035936D02*
D03*
Y035639D02*
D03*
X015174Y035342D02*
D03*
X01488Y035298D02*
D03*
X014586Y035342D02*
D03*
X014377Y035551D02*
D03*
X014119Y035699D02*
D03*
X013822Y035703D02*
D03*
X013525D02*
D03*
X013262Y035841D02*
D03*
X013024Y036017D02*
D03*
X012733Y036077D02*
D03*
X012445Y036004D02*
D03*
X012217Y035814D02*
D03*
X012089Y035546D02*
D03*
X012089Y035249D02*
D03*
X01222Y034983D02*
D03*
X012449Y034794D02*
D03*
X012738Y034724D02*
D03*
X013028Y034785D02*
D03*
X013265Y034963D02*
D03*
X01353Y035097D02*
D03*
X013827D02*
D03*
X014097Y034975D02*
D03*
X01431Y034767D02*
D03*
X014597Y034693D02*
D03*
X014894D02*
D03*
X015883Y0349D02*
D03*
X015902Y035196D02*
D03*
X015913Y036339D02*
D03*
X0163Y0215D02*
D03*
X0272Y0268D02*
D03*
X0227Y02925D02*
D03*
X0221D02*
D03*
X01435Y0221D02*
D03*
X0302Y02745D02*
D03*
X025197Y034646D02*
D03*
Y033071D02*
D03*
X024803Y035433D02*
D03*
X024409Y034646D02*
D03*
X024803Y033858D02*
D03*
X024409Y033071D02*
D03*
X024016Y035433D02*
D03*
X023622Y034646D02*
D03*
X024016Y033858D02*
D03*
X023622Y033071D02*
D03*
X027165Y044882D02*
D03*
X026772Y044095D02*
D03*
X026378Y044882D02*
D03*
X03937Y04252D02*
D03*
Y040945D02*
D03*
Y03937D02*
D03*
X038976Y043307D02*
D03*
X038583Y04252D02*
D03*
X038976Y041732D02*
D03*
X038583Y040945D02*
D03*
X038976Y040157D02*
D03*
X038583Y03937D02*
D03*
X038189Y043307D02*
D03*
X037795Y04252D02*
D03*
X038189Y041732D02*
D03*
X037795Y040945D02*
D03*
X038189Y040157D02*
D03*
X037795Y03937D02*
D03*
X037402Y043307D02*
D03*
X037008Y04252D02*
D03*
X037402Y041732D02*
D03*
X037008Y040945D02*
D03*
X037402Y040157D02*
D03*
X037008Y03937D02*
D03*
D28*
X0175Y023D02*
D03*
X031Y0323D02*
D03*
X02585Y0465D02*
D03*
X015753Y016597D02*
D03*
X01645Y01805D02*
D03*
X03205Y046D02*
D03*
X0203Y027D02*
D03*
X0109Y03055D02*
D03*
X01435Y02015D02*
D03*
X02315Y03025D02*
D03*
Y02815D02*
D03*
X021Y03475D02*
D03*
X031Y0343D02*
D03*
X03095Y03315D02*
D03*
X031Y0363D02*
D03*
X0305Y03555D02*
D03*
X0284Y0355D02*
D03*
Y03505D02*
D03*
Y0334D02*
D03*
X031122Y040178D02*
D03*
X0323Y0407D02*
D03*
X02095Y03875D02*
D03*
X01205Y0287D02*
D03*
Y0313D02*
D03*
X0163Y03185D02*
D03*
Y03095D02*
D03*
X02885Y02955D02*
D03*
Y02815D02*
D03*
X01885Y03D02*
D03*
X0186Y0296D02*
D03*
X018801Y031201D02*
D03*
X0289Y0328D02*
D03*
X022522Y026628D02*
D03*
X02175Y02475D02*
D03*
X022916Y026384D02*
D03*
X023309Y026741D02*
D03*
X023703Y026397D02*
D03*
X024097Y026697D02*
D03*
X024491Y026391D02*
D03*
X01575Y01595D02*
D03*
X023222Y020422D02*
D03*
X022966Y020916D02*
D03*
X0241Y0213D02*
D03*
D29*
X027222Y035385D02*
D03*
Y034385D02*
D03*
Y033385D02*
D03*
Y035885D02*
D03*
Y034885D02*
D03*
Y033885D02*
D03*
D30*
X026368Y036769D02*
D03*
X02558D02*
D03*
Y031832D02*
D03*
X026368D02*
D03*
D31*
X021817Y036704D02*
D03*
Y031896D02*
D03*
D32*
X022045Y0333D02*
D03*
Y0353D02*
D03*
D33*
X030056Y034574D02*
D03*
X0298D02*
D03*
X029544D02*
D03*
Y033826D02*
D03*
X0298D02*
D03*
X030056D02*
D03*
D34*
X0284Y036722D02*
D03*
Y035974D02*
D03*
X028081Y041422D02*
D03*
Y040674D02*
D03*
X028076Y043526D02*
D03*
Y042778D02*
D03*
X028149Y029578D02*
D03*
Y030326D02*
D03*
X028151Y028127D02*
D03*
Y027379D02*
D03*
X025335Y029573D02*
D03*
Y030321D02*
D03*
X024162Y028129D02*
D03*
Y027381D02*
D03*
X025335Y027378D02*
D03*
Y028126D02*
D03*
X024112Y030325D02*
D03*
Y029577D02*
D03*
X020841Y023478D02*
D03*
Y024226D02*
D03*
Y021783D02*
D03*
Y022531D02*
D03*
X025764Y022532D02*
D03*
Y021784D02*
D03*
X025811Y023476D02*
D03*
Y024224D02*
D03*
X011899Y024228D02*
D03*
Y024976D02*
D03*
Y022328D02*
D03*
Y023076D02*
D03*
X015899Y024228D02*
D03*
Y024976D02*
D03*
X015901Y023072D02*
D03*
Y022324D02*
D03*
X015949Y018878D02*
D03*
Y019626D02*
D03*
X017022Y018878D02*
D03*
Y019626D02*
D03*
X018103Y019625D02*
D03*
Y018877D02*
D03*
X019176Y019625D02*
D03*
Y018877D02*
D03*
D35*
X02455Y039755D02*
D03*
Y043574D02*
D03*
D36*
X021901Y0455D02*
D03*
X020799D02*
D03*
X023367Y045542D02*
D03*
X024469D02*
D03*
X034249Y041088D02*
D03*
X035351D02*
D03*
X034249Y0431D02*
D03*
X035351D02*
D03*
X021101Y04135D02*
D03*
X019999D02*
D03*
X021101Y0397D02*
D03*
X019999D02*
D03*
D37*
X029676Y0413D02*
D03*
Y0418D02*
D03*
Y0428D02*
D03*
X031724Y0413D02*
D03*
Y0418D02*
D03*
Y0428D02*
D03*
X029676Y0423D02*
D03*
X031724D02*
D03*
D38*
X021259Y04385D02*
D03*
X019941D02*
D03*
D39*
X013712Y030926D02*
D03*
Y031674D02*
D03*
X012688Y0313D02*
D03*
X013712Y028326D02*
D03*
Y029074D02*
D03*
X012688Y0287D02*
D03*
X026238Y030324D02*
D03*
Y029576D02*
D03*
X027262Y02995D02*
D03*
X026238Y028124D02*
D03*
Y027376D02*
D03*
X027262Y02775D02*
D03*
D40*
X020274Y033062D02*
D03*
X019526D02*
D03*
X0199Y032038D02*
D03*
D41*
X022198Y02413D02*
D03*
X022454D02*
D03*
X02271D02*
D03*
X022966D02*
D03*
X023222D02*
D03*
X023478D02*
D03*
X023734D02*
D03*
X02399D02*
D03*
X024246D02*
D03*
X024502D02*
D03*
Y02187D02*
D03*
X024246D02*
D03*
X02399D02*
D03*
X023734D02*
D03*
X023478D02*
D03*
X023222D02*
D03*
X022966D02*
D03*
X02271D02*
D03*
X022454D02*
D03*
X022198D02*
D03*
D42*
X01422Y02317D02*
D03*
X01385D02*
D03*
X01348D02*
D03*
Y02413D02*
D03*
X01422D02*
D03*
D43*
X01325Y0213D02*
D03*
X01455D02*
D03*
D44*
X0148Y017001D02*
D03*
Y015899D02*
D03*
D45*
X01755Y0164D02*
D03*
D46*
X016959Y01538D02*
D03*
X017156D02*
D03*
X017353D02*
D03*
X01755D02*
D03*
X017747D02*
D03*
X017944D02*
D03*
X018141D02*
D03*
Y01742D02*
D03*
X017944D02*
D03*
X017747D02*
D03*
X01755D02*
D03*
X017353D02*
D03*
X017156D02*
D03*
X016959D02*
D03*
D47*
X01857Y015809D02*
D03*
Y016006D02*
D03*
Y016203D02*
D03*
Y0164D02*
D03*
Y016597D02*
D03*
Y016794D02*
D03*
Y016991D02*
D03*
X01653D02*
D03*
Y016794D02*
D03*
Y016597D02*
D03*
Y0164D02*
D03*
Y016203D02*
D03*
Y016006D02*
D03*
Y015809D02*
D03*
D48*
X02245Y0196D02*
Y02005D01*
X022198Y020302D02*
X02245Y02005D01*
X022198Y020302D02*
Y02187D01*
X02445Y0196D02*
Y02025D01*
X023478Y021222D02*
X02445Y02025D01*
X023478Y021222D02*
Y02187D01*
M02*
