G04 Layer_Color=128*
%FSTAX24Y24*%
%MOIN*%
G70*
G01*
G75*
%ADD97C,0.0020*%
D97*
X038033Y0208D02*
X038467D01*
X03825Y020583D02*
Y021017D01*
X038033Y0198D02*
X038467D01*
X03825Y019583D02*
Y020017D01*
X038033Y0188D02*
X038467D01*
X03825Y018583D02*
Y019017D01*
X038033Y0178D02*
X038467D01*
X03825Y017583D02*
Y018017D01*
X038033Y0168D02*
X038467D01*
X03825Y016583D02*
Y017017D01*
X039033Y0168D02*
X039467D01*
X03925Y016583D02*
Y017017D01*
X039033Y0178D02*
X039467D01*
X03925Y017583D02*
Y018017D01*
X039033Y0188D02*
X039467D01*
X03925Y018583D02*
Y019017D01*
X039033Y0198D02*
X039467D01*
X03925Y019583D02*
Y020017D01*
X039033Y0208D02*
X039467D01*
X03925Y020583D02*
Y021017D01*
X039459Y0454D02*
X040641D01*
X04005Y044809D02*
Y045991D01*
X011159Y01565D02*
X012341D01*
X01175Y015059D02*
Y016241D01*
X011159Y0454D02*
X012341D01*
X01175Y044809D02*
Y045991D01*
X027283Y0225D02*
X027717D01*
X0275Y022283D02*
Y022717D01*
X027283Y0235D02*
X027717D01*
X0275Y023283D02*
Y023717D01*
X027283Y0245D02*
X027717D01*
X0275Y024283D02*
Y024717D01*
X028283Y0225D02*
X028717D01*
X0285Y022283D02*
Y022717D01*
X028283Y0235D02*
X028717D01*
X0285Y023283D02*
Y023717D01*
X028283Y0245D02*
X028717D01*
X0285Y024283D02*
Y024717D01*
X012435Y0354D02*
X013065D01*
X01275Y035085D02*
Y035715D01*
X013435Y0364D02*
X014065D01*
X01375Y036085D02*
Y036715D01*
X013435Y0344D02*
X014065D01*
X01375Y034085D02*
Y034715D01*
X011435Y0344D02*
X012065D01*
X01175Y034085D02*
Y034715D01*
X011435Y0364D02*
X012065D01*
X01175Y036085D02*
Y036715D01*
X024233Y0186D02*
X024667D01*
X02445Y018383D02*
Y018817D01*
X023233Y0186D02*
X023667D01*
X02345Y018383D02*
Y018817D01*
X022233Y0186D02*
X022667D01*
X02245Y018383D02*
Y018817D01*
X021233Y0186D02*
X021667D01*
X02145Y018383D02*
Y018817D01*
X021233Y0196D02*
X021667D01*
X02145Y019383D02*
Y019817D01*
X022233Y0196D02*
X022667D01*
X02245Y019383D02*
Y019817D01*
X023233Y0196D02*
X023667D01*
X02345Y019383D02*
Y019817D01*
X024233Y0196D02*
X024667D01*
X02445Y019383D02*
Y019817D01*
X019133Y0245D02*
X019567D01*
X01935Y024283D02*
Y024717D01*
X019133Y0235D02*
X019567D01*
X01935Y023283D02*
Y023717D01*
X019133Y0225D02*
X019567D01*
X01935Y022283D02*
Y022717D01*
X014114Y025984D02*
X014232D01*
X014173Y025925D02*
Y026043D01*
X013327Y025984D02*
X013445D01*
X013386Y025925D02*
Y026043D01*
X012539Y025984D02*
X012657D01*
X012598Y025925D02*
Y026043D01*
X011752Y025984D02*
X01187D01*
X011811Y025925D02*
Y026043D01*
X037736Y029134D02*
X037854D01*
X037795Y029075D02*
Y029193D01*
X037736Y027559D02*
X037854D01*
X037795Y0275D02*
Y027618D01*
X037736Y025984D02*
X037854D01*
X037795Y025925D02*
Y026043D01*
X037736Y024409D02*
X037854D01*
X037795Y02435D02*
Y024469D01*
X037343Y029921D02*
X037461D01*
X037402Y029862D02*
Y02998D01*
X036949Y029134D02*
X037067D01*
X037008Y029075D02*
Y029193D01*
X037343Y028346D02*
X037461D01*
X037402Y028287D02*
Y028406D01*
X036949Y027559D02*
X037067D01*
X037008Y0275D02*
Y027618D01*
X037343Y026772D02*
X037461D01*
X037402Y026713D02*
Y026831D01*
X036949Y025984D02*
X037067D01*
X037008Y025925D02*
Y026043D01*
X037343Y025197D02*
X037461D01*
X037402Y025138D02*
Y025256D01*
X036949Y024409D02*
X037067D01*
X037008Y02435D02*
Y024469D01*
X036555Y029921D02*
X036673D01*
X036614Y029862D02*
Y02998D01*
X036161Y029134D02*
X03628D01*
X03622Y029075D02*
Y029193D01*
X036555Y028346D02*
X036673D01*
X036614Y028287D02*
Y028406D01*
X036161Y027559D02*
X03628D01*
X03622Y0275D02*
Y027618D01*
X036555Y026772D02*
X036673D01*
X036614Y026713D02*
Y026831D01*
X036161Y025984D02*
X03628D01*
X03622Y025925D02*
Y026043D01*
X036555Y025197D02*
X036673D01*
X036614Y025138D02*
Y025256D01*
X036161Y024409D02*
X03628D01*
X03622Y02435D02*
Y024469D01*
X035768Y029921D02*
X035886D01*
X035827Y029862D02*
Y02998D01*
X035374Y029134D02*
X035492D01*
X035433Y029075D02*
Y029193D01*
X035768Y028346D02*
X035886D01*
X035827Y028287D02*
Y028406D01*
X035374Y027559D02*
X035492D01*
X035433Y0275D02*
Y027618D01*
X035768Y026772D02*
X035886D01*
X035827Y026713D02*
Y026831D01*
X035374Y025984D02*
X035492D01*
X035433Y025925D02*
Y026043D01*
X035768Y025197D02*
X035886D01*
X035827Y025138D02*
Y025256D01*
X035374Y024409D02*
X035492D01*
X035433Y02435D02*
Y024469D01*
X03498Y029921D02*
X035098D01*
X035039Y029862D02*
Y02998D01*
X034587Y029134D02*
X034705D01*
X034646Y029075D02*
Y029193D01*
X03498Y028346D02*
X035098D01*
X035039Y028287D02*
Y028406D01*
X034587Y027559D02*
X034705D01*
X034646Y0275D02*
Y027618D01*
X03498Y026772D02*
X035098D01*
X035039Y026713D02*
Y026831D01*
X034587Y025984D02*
X034705D01*
X034646Y025925D02*
Y026043D01*
X03498Y025197D02*
X035098D01*
X035039Y025138D02*
Y025256D01*
X034587Y024409D02*
X034705D01*
X034646Y02435D02*
Y024469D01*
X01539Y036354D02*
X015508D01*
X015449Y036295D02*
Y036413D01*
X015119Y036232D02*
X015237D01*
X015178Y036173D02*
Y036291D01*
X015102Y035936D02*
X01522D01*
X015161Y035876D02*
Y035995D01*
X015102Y035639D02*
X01522D01*
X015161Y03558D02*
Y035698D01*
X015115Y035342D02*
X015233D01*
X015174Y035283D02*
Y035401D01*
X014821Y035298D02*
X014939D01*
X01488Y035239D02*
Y035357D01*
X014527Y035342D02*
X014646D01*
X014586Y035283D02*
Y035401D01*
X014317Y035551D02*
X014436D01*
X014377Y035492D02*
Y035611D01*
X01406Y035699D02*
X014178D01*
X014119Y03564D02*
Y035758D01*
X013763Y035703D02*
X013881D01*
X013822Y035644D02*
Y035762D01*
X013466Y035703D02*
X013584D01*
X013525Y035644D02*
Y035762D01*
X013203Y035841D02*
X013321D01*
X013262Y035782D02*
Y0359D01*
X012965Y036017D02*
X013083D01*
X013024Y035958D02*
Y036076D01*
X012674Y036077D02*
X012792D01*
X012733Y036017D02*
Y036136D01*
X012386Y036004D02*
X012504D01*
X012445Y035945D02*
Y036063D01*
X012158Y035814D02*
X012276D01*
X012217Y035755D02*
Y035873D01*
X01203Y035546D02*
X012148D01*
X012089Y035487D02*
Y035605D01*
X01203Y035249D02*
X012149D01*
X012089Y03519D02*
Y035308D01*
X012161Y034983D02*
X012279D01*
X01222Y034923D02*
Y035042D01*
X01239Y034794D02*
X012508D01*
X012449Y034735D02*
Y034853D01*
X012679Y034724D02*
X012797D01*
X012738Y034665D02*
Y034783D01*
X012969Y034785D02*
X013087D01*
X013028Y034726D02*
Y034844D01*
X013206Y034963D02*
X013324D01*
X013265Y034904D02*
Y035022D01*
X013471Y035097D02*
X013589D01*
X01353Y035038D02*
Y035156D01*
X013768Y035097D02*
X013886D01*
X013827Y035038D02*
Y035156D01*
X014038Y034975D02*
X014156D01*
X014097Y034916D02*
Y035034D01*
X014251Y034767D02*
X014369D01*
X01431Y034708D02*
Y034826D01*
X014538Y034693D02*
X014656D01*
X014597Y034634D02*
Y034752D01*
X014835Y034693D02*
X014953D01*
X014894Y034634D02*
Y034752D01*
X015824Y0349D02*
X015942D01*
X015883Y034841D02*
Y034959D01*
X015843Y035196D02*
X015961D01*
X015902Y035137D02*
Y035255D01*
X015854Y036339D02*
X015972D01*
X015913Y03628D02*
Y036398D01*
X016241Y0215D02*
X016359D01*
X0163Y021441D02*
Y021559D01*
X027141Y0268D02*
X027259D01*
X0272Y026741D02*
Y026859D01*
X017421Y023D02*
X017579D01*
X0175Y022921D02*
Y023079D01*
X022641Y02925D02*
X022759D01*
X0227Y029191D02*
Y029309D01*
X022041Y02925D02*
X022159D01*
X0221Y029191D02*
Y029309D01*
X014291Y0221D02*
X014409D01*
X01435Y022041D02*
Y022159D01*
X030921Y0323D02*
X031079D01*
X031Y032221D02*
Y032379D01*
X030141Y02745D02*
X030259D01*
X0302Y027391D02*
Y027509D01*
X025771Y0465D02*
X025929D01*
X02585Y046421D02*
Y046579D01*
X025138Y034646D02*
X025256D01*
X025197Y034587D02*
Y034705D01*
X025138Y033071D02*
X025256D01*
X025197Y033012D02*
Y03313D01*
X024744Y035433D02*
X024862D01*
X024803Y035374D02*
Y035492D01*
X02435Y034646D02*
X024469D01*
X024409Y034587D02*
Y034705D01*
X024744Y033858D02*
X024862D01*
X024803Y033799D02*
Y033917D01*
X02435Y033071D02*
X024469D01*
X024409Y033012D02*
Y03313D01*
X023957Y035433D02*
X024075D01*
X024016Y035374D02*
Y035492D01*
X023563Y034646D02*
X023681D01*
X023622Y034587D02*
Y034705D01*
X023957Y033858D02*
X024075D01*
X024016Y033799D02*
Y033917D01*
X023563Y033071D02*
X023681D01*
X023622Y033012D02*
Y03313D01*
X027106Y044882D02*
X027224D01*
X027165Y044823D02*
Y044941D01*
X026713Y044095D02*
X026831D01*
X026772Y044035D02*
Y044154D01*
X026319Y044882D02*
X026437D01*
X026378Y044823D02*
Y044941D01*
X039311Y04252D02*
X039429D01*
X03937Y042461D02*
Y042579D01*
X039311Y040945D02*
X039429D01*
X03937Y040886D02*
Y041004D01*
X039311Y03937D02*
X039429D01*
X03937Y039311D02*
Y039429D01*
X038917Y043307D02*
X039035D01*
X038976Y043248D02*
Y043366D01*
X038524Y04252D02*
X038642D01*
X038583Y042461D02*
Y042579D01*
X038917Y041732D02*
X039035D01*
X038976Y041673D02*
Y041791D01*
X038524Y040945D02*
X038642D01*
X038583Y040886D02*
Y041004D01*
X038917Y040157D02*
X039035D01*
X038976Y040098D02*
Y040217D01*
X038524Y03937D02*
X038642D01*
X038583Y039311D02*
Y039429D01*
X03813Y043307D02*
X038248D01*
X038189Y043248D02*
Y043366D01*
X037736Y04252D02*
X037854D01*
X037795Y042461D02*
Y042579D01*
X03813Y041732D02*
X038248D01*
X038189Y041673D02*
Y041791D01*
X037736Y040945D02*
X037854D01*
X037795Y040886D02*
Y041004D01*
X03813Y040157D02*
X038248D01*
X038189Y040098D02*
Y040217D01*
X037736Y03937D02*
X037854D01*
X037795Y039311D02*
Y039429D01*
X037343Y043307D02*
X037461D01*
X037402Y043248D02*
Y043366D01*
X036949Y04252D02*
X037067D01*
X037008Y042461D02*
Y042579D01*
X037343Y041732D02*
X037461D01*
X037402Y041673D02*
Y041791D01*
X036949Y040945D02*
X037067D01*
X037008Y040886D02*
Y041004D01*
X037343Y040157D02*
X037461D01*
X037402Y040098D02*
Y040217D01*
X036949Y03937D02*
X037067D01*
X037008Y039311D02*
Y039429D01*
X015674Y016597D02*
X015832D01*
X015753Y016518D02*
Y016676D01*
X016371Y01805D02*
X016529D01*
X01645Y017971D02*
Y018129D01*
X031971Y046D02*
X032129D01*
X03205Y045921D02*
Y046079D01*
X020221Y027D02*
X020379D01*
X0203Y026921D02*
Y027079D01*
X010821Y03055D02*
X010979D01*
X0109Y030471D02*
Y030629D01*
X014271Y02015D02*
X014429D01*
X01435Y020071D02*
Y020229D01*
X023071Y03025D02*
X023229D01*
X02315Y030171D02*
Y030329D01*
X023071Y02815D02*
X023229D01*
X02315Y028071D02*
Y028229D01*
X020921Y03475D02*
X021079D01*
X021Y034671D02*
Y034829D01*
X030921Y0343D02*
X031079D01*
X031Y034221D02*
Y034379D01*
X030871Y03315D02*
X031029D01*
X03095Y033071D02*
Y033229D01*
X030921Y0363D02*
X031079D01*
X031Y036221D02*
Y036379D01*
X030421Y03555D02*
X030579D01*
X0305Y035471D02*
Y035629D01*
X028321Y0355D02*
X028479D01*
X0284Y035421D02*
Y035579D01*
X028321Y03505D02*
X028479D01*
X0284Y034971D02*
Y035129D01*
X028321Y0334D02*
X028479D01*
X0284Y033321D02*
Y033479D01*
X031044Y040178D02*
X031201D01*
X031122Y040099D02*
Y040256D01*
X032221Y0407D02*
X032379D01*
X0323Y040621D02*
Y040779D01*
X020871Y03875D02*
X021029D01*
X02095Y038671D02*
Y038829D01*
X011971Y0287D02*
X012129D01*
X01205Y028621D02*
Y028779D01*
X011971Y0313D02*
X012129D01*
X01205Y031221D02*
Y031379D01*
X016221Y03185D02*
X016379D01*
X0163Y031771D02*
Y031929D01*
X016221Y03095D02*
X016379D01*
X0163Y030871D02*
Y031029D01*
X028771Y02955D02*
X028929D01*
X02885Y029471D02*
Y029629D01*
X028771Y02815D02*
X028929D01*
X02885Y028071D02*
Y028229D01*
X018771Y03D02*
X018929D01*
X01885Y029921D02*
Y030079D01*
X018521Y0296D02*
X018679D01*
X0186Y029521D02*
Y029679D01*
X018723Y031201D02*
X01888D01*
X018801Y031123D02*
Y03128D01*
X028821Y0328D02*
X028979D01*
X0289Y032721D02*
Y032879D01*
X022443Y026628D02*
X022601D01*
X022522Y026549D02*
Y026707D01*
X021671Y02475D02*
X021829D01*
X02175Y024671D02*
Y024829D01*
X022837Y026384D02*
X022994D01*
X022916Y026306D02*
Y026463D01*
X023231Y026741D02*
X023388D01*
X023309Y026662D02*
Y026819D01*
X023624Y026397D02*
X023782D01*
X023703Y026318D02*
Y026476D01*
X024018Y026697D02*
X024176D01*
X024097Y026618D02*
Y026776D01*
X024412Y026391D02*
X024569D01*
X024491Y026312D02*
Y026469D01*
X015671Y01595D02*
X015829D01*
X01575Y015871D02*
Y016029D01*
X023143Y020422D02*
X023301D01*
X023222Y020343D02*
Y020501D01*
X022887Y020916D02*
X023045D01*
X022966Y020837D02*
Y020995D01*
X024021Y0213D02*
X024179D01*
X0241Y021221D02*
Y021379D01*
M02*
