G04 Layer_Color=128*
%FSTAX24Y24*%
%MOIN*%
G70*
G01*
G75*
%ADD13R,0.0472X0.0551*%
%ADD29R,0.0453X0.0256*%
%ADD30R,0.0512X0.0177*%
%ADD31R,0.0669X0.0551*%
%ADD32R,0.0315X0.0213*%
%ADD34R,0.0551X0.0472*%
%ADD35R,0.2126X0.1142*%
%ADD36R,0.0630X0.1063*%
%ADD37R,0.0866X0.0236*%
%ADD38R,0.0531X0.0709*%
%ADD39R,0.0394X0.0236*%
%ADD40R,0.0236X0.0394*%
G04:AMPARAMS|DCode=41|XSize=61.8mil|YSize=16.1mil|CornerRadius=2mil|HoleSize=0mil|Usage=FLASHONLY|Rotation=270.000|XOffset=0mil|YOffset=0mil|HoleType=Round|Shape=RoundedRectangle|*
%AMROUNDEDRECTD41*
21,1,0.0618,0.0121,0,0,270.0*
21,1,0.0578,0.0161,0,0,270.0*
1,1,0.0040,-0.0061,-0.0289*
1,1,0.0040,-0.0061,0.0289*
1,1,0.0040,0.0061,0.0289*
1,1,0.0040,0.0061,-0.0289*
%
%ADD41ROUNDEDRECTD41*%
G04:AMPARAMS|DCode=42|XSize=26.4mil|YSize=46.1mil|CornerRadius=1.6mil|HoleSize=0mil|Usage=FLASHONLY|Rotation=180.000|XOffset=0mil|YOffset=0mil|HoleType=Round|Shape=RoundedRectangle|*
%AMROUNDEDRECTD42*
21,1,0.0264,0.0429,0,0,180.0*
21,1,0.0232,0.0461,0,0,180.0*
1,1,0.0032,-0.0116,0.0214*
1,1,0.0032,0.0116,0.0214*
1,1,0.0032,0.0116,-0.0214*
1,1,0.0032,-0.0116,-0.0214*
%
%ADD42ROUNDEDRECTD42*%
%ADD43R,0.0669X0.0669*%
%ADD44R,0.1063X0.0630*%
%ADD46R,0.0100X0.0354*%
%ADD47R,0.0354X0.0100*%
G36*
X018141Y016498D02*
X017649D01*
Y016992D01*
X018141D01*
Y016498D01*
D02*
G37*
G36*
X029859Y033678D02*
X029741D01*
Y033974D01*
X029859D01*
Y033678D01*
D02*
G37*
G36*
X017452Y016498D02*
X016958D01*
Y016992D01*
X017452D01*
Y016498D01*
D02*
G37*
G36*
Y015809D02*
X016958D01*
Y016301D01*
X017452D01*
Y015809D01*
D02*
G37*
G36*
X018141D02*
X017648D01*
Y016302D01*
X018141D01*
Y015809D01*
D02*
G37*
G36*
X029859Y034426D02*
X029741D01*
Y034722D01*
X029859D01*
Y034426D01*
D02*
G37*
G36*
X030116Y034427D02*
X029997D01*
Y034722D01*
X030116D01*
Y034427D01*
D02*
G37*
G36*
X029603Y034426D02*
X029485D01*
Y034722D01*
X029603D01*
Y034426D01*
D02*
G37*
G36*
X029603Y033678D02*
X029485D01*
Y033974D01*
X029603D01*
Y033678D01*
D02*
G37*
G36*
X030115Y033678D02*
X029997D01*
Y033974D01*
X030115D01*
Y033678D01*
D02*
G37*
D13*
X033778Y032631D02*
D03*
X034526D02*
D03*
X033778Y035511D02*
D03*
X034526D02*
D03*
X033778Y034071D02*
D03*
X034526D02*
D03*
X032726Y034064D02*
D03*
X031978D02*
D03*
X032726Y035504D02*
D03*
X031978D02*
D03*
X032726Y032624D02*
D03*
X031978D02*
D03*
X032843Y044774D02*
D03*
X032095D02*
D03*
X029221Y044749D02*
D03*
X028473D02*
D03*
X032838Y039461D02*
D03*
X03209D02*
D03*
X030374Y044776D02*
D03*
X031122D02*
D03*
X028474Y039476D02*
D03*
X029222D02*
D03*
X030374Y039426D02*
D03*
X031122D02*
D03*
X020922Y042699D02*
D03*
X020174D02*
D03*
X012474Y032776D02*
D03*
X013222D02*
D03*
X014674Y030826D02*
D03*
X015422D02*
D03*
X015426Y031781D02*
D03*
X014678D02*
D03*
X015426Y029198D02*
D03*
X014678D02*
D03*
X014674Y028193D02*
D03*
X015422D02*
D03*
X013226Y027224D02*
D03*
X012478D02*
D03*
X020326Y027987D02*
D03*
X019578D02*
D03*
X020326Y029011D02*
D03*
X019578D02*
D03*
X019574Y030176D02*
D03*
X020322D02*
D03*
X019574Y033826D02*
D03*
X020322D02*
D03*
X020326Y034774D02*
D03*
X019578D02*
D03*
X019577Y031201D02*
D03*
X020325D02*
D03*
D29*
X027222Y035385D02*
D03*
Y034385D02*
D03*
Y033385D02*
D03*
Y035885D02*
D03*
Y034885D02*
D03*
Y033885D02*
D03*
D30*
X026368Y036769D02*
D03*
X02558D02*
D03*
Y031832D02*
D03*
X026368D02*
D03*
D31*
X021817Y036704D02*
D03*
Y031896D02*
D03*
D32*
X022045Y0333D02*
D03*
Y0353D02*
D03*
D34*
X0284Y036722D02*
D03*
Y035974D02*
D03*
X028081Y041422D02*
D03*
Y040674D02*
D03*
X028076Y043526D02*
D03*
Y042778D02*
D03*
X028149Y029578D02*
D03*
Y030326D02*
D03*
X028151Y028127D02*
D03*
Y027379D02*
D03*
X025335Y029573D02*
D03*
Y030321D02*
D03*
X024162Y028129D02*
D03*
Y027381D02*
D03*
X025335Y027378D02*
D03*
Y028126D02*
D03*
X024112Y030325D02*
D03*
Y029577D02*
D03*
X020841Y023478D02*
D03*
Y024226D02*
D03*
Y021783D02*
D03*
Y022531D02*
D03*
X025764Y022532D02*
D03*
Y021784D02*
D03*
X025811Y023476D02*
D03*
Y024224D02*
D03*
X011899Y024228D02*
D03*
Y024976D02*
D03*
Y022328D02*
D03*
Y023076D02*
D03*
X015899Y024228D02*
D03*
Y024976D02*
D03*
X015901Y023072D02*
D03*
Y022324D02*
D03*
X015949Y018878D02*
D03*
Y019626D02*
D03*
X017022Y018878D02*
D03*
Y019626D02*
D03*
X018103Y019625D02*
D03*
Y018877D02*
D03*
X019176Y019625D02*
D03*
Y018877D02*
D03*
D35*
X02455Y039755D02*
D03*
Y043574D02*
D03*
D36*
X021901Y0455D02*
D03*
X020799D02*
D03*
X023367Y045542D02*
D03*
X024469D02*
D03*
X034249Y041088D02*
D03*
X035351D02*
D03*
X034249Y0431D02*
D03*
X035351D02*
D03*
X021101Y04135D02*
D03*
X019999D02*
D03*
X021101Y0397D02*
D03*
X019999D02*
D03*
D37*
X029676Y0413D02*
D03*
Y0418D02*
D03*
Y0428D02*
D03*
X031724Y0413D02*
D03*
Y0418D02*
D03*
Y0428D02*
D03*
X029676Y0423D02*
D03*
X031724D02*
D03*
D38*
X021259Y04385D02*
D03*
X019941D02*
D03*
D39*
X013712Y030926D02*
D03*
Y031674D02*
D03*
X012688Y0313D02*
D03*
X013712Y028326D02*
D03*
Y029074D02*
D03*
X012688Y0287D02*
D03*
X026238Y030324D02*
D03*
Y029576D02*
D03*
X027262Y02995D02*
D03*
X026238Y028124D02*
D03*
Y027376D02*
D03*
X027262Y02775D02*
D03*
D40*
X020274Y033062D02*
D03*
X019526D02*
D03*
X0199Y032038D02*
D03*
D41*
X022198Y02413D02*
D03*
X022454D02*
D03*
X02271D02*
D03*
X022966D02*
D03*
X023222D02*
D03*
X023478D02*
D03*
X023734D02*
D03*
X02399D02*
D03*
X024246D02*
D03*
X024502D02*
D03*
Y02187D02*
D03*
X024246D02*
D03*
X02399D02*
D03*
X023734D02*
D03*
X023478D02*
D03*
X023222D02*
D03*
X022966D02*
D03*
X02271D02*
D03*
X022454D02*
D03*
X022198D02*
D03*
D42*
X01422Y02317D02*
D03*
X01385D02*
D03*
X01348D02*
D03*
Y02413D02*
D03*
X01422D02*
D03*
D43*
X01325Y0213D02*
D03*
X01455D02*
D03*
D44*
X0148Y017001D02*
D03*
Y015899D02*
D03*
D46*
X016959Y01538D02*
D03*
X017156D02*
D03*
X017353D02*
D03*
X01755D02*
D03*
X017747D02*
D03*
X017944D02*
D03*
X018141D02*
D03*
Y01742D02*
D03*
X017944D02*
D03*
X017747D02*
D03*
X01755D02*
D03*
X017353D02*
D03*
X017156D02*
D03*
X016959D02*
D03*
D47*
X01857Y015809D02*
D03*
Y016006D02*
D03*
Y016203D02*
D03*
Y0164D02*
D03*
Y016597D02*
D03*
Y016794D02*
D03*
Y016991D02*
D03*
X01653D02*
D03*
Y016794D02*
D03*
Y016597D02*
D03*
Y0164D02*
D03*
Y016203D02*
D03*
Y016006D02*
D03*
Y015809D02*
D03*
M02*
