G04 Layer_Color=16711935*
%FSTAX24Y24*%
%MOIN*%
G70*
G01*
G75*
%ADD49C,0.0079*%
%ADD53C,0.0039*%
%ADD57C,0.0050*%
%ADD58C,0.0100*%
%ADD59C,0.0060*%
%ADD95C,0.0080*%
G36*
X030115Y034446D02*
X029997D01*
Y034672D01*
X030115D01*
Y034446D01*
D02*
G37*
G36*
X029603Y034446D02*
X029485D01*
Y034672D01*
X029603D01*
Y034446D01*
D02*
G37*
G36*
X029912Y041204D02*
X02948D01*
Y041396D01*
X029912D01*
Y041204D01*
D02*
G37*
G36*
X029859Y034446D02*
X029741D01*
Y034672D01*
X029859D01*
Y034446D01*
D02*
G37*
G36*
X030116Y033727D02*
X029997D01*
Y033954D01*
X030116D01*
Y033727D01*
D02*
G37*
G36*
X029603Y033727D02*
X029485D01*
Y033954D01*
X029603D01*
Y033727D01*
D02*
G37*
G36*
X029859Y033728D02*
X029741D01*
Y033954D01*
X029859D01*
Y033728D01*
D02*
G37*
G36*
X031921Y042204D02*
X031487D01*
Y042397D01*
X031921D01*
Y042204D01*
D02*
G37*
G36*
X029912Y042704D02*
X02948D01*
Y042897D01*
X029912D01*
Y042704D01*
D02*
G37*
G36*
X031922D02*
X031487D01*
Y042898D01*
X031922D01*
Y042704D01*
D02*
G37*
G36*
X029911Y042204D02*
X02948D01*
Y042397D01*
X029911D01*
Y042204D01*
D02*
G37*
G36*
X031922Y041204D02*
X031487D01*
Y041396D01*
X031922D01*
Y041204D01*
D02*
G37*
G36*
X029913Y041704D02*
X02948D01*
Y041896D01*
X029913D01*
Y041704D01*
D02*
G37*
G36*
X031921D02*
X031487D01*
Y041896D01*
X031921D01*
Y041704D01*
D02*
G37*
D49*
X027852Y035385D02*
G03*
X027852Y035385I-000039J0D01*
G01*
X030475Y027774D02*
G03*
X030475Y027774I-000039J0D01*
G01*
X022238Y02465D02*
G03*
X022238Y02465I-000039J0D01*
G01*
D53*
X015336Y034385D02*
Y035015D01*
X015651Y034385D02*
Y035015D01*
X015336Y034385D02*
X015651D01*
X015336Y035015D02*
X015651D01*
X016293Y034385D02*
Y035015D01*
X016607Y034385D02*
Y035015D01*
X016293Y034385D02*
X016607D01*
X016293Y035015D02*
X016607D01*
D57*
X027391Y03181D02*
Y03679D01*
X021309Y03181D02*
X027391D01*
X021309D02*
Y03679D01*
X027391D01*
X029806Y025844D02*
Y037656D01*
X017994D02*
X029806D01*
X017994Y025844D02*
Y037656D01*
Y025844D02*
X029806D01*
X02207Y022134D02*
Y023866D01*
X02463Y022134D02*
Y023866D01*
X02207D02*
X02463D01*
X02207Y022134D02*
X02463D01*
X01324Y023296D02*
Y024004D01*
Y023296D02*
X01446D01*
Y024004D01*
X01324D02*
X01446D01*
D58*
X031409Y043192D02*
G03*
X031409Y043192I-000118J0D01*
G01*
D59*
X029398Y03443D02*
X030202D01*
X029398Y03397D02*
X030202D01*
D95*
X031251Y041105D02*
Y042995D01*
X029952Y041105D02*
Y042995D01*
X031251D01*
X031448D01*
Y041105D02*
Y042995D01*
X031251Y041105D02*
X031448D01*
X029952D02*
X031251D01*
M02*
