G04 Layer_Color=32896*
%FSTAX24Y24*%
%MOIN*%
G70*
G01*
G75*
%ADD49C,0.0079*%
%ADD56C,0.0070*%
%ADD57C,0.0050*%
%ADD58C,0.0100*%
%ADD93C,0.0055*%
%ADD94C,0.0079*%
D49*
X027852Y035385D02*
G03*
X027852Y035385I-000039J0D01*
G01*
X013279Y030847D02*
G03*
X013121Y030847I-000079J0D01*
G01*
X013279Y028247D02*
G03*
X013121Y028247I-000079J0D01*
G01*
X026671Y030403D02*
G03*
X026829Y030403I000079J0D01*
G01*
X026671Y028203D02*
G03*
X026829Y028203I000079J0D01*
G01*
X020353Y032629D02*
G03*
X020353Y032471I0J-000079D01*
G01*
X022238Y02465D02*
G03*
X022238Y02465I-000039J0D01*
G01*
X03975Y0163D02*
Y0213D01*
X03775Y0163D02*
X03975D01*
X03775D02*
Y0193D01*
Y0213D01*
X03975D01*
X03875Y0203D02*
Y0213D01*
Y0203D02*
X03975D01*
X028049Y03566D02*
X028749D01*
X028049Y03704D02*
X028749D01*
Y03566D02*
Y036189D01*
Y036494D02*
Y03704D01*
X028049Y036494D02*
Y03704D01*
Y03566D02*
Y036189D01*
X03484Y03228D02*
Y03298D01*
X03346Y03228D02*
Y03298D01*
X034311D02*
X03484D01*
X03346D02*
X034006D01*
X03346Y03228D02*
X034006D01*
X034311D02*
X03484D01*
Y03516D02*
Y03586D01*
X03346Y03516D02*
Y03586D01*
X034311D02*
X03484D01*
X03346D02*
X034006D01*
X03346Y03516D02*
X034006D01*
X034311D02*
X03484D01*
Y03372D02*
Y03442D01*
X03346Y03372D02*
Y03442D01*
X034311D02*
X03484D01*
X03346D02*
X034006D01*
X03346Y03372D02*
X034006D01*
X034311D02*
X03484D01*
X032511Y03442D02*
X033039D01*
Y03371D02*
Y03442D01*
X032511Y03371D02*
X033039D01*
X031661D02*
X032206D01*
X031661Y03442D02*
X032206D01*
X031661Y03371D02*
Y03442D01*
X032511Y03586D02*
X033039D01*
Y03515D02*
Y03586D01*
X032511Y03515D02*
X033039D01*
X031661D02*
X032206D01*
X031661Y03586D02*
X032206D01*
X031661Y03515D02*
Y03586D01*
X032511Y03298D02*
X033039D01*
Y03227D02*
Y03298D01*
X032511Y03227D02*
X033039D01*
X031661D02*
X032206D01*
X031661Y03298D02*
X032206D01*
X031661Y03227D02*
Y03298D01*
X032628Y04513D02*
X033156D01*
Y04442D02*
Y04513D01*
X032628Y04442D02*
X033156D01*
X031778D02*
X032323D01*
X031778Y04513D02*
X032323D01*
X031778Y04442D02*
Y04513D01*
X028159Y0444D02*
Y0451D01*
X029539Y0444D02*
Y0451D01*
X028159Y0444D02*
X028688D01*
X028993D02*
X029539D01*
X028993Y0451D02*
X029539D01*
X028159D02*
X028688D01*
X031776Y039112D02*
Y039812D01*
X033156Y039112D02*
Y039812D01*
X031776Y039112D02*
X032305D01*
X03261D02*
X033156D01*
X03261Y039812D02*
X033156D01*
X031776D02*
X032305D01*
X02773Y04036D02*
X02843D01*
X02773Y04174D02*
X02843D01*
Y04036D02*
Y040889D01*
Y041194D02*
Y04174D01*
X02773Y041194D02*
Y04174D01*
Y04036D02*
Y040889D01*
X030061Y04442D02*
X030589D01*
X030061D02*
Y04513D01*
X030589D01*
X030894D02*
X031439D01*
X030894Y04442D02*
X031439D01*
Y04513D01*
X02772Y043311D02*
Y043839D01*
X02843D01*
Y043311D02*
Y043839D01*
Y042461D02*
Y043006D01*
X02772Y042461D02*
Y043006D01*
Y042461D02*
X02843D01*
X028161Y03912D02*
X028689D01*
X028161D02*
Y03983D01*
X028689D01*
X028994D02*
X029539D01*
X028994Y03912D02*
X029539D01*
Y03983D01*
X030061Y03907D02*
X030589D01*
X030061D02*
Y03978D01*
X030589D01*
X030894D02*
X031439D01*
X030894Y03907D02*
X031439D01*
Y03978D01*
X01986Y04235D02*
Y04305D01*
X02124Y04235D02*
Y04305D01*
X01986Y04235D02*
X020389D01*
X020694D02*
X02124D01*
X020694Y04305D02*
X02124D01*
X01986D02*
X020389D01*
X012161Y03242D02*
X012689D01*
X012161D02*
Y03313D01*
X012689D01*
X012994D02*
X013539D01*
X012994Y03242D02*
X013539D01*
Y03313D01*
X014361Y03047D02*
X014889D01*
X014361D02*
Y03118D01*
X014889D01*
X015194D02*
X015739D01*
X015194Y03047D02*
X015739D01*
Y03118D01*
X015211Y032137D02*
X015739D01*
Y031427D02*
Y032137D01*
X015211Y031427D02*
X015739D01*
X014361D02*
X014906D01*
X014361Y032137D02*
X014906D01*
X014361Y031427D02*
Y032137D01*
X015211Y029554D02*
X015739D01*
Y028844D02*
Y029554D01*
X015211Y028844D02*
X015739D01*
X014361D02*
X014906D01*
X014361Y029554D02*
X014906D01*
X014361Y028844D02*
Y029554D01*
Y027837D02*
X014889D01*
X014361D02*
Y028547D01*
X014889D01*
X015194D02*
X015739D01*
X015194Y027837D02*
X015739D01*
Y028547D01*
X013011Y02758D02*
X013539D01*
Y02687D02*
Y02758D01*
X013011Y02687D02*
X013539D01*
X012161D02*
X012706D01*
X012161Y02758D02*
X012706D01*
X012161Y02687D02*
Y02758D01*
X013023Y030847D02*
X013121D01*
X013279D02*
X013377D01*
X013023D02*
Y031753D01*
X013377D01*
Y030847D02*
Y031753D01*
X013023Y028247D02*
X013121D01*
X013279D02*
X013377D01*
X013023D02*
Y029153D01*
X013377D01*
Y028247D02*
Y029153D01*
X0278Y03064D02*
X0285D01*
X0278Y02926D02*
X0285D01*
X0278Y030111D02*
Y03064D01*
Y02926D02*
Y029806D01*
X0285Y02926D02*
Y029806D01*
Y030111D02*
Y03064D01*
X026829Y030403D02*
X026927D01*
X026573D02*
X026671D01*
X026927Y029497D02*
Y030403D01*
X026573Y029497D02*
X026927D01*
X026573D02*
Y030403D01*
X026829Y028203D02*
X026927D01*
X026573D02*
X026671D01*
X026927Y027297D02*
Y028203D01*
X026573Y027297D02*
X026927D01*
X026573D02*
Y028203D01*
X0278Y027065D02*
X0285D01*
X0278Y028445D02*
X0285D01*
Y027065D02*
Y027594D01*
Y027899D02*
Y028445D01*
X0278Y027899D02*
Y028445D01*
Y027065D02*
Y027594D01*
X025691Y02926D02*
Y029788D01*
X024981Y02926D02*
X025691D01*
X024981D02*
Y029788D01*
Y030093D02*
Y030638D01*
X025691Y030093D02*
Y030638D01*
X024981D02*
X025691D01*
X023806Y027914D02*
Y028443D01*
X024516D01*
Y027914D02*
Y028443D01*
Y027065D02*
Y027609D01*
X023806Y027065D02*
Y027609D01*
Y027065D02*
X024516D01*
X025691D02*
Y027593D01*
X024981Y027065D02*
X025691D01*
X024981D02*
Y027593D01*
Y027898D02*
Y028443D01*
X025691Y027898D02*
Y028443D01*
X024981D02*
X025691D01*
X023756Y03011D02*
Y030638D01*
X024466D01*
Y03011D02*
Y030638D01*
Y02926D02*
Y029805D01*
X023756Y02926D02*
Y029805D01*
Y02926D02*
X024466D01*
X020111Y028343D02*
X020639D01*
Y027633D02*
Y028343D01*
X020111Y027633D02*
X020639D01*
X019261D02*
X019806D01*
X019261Y028343D02*
X019806D01*
X019261Y027633D02*
Y028343D01*
X020111Y029368D02*
X020639D01*
Y028658D02*
Y029368D01*
X020111Y028658D02*
X020639D01*
X019261D02*
X019806D01*
X019261Y029368D02*
X019806D01*
X019261Y028658D02*
Y029368D01*
Y02982D02*
X019789D01*
X019261D02*
Y03053D01*
X019789D01*
X020094D02*
X020639D01*
X020094Y02982D02*
X020639D01*
Y03053D01*
X019261Y03347D02*
X019789D01*
X019261D02*
Y03418D01*
X019789D01*
X020094D02*
X020639D01*
X020094Y03347D02*
X020639D01*
Y03418D01*
X020111Y03513D02*
X020639D01*
Y03442D02*
Y03513D01*
X020111Y03442D02*
X020639D01*
X019261D02*
X019806D01*
X019261Y03513D02*
X019806D01*
X019261Y03442D02*
Y03513D01*
X020639Y03085D02*
Y03155D01*
X019259Y03085D02*
Y03155D01*
X02011D02*
X020639D01*
X019259D02*
X019805D01*
X019259Y03085D02*
X019805D01*
X02011D02*
X020639D01*
X020353Y032373D02*
Y032471D01*
Y032629D02*
Y032727D01*
X019447Y032373D02*
X020353D01*
X019447D02*
Y032727D01*
X020353D01*
X020493Y024541D02*
X021193D01*
X020493Y023161D02*
X021193D01*
X020493Y024011D02*
Y024541D01*
Y023161D02*
Y023706D01*
X021193Y023161D02*
Y023706D01*
Y024011D02*
Y024541D01*
X020493Y022846D02*
X021193D01*
X020493Y021466D02*
X021193D01*
X020493Y022316D02*
Y022846D01*
Y021466D02*
Y022011D01*
X021193Y021466D02*
Y022011D01*
Y022316D02*
Y022846D01*
X025407Y022317D02*
Y022846D01*
X026117D01*
Y022317D02*
Y022846D01*
Y021468D02*
Y022012D01*
X025407Y021468D02*
Y022012D01*
Y021468D02*
X026117D01*
X026167Y023163D02*
Y023691D01*
X025457Y023163D02*
X026167D01*
X025457D02*
Y023691D01*
Y023996D02*
Y024541D01*
X026167Y023996D02*
Y024541D01*
X025457D02*
X026167D01*
X01155Y02529D02*
X01225D01*
X01155Y02391D02*
X01225D01*
X01155Y024761D02*
Y02529D01*
Y02391D02*
Y024456D01*
X01225Y02391D02*
Y024456D01*
Y024761D02*
Y02529D01*
X01155Y02339D02*
X01225D01*
X01155Y02201D02*
X01225D01*
X01155Y022861D02*
Y02339D01*
Y02201D02*
Y022556D01*
X01225Y02201D02*
Y022556D01*
Y022861D02*
Y02339D01*
X01495Y0209D02*
Y02149D01*
X01285Y0209D02*
X01495D01*
X01285D02*
Y0217D01*
X01376Y02158D02*
X01404D01*
X01376Y02101D02*
X01404D01*
X01285Y0217D02*
X01495D01*
Y02149D02*
Y0217D01*
X01555Y02529D02*
X01625D01*
X01555Y02391D02*
X01625D01*
X01555Y024761D02*
Y02529D01*
Y02391D02*
Y024456D01*
X01625Y02391D02*
Y024456D01*
Y024761D02*
Y02529D01*
X01555Y02201D02*
X01625D01*
X01555Y02339D02*
X01625D01*
Y02201D02*
Y022539D01*
Y022844D02*
Y02339D01*
X01555Y022844D02*
Y02339D01*
Y02201D02*
Y022539D01*
X0156Y01994D02*
X0163D01*
X0156Y01856D02*
X0163D01*
X0156Y019411D02*
Y01994D01*
Y01856D02*
Y019106D01*
X0163Y01856D02*
Y019106D01*
Y019411D02*
Y01994D01*
X016673D02*
X017373D01*
X016673Y01856D02*
X017373D01*
X016673Y019411D02*
Y01994D01*
Y01856D02*
Y019106D01*
X017373Y01856D02*
Y019106D01*
Y019411D02*
Y01994D01*
X017747Y01941D02*
Y019938D01*
X018457D01*
Y01941D02*
Y019938D01*
Y01856D02*
Y019105D01*
X017747Y01856D02*
Y019105D01*
Y01856D02*
X018457D01*
X01882Y01941D02*
Y019938D01*
X01953D01*
Y01941D02*
Y019938D01*
Y01856D02*
Y019105D01*
X01882Y01856D02*
Y019105D01*
Y01856D02*
X01953D01*
D56*
X02867Y036258D02*
Y036438D01*
X02813Y036258D02*
Y036438D01*
X034062Y032901D02*
X034242D01*
X034062Y032361D02*
X034242D01*
X034062Y035781D02*
X034242D01*
X034062Y035241D02*
X034242D01*
X034062Y034341D02*
X034242D01*
X034062Y033801D02*
X034242D01*
X032262Y034334D02*
X032442D01*
X032262Y033794D02*
X032442D01*
X032262Y035774D02*
X032442D01*
X032262Y035234D02*
X032442D01*
X032262Y032894D02*
X032442D01*
X032262Y032354D02*
X032442D01*
X032379Y045044D02*
X032559D01*
X032379Y044504D02*
X032559D01*
X028757Y044479D02*
X028937D01*
X028757Y045019D02*
X028937D01*
X032374Y039191D02*
X032554D01*
X032374Y039731D02*
X032554D01*
X028351Y040958D02*
Y041138D01*
X027811Y040958D02*
Y041138D01*
X030658Y044506D02*
X030838D01*
X030658Y045046D02*
X030838D01*
X027806Y043062D02*
Y043242D01*
X028346Y043062D02*
Y043242D01*
X028758Y039206D02*
X028938D01*
X028758Y039746D02*
X028938D01*
X030658Y039156D02*
X030838D01*
X030658Y039696D02*
X030838D01*
X020458Y042429D02*
X020638D01*
X020458Y042969D02*
X020638D01*
X012758Y032506D02*
X012938D01*
X012758Y033046D02*
X012938D01*
X014958Y030556D02*
X015138D01*
X014958Y031096D02*
X015138D01*
X014962Y032051D02*
X015142D01*
X014962Y031511D02*
X015142D01*
X014962Y029468D02*
X015142D01*
X014962Y028928D02*
X015142D01*
X014958Y027923D02*
X015138D01*
X014958Y028463D02*
X015138D01*
X012762Y027494D02*
X012942D01*
X012762Y026954D02*
X012942D01*
X027879Y029862D02*
Y030042D01*
X028419Y029862D02*
Y030042D01*
X028421Y027663D02*
Y027843D01*
X027881Y027663D02*
Y027843D01*
X025605Y029857D02*
Y030037D01*
X025065Y029857D02*
Y030037D01*
X023892Y027665D02*
Y027845D01*
X024432Y027665D02*
Y027845D01*
X025605Y027662D02*
Y027842D01*
X025065Y027662D02*
Y027842D01*
X023842Y029861D02*
Y030041D01*
X024382Y029861D02*
Y030041D01*
X019862Y028257D02*
X020042D01*
X019862Y027717D02*
X020042D01*
X019862Y029281D02*
X020042D01*
X019862Y028742D02*
X020042D01*
X019858Y029906D02*
X020038D01*
X019858Y030446D02*
X020038D01*
X019858Y033556D02*
X020038D01*
X019858Y034096D02*
X020038D01*
X019862Y035044D02*
X020042D01*
X019862Y034504D02*
X020042D01*
X019861Y031471D02*
X020041D01*
X019861Y030931D02*
X020041D01*
X020571Y023762D02*
Y023942D01*
X021111Y023762D02*
Y023942D01*
X020571Y022067D02*
Y022247D01*
X021111Y022067D02*
Y022247D01*
X025494Y022068D02*
Y022248D01*
X026034Y022068D02*
Y022248D01*
X026081Y02376D02*
Y02394D01*
X025541Y02376D02*
Y02394D01*
X011629Y024512D02*
Y024692D01*
X012169Y024512D02*
Y024692D01*
X011629Y022612D02*
Y022792D01*
X012169Y022612D02*
Y022792D01*
X015629Y024512D02*
Y024692D01*
X016169Y024512D02*
Y024692D01*
X016171Y022608D02*
Y022788D01*
X015631Y022608D02*
Y022788D01*
X015679Y019162D02*
Y019342D01*
X016219Y019162D02*
Y019342D01*
X016752Y019162D02*
Y019342D01*
X017292Y019162D02*
Y019342D01*
X017833Y019161D02*
Y019341D01*
X018373Y019161D02*
Y019341D01*
X018906Y019161D02*
Y019341D01*
X019446Y019161D02*
Y019341D01*
D57*
X016467Y015514D02*
G03*
X016467Y015514I-000098J0D01*
G01*
X027391Y0363D02*
Y03679D01*
X026722D02*
X027391D01*
X022498D02*
X02486D01*
X022301Y03181D02*
X025057D01*
X027391D02*
Y033119D01*
X026722Y03181D02*
X027391D01*
X021309D02*
Y03679D01*
X025751Y044125D02*
X027011D01*
X025751Y039204D02*
X027011D01*
X022089D02*
X023349D01*
X022089Y044125D02*
X023349D01*
X027011Y039204D02*
Y044125D01*
X022089Y039204D02*
Y044125D01*
X021992Y022134D02*
Y023866D01*
X024708Y022134D02*
Y023866D01*
X018534Y017089D02*
Y017384D01*
X018239D02*
X018534D01*
X016566D02*
X016861D01*
X016566Y017089D02*
Y017384D01*
X018534Y015416D02*
Y015711D01*
X018239Y015416D02*
X018534D01*
X016566Y015555D02*
Y015711D01*
Y015555D02*
X016705Y015416D01*
X016861D01*
D58*
X031409Y043192D02*
G03*
X031409Y043192I-000118J0D01*
G01*
X020513Y04486D02*
X022187D01*
X020513Y04614D02*
X022187D01*
X023081Y046182D02*
X024755D01*
X023081Y044902D02*
X024755D01*
X033963Y041728D02*
X035637D01*
X033963Y040448D02*
X035637D01*
X033963Y04374D02*
X035637D01*
X033963Y04246D02*
X035637D01*
X030267Y042995D02*
X031054D01*
X031133Y042916D01*
Y041105D02*
Y042916D01*
X030267Y041105D02*
X031133D01*
X030267D02*
Y042995D01*
X019713Y04071D02*
X021387D01*
X019713Y04199D02*
X021387D01*
X019713Y03906D02*
X021387D01*
X019713Y04034D02*
X021387D01*
X01544Y015613D02*
Y017287D01*
X01416Y015613D02*
Y017287D01*
X02819Y03699D02*
X02839D01*
X02829D01*
Y03649D01*
X02839Y03639D01*
X02849D01*
X02859Y03649D01*
X04125Y02095D02*
X04145D01*
Y0208D01*
X04135D01*
X04145D01*
Y02065D01*
X04115D02*
Y02085D01*
X0411D01*
X04105Y0208D01*
Y02065D01*
Y0208D01*
X041Y02085D01*
X04095Y0208D01*
Y02065D01*
X0408D02*
X0407D01*
X04065Y0207D01*
Y0208D01*
X0407Y02085D01*
X0408D01*
X04085Y0208D01*
Y0207D01*
X0408Y02065D01*
X04035Y02095D02*
Y02065D01*
X0405D01*
X04055Y0207D01*
Y0208D01*
X0405Y02085D01*
X04035D01*
X0401Y02065D02*
X0402D01*
X04025Y0207D01*
Y0208D01*
X0402Y02085D01*
X0401D01*
X04005Y0208D01*
Y02075D01*
X04025D01*
X04085Y01965D02*
Y01995D01*
X0407D01*
X04065Y0199D01*
Y0198D01*
X0407Y01975D01*
X04085D01*
X04055Y01995D02*
Y01965D01*
X04045Y01975D01*
X04035Y01965D01*
Y01995D01*
X04025Y01965D02*
Y01995D01*
X0401D01*
X04005Y0199D01*
Y0198D01*
X0401Y01975D01*
X04025D01*
X04015D02*
X04005Y01965D01*
X04085Y01865D02*
Y01895D01*
X0407D01*
X04065Y0189D01*
Y0188D01*
X0407Y01875D01*
X04085D01*
X04075D02*
X04065Y01865D01*
X04035Y0189D02*
X0404Y01895D01*
X0405D01*
X04055Y0189D01*
Y01885D01*
X0405Y0188D01*
X0404D01*
X04035Y01875D01*
Y0187D01*
X0404Y01865D01*
X0405D01*
X04055Y0187D01*
X04025Y01895D02*
X04005D01*
X04015D01*
Y01865D01*
X04065Y0179D02*
X0407Y01795D01*
X0408D01*
X04085Y0179D01*
Y0177D01*
X0408Y01765D01*
X0407D01*
X04065Y0177D01*
Y0178D01*
X04075D01*
X04055Y01765D02*
Y01795D01*
X04035Y01765D01*
Y01795D01*
X04025D02*
Y01765D01*
X0401D01*
X04005Y0177D01*
Y0179D01*
X0401Y01795D01*
X04025D01*
X04085Y0169D02*
Y0167D01*
X04075Y0166D01*
X04065Y0167D01*
Y0169D01*
X04055D02*
Y0166D01*
X0404D01*
X04035Y01665D01*
Y01685D01*
X0404Y0169D01*
X04055D01*
X04025D02*
Y0166D01*
X0401D01*
X04005Y01665D01*
Y01685D01*
X0401Y0169D01*
X04025D01*
X0373Y02095D02*
Y02065D01*
X03715D01*
X0371Y0207D01*
Y0209D01*
X03715Y02095D01*
X0373D01*
X037D02*
X0368D01*
X0369D01*
Y02065D01*
X0367D02*
Y02095D01*
X03655D01*
X0365Y0209D01*
Y0208D01*
X03655Y02075D01*
X0367D01*
X0366D02*
X0365Y02065D01*
X0373Y01965D02*
Y01995D01*
X03715D01*
X0371Y0199D01*
Y0198D01*
X03715Y01975D01*
X0373D01*
X0372D02*
X0371Y01965D01*
X037Y01995D02*
X0369D01*
X03695D01*
Y01965D01*
X037D01*
X0369D01*
X0373Y01865D02*
Y01895D01*
X03715D01*
X0371Y0189D01*
Y0188D01*
X03715Y01875D01*
X0373D01*
X0372D02*
X0371Y01865D01*
X037Y01895D02*
X0368Y01865D01*
Y01895D02*
X037Y01865D01*
X0367Y01895D02*
Y01865D01*
X03655D01*
X0365Y0187D01*
Y0189D01*
X03655Y01895D01*
X0367D01*
X0373Y0179D02*
X0371D01*
X0372D01*
Y0176D01*
X037Y0179D02*
X0368Y0176D01*
Y0179D02*
X037Y0176D01*
X0367Y0179D02*
Y0176D01*
X03655D01*
X0365Y01765D01*
Y01785D01*
X03655Y0179D01*
X0367D01*
X0373Y0169D02*
Y0167D01*
X0372Y0166D01*
X0371Y0167D01*
Y0169D01*
X037D02*
Y0166D01*
X03685D01*
X0368Y01665D01*
Y01685D01*
X03685Y0169D01*
X037D01*
X0367D02*
Y0166D01*
X03655D01*
X0365Y01665D01*
Y01685D01*
X03655Y0169D01*
X0367D01*
D93*
X014507Y023099D02*
G03*
X014507Y023099I-000028J0D01*
G01*
D94*
X012983Y030709D02*
D03*
Y028109D02*
D03*
X026967Y030541D02*
D03*
Y028341D02*
D03*
X020491Y032333D02*
D03*
M02*
