M48
;Layer_Color=9474304
;FILE_FORMAT=2:4
INCH,LZ
;TYPE=PLATED
T1F00S00C0.0118
T2F00S00C0.0157
T3F00S00C0.0433
T4F00S00C0.0630
T5F00S00C0.1181
%
T01
X034646Y024409
X035433
X03622
X037008
X037795
X037402Y025197
X036614
X035827
X035039
X035433Y025984
X03622
X037008
X037795
X037402Y026772
X036614
X035827
X035039
X035433Y027559
X03622
X037008
X037795
X037402Y028346
X036614
X035827
X035039
X035433Y029134
X03622
X037008
X037795
X037402Y029921
X036614
X035827
X035039
X034646Y029134
Y027559
Y025984
X0302Y02745
X0272Y0268
X0227Y02925
X0221
X0163Y0215
X01435Y0221
X014173Y025984
X013386
X012598
X011811
X01222Y034983
X012089Y035249
X012089Y035546
X012217Y035814
X012445Y036004
X012733Y036077
X013024Y036017
X013262Y035841
X013525Y035703
X013822
X014119Y035699
X014377Y035551
X014586Y035342
X01488Y035298
X015174Y035342
X015161Y035639
Y035936
X015178Y036232
X015449Y036354
X014894Y034693
X014597
X01431Y034767
X014097Y034975
X013827Y035097
X01353
X013265Y034963
X013028Y034785
X012738Y034724
X012449Y034794
X015883Y0349
X015902Y035196
X015913Y036339
X024016Y035433
X024803
X025197Y034646
X024409
X023622
X024016Y033858
X024803
X025197Y033071
X024409
X023622
X026772Y044095
X027165Y044882
X026378
X037402Y043307
X038189
X038976
X03937Y04252
X038583
X037795
X037008
X037402Y041732
X038189
X038976
X03937Y040945
X038583
X037795
X037008
X037402Y040157
X038189
X038976
X03937Y03937
X038583
X037795
X037008
T02
X01575Y01595
X015753Y016597
X01645Y01805
X0175Y023
X02175Y02475
X022522Y026628
X022916Y026384
X023309Y026741
X023703Y026397
X024097Y026697
X024491Y026391
X02315Y02815
Y03025
X01885Y03
X0186Y0296
X018801Y031201
X0163Y03095
X0203Y027
X022966Y020916
X023222Y020422
X0241Y0213
X02885Y02815
Y02955
X01205Y0287
X0109Y03055
X01435Y02015
X01205Y0313
X0163Y03185
X021Y03475
X02095Y03875
X0284Y0355
Y03505
Y0334
X0289Y0328
X03095Y03315
X031Y0323
Y0343
X0305Y03555
X031Y0363
X031122Y040178
X02585Y0465
X03205Y046
X0323Y0407
T03
X03825Y0168
Y0178
Y0188
Y0198
Y0208
X03925
Y0198
Y0188
Y0178
Y0168
X0285Y0225
X0275
Y0235
Y0245
X0285
Y0235
X02445Y0196
Y0186
X02345
X02245
X02145
Y0196
X02245
X02345
X01935Y0225
Y0235
Y0245
T04
X01175Y0344
X01275Y0354
X01375Y0364
Y0344
X01175Y0364
T05
X01175Y01565
Y0454
X04005
M30
